
<svg width="231px" height="29px" viewBox="40 103 231 29" version="1.1" xmlns="http://www.w3.org/2000/svg" xmlns:xlink="http://www.w3.org/1999/xlink">
    <!-- Generator: Sketch 42 (36781) - http://www.bohemiancoding.com/sketch -->
    <desc>Created with Sketch.</desc>
    <defs></defs>
    <g id="Page-1" opacity="0.4" stroke="none" stroke-width="1" fill="none" fill-rule="evenodd" transform="translate(40.000000, 103.000000)">
        <g id="Group-30" transform="translate(190.000000, 3.004465)" fill="#6E6E6E">
            <path d="M21.5474987,19.0278437 C18.9680298,19.0278437 16.8771791,16.9369254 16.8771791,14.3574565 C16.8771791,11.7778522 18.9680974,9.68713682 21.5474987,9.68713682 C24.1267648,9.68713682 26.217886,11.7778522 26.217886,14.3574565 C26.2178184,16.9369254 24.1267648,19.0278437 21.5474987,19.0278437 L21.5474987,19.0278437 Z M7.79075934,19.0278437 C5.21135802,19.0278437 3.12050736,16.9369254 3.12050736,14.3576594 C3.12050736,11.7780551 5.21142567,9.68713682 7.79075934,9.68713682 C10.3701607,9.68713682 12.4611466,11.7780551 12.4611466,14.3576594 C12.4611466,16.9369254 10.3701607,19.0278437 7.79075934,19.0278437 L7.79075934,19.0278437 Z M21.5474987,6.57115508 C18.5661356,6.57115508 15.9773313,8.24746153 14.6690952,10.708209 C13.3608591,8.24732623 10.7721224,6.57129038 7.79089464,6.57129038 C6.03855234,6.57129038 4.42157281,7.15028581 3.120575,8.12738711 L3.120575,1.56882124 L3.11983088,1.56882124 C3.10163369,0.723632674 2.41196685,0.0435041434 1.56238119,0.0435041434 C0.712727888,0.0435041434 0.0232639946,0.723632674 0.00526974463,1.56882124 L0.00452562151,1.56882124 L0.00452562151,14.486528 L0.00777270421,14.486528 C0.0769761542,18.7269474 3.53383393,22.1440284 7.79075934,22.1440284 C10.7720548,22.1440284 13.3608591,20.467519 14.6690276,18.0066362 C15.9773313,20.4676543 18.566068,22.1438931 21.5473634,22.1438931 C25.8475833,22.1438931 29.3336648,18.657541 29.3336648,14.3575241 C29.3337325,10.0570337 25.8475156,6.57115508 21.5474987,6.57115508 Z" id="Fill-26"></path>
            <path d="M39.8077456,19.6934145 L35.8201251,14.3632606 L39.8077456,9.03297142 L39.8070015,9.03229494 C40.3002875,8.3456046 40.1573482,7.38764756 39.4778962,6.8771791 C38.798647,6.36725182 37.8387959,6.49679689 37.3167597,7.16170472 L37.3163538,7.16156942 L33.8747167,11.7620768 L30.4330797,7.16156942 L30.4325385,7.16231355 C29.9104346,6.49679689 28.9507864,6.36725182 28.2712667,6.87758498 C27.5918146,7.38805344 27.448943,8.34594284 27.9424319,9.03249789 L27.9416878,9.03297142 L31.9292407,14.3632606 L27.9416878,19.6934145 L27.9424319,19.693888 C27.4488077,20.380646 27.5918146,21.3383325 28.2712667,21.848598 C28.9507864,22.3590665 29.9104346,22.2293861 30.4325385,21.5642753 L30.4330797,21.5649518 L33.8747167,16.9641739 L37.3163538,21.5649518 L37.3167597,21.5647489 C37.8389312,22.229589 38.798647,22.3590665 39.4778962,21.8490039 C40.1573482,21.3387384 40.3002875,20.3807813 39.8070015,19.6941586 L39.8077456,19.6934145 Z" id="Fill-28"></path>
        </g>
        <g id="Group-39" transform="translate(0.000000, 0.569153)" fill="#777777">
            <path d="M29.0923863,5.59590732 L20.5346998,0.00808388297 L14.5461999,5.00622358 L23.1750516,10.334348 L29.0923863,5.59590732 Z M14.5461999,15.6624725 L20.5344292,20.6606122 L29.0923863,15.0734652 L23.1748486,10.334551 L14.5461999,15.6626755 L14.5461999,15.6624725 Z M1.35295112e-05,15.0732623 L8.55817352,20.6606122 L14.5461999,15.6626755 L5.91734822,10.334348 L1.35295112e-05,15.0732623 Z M8.55817352,0.00808388297 L1.35295112e-05,5.59590732 L5.91734822,10.334348 L14.545997,5.00649417 L8.55817352,0.00808388297 Z" id="Fill-31"></path>
            <polygon id="Fill-33" points="14.5637477 16.7378319 8.55792998 21.7212244 5.98847286 20.0434297 5.98847286 21.9243024 14.5637477 27.0670726 23.1392254 21.9245053 23.1392254 20.0437003 20.569836 21.7214274 14.5639506 16.7378319"></polygon>
            <path d="M85.605175,9.27784204 C82.2810418,9.27784204 81.0601387,11.6020768 81.0601387,15.0775376 C81.0601387,18.6651581 82.3720277,20.8764214 85.5823778,20.8764214 C88.8380518,20.8764214 90.1268053,18.6426315 90.1268053,15.077267 C90.1268053,11.6020768 88.9056317,9.27757145 85.605175,9.27757145 L85.605175,9.27784204 Z M85.605175,11.4440521 C86.5536614,11.4440521 86.9164553,12.211243 86.9164553,15.0775376 C86.9164553,18.0559919 86.509217,18.710482 85.605175,18.710482 C84.6780653,18.710482 84.2702182,18.0331947 84.2702182,15.077267 C84.2702182,12.346944 84.5873499,11.4440521 85.5823778,11.4440521 L85.6054456,11.4440521 L85.605175,11.4440521 Z M71.305767,5.59930323 L71.305767,20.6510874 L73.1369187,20.6510874 C73.3859293,19.8615052 73.4991037,19.6361711 73.7255877,19.2069474 C73.9962456,19.7710604 74.5166582,20.8764214 76.3028243,20.8764214 C76.8908845,20.8764214 77.5012007,20.7637883 78.1117876,20.4483477 C80.146829,19.3877693 80.2825977,16.0477389 80.2825977,15.0096871 C80.2825977,12.3247556 79.4233384,9.36801624 76.6866565,9.36801624 C75.3531202,9.36801624 74.7434128,10.0906274 74.3580923,10.5645662 L74.3580923,5.59957382 L71.305767,5.59957382 L71.305767,5.59930323 Z M74.3580923,13.4525757 C74.3580923,12.8885304 74.3580923,12.3244174 74.7206156,11.8952613 C74.9464908,11.6020768 75.308067,11.4215255 75.7150347,11.4215255 C76.5968206,11.4215255 77.0717064,12.1664603 77.0717064,15.0997937 C77.0717064,17.9658853 76.6424827,18.732738 75.6697108,18.732738 C74.3580923,18.732738 74.3580923,17.2885304 74.3580923,16.0246711 L74.3580923,13.4525757 Z M61.4294943,9.52597328 L61.4294943,24.4191916 L64.4818874,24.4191916 L64.4818874,19.8389785 C64.8206663,20.1994047 65.3858617,20.8082327 66.607103,20.8082327 C70.1567732,20.8082327 70.3832572,16.5208659 70.3832572,14.941566 C70.3832572,13.0684729 70.0216134,11.3306071 68.9362084,10.2251784 C68.3938102,9.68365973 67.5567394,9.36740741 66.8104515,9.36740741 C65.2954845,9.36740741 64.6848977,10.4730391 64.3004566,11.1957179 L64.3004566,9.52570269 L61.4294943,9.52570269 L61.4294943,9.52597328 Z M64.4824285,13.9938914 C64.4824285,13.0011635 64.4824285,11.4218637 65.8838153,11.4218637 C67.0819212,11.4218637 67.1722983,12.9786369 67.1722983,14.9418366 C67.1722983,17.2888686 67.0599357,18.6651581 65.7931676,18.6651581 C64.482158,18.6654287 64.482158,17.7172129 64.482158,16.1150482 L64.482158,13.9938914 L64.4824285,13.9938914 Z M55.9888043,9.27784204 C52.6654828,9.27784204 51.444918,11.6020768 51.444918,15.0775376 C51.444918,18.6651581 52.755657,20.8764214 55.9665483,20.8764214 C59.2222222,20.8764214 60.5109758,18.6426315 60.5109758,15.077267 C60.5109758,11.6020768 59.290411,9.27757145 55.9888043,9.27757145 L55.9888043,9.27784204 Z M55.9888043,11.4440521 C56.9390496,11.4440521 57.3003551,12.211243 57.3003551,15.0775376 C57.3003551,18.0559919 56.8933875,18.710482 55.9888043,18.710482 C55.0619652,18.710482 54.6552681,18.0331947 54.6552681,15.077267 C54.6552681,12.346944 54.971791,11.4440521 55.9665483,11.4440521 L55.9888043,11.4440521 Z M45.1227127,9.52597328 L45.1227127,20.6508845 L48.2198207,20.6508845 L48.2198207,15.8447286 C48.2198207,14.9868899 48.2198207,12.4145916 50.5030611,12.4145916 C50.6165737,12.4145916 50.7514629,12.4145916 51.0226619,12.4599154 L51.0226619,9.43579909 C50.8649078,9.39054287 50.7072214,9.367678 50.4801962,9.367678 C48.6718417,9.367678 48.129173,11.2635684 47.8576357,12.211243 L47.8576357,9.52597328 L45.1224421,9.52597328 L45.1227127,9.52597328 Z M33.4496533,20.6508845 L37.4062912,20.6508845 C38.5593438,20.6508845 40.1868764,20.6508845 41.5215627,19.6127651 C43.1494335,18.3713648 43.9861661,15.8441197 43.9861661,13.0234196 C43.9861661,5.62182987 39.3053611,5.59930323 36.9990529,5.59930323 L33.4493151,5.59930323 L33.4493151,20.6508845 L33.4496533,20.6508845 Z M36.7509893,8.19473702 L37.3159141,8.19473702 C38.6499915,8.19473702 40.4814815,8.35276171 40.4814815,12.9783663 C40.4814815,17.8976966 38.6278031,18.0559919 37.3159141,18.0559919 L36.7509893,18.0559919 L36.7509893,8.19473702 Z" id="Fill-35"></path>
            <polygon id="Fill-37" points="90.0063792 9.52597328 92.8782209 14.9646339 89.577426 20.6508845 92.2673634 20.6508845 94.1441772 17.3120041 95.7719804 20.6508845 99.1408963 20.6508845 95.8170337 14.4227769 98.6883342 9.52597328 95.998735 9.52597328 94.5736039 12.0982716 93.3755657 9.52597328"></polygon>
        </g>
        <g id="Group-46" transform="translate(129.000000, 0.569153)">
            <polygon id="Fill-40" fill="#838383" points="5.24965331 27.0670996 10.4556739 18.047448 31.28138 18.047448 26.0748858 27.0670996"></polygon>
            <polygon id="Fill-42" fill="#DBDBDB" points="20.868872 18.0474142 31.2813868 18.0474142 20.868872 0.00804329444 10.4556807 0.00804329444"></polygon>
            <polygon id="Fill-44" fill="#868686" points="0.0429426687 18.0474142 5.24963978 27.0670658 15.6621546 9.02776256 10.4556604 0.00804329444"></polygon>
        </g>
    </g>
</svg>
