<svg width="189px" height="86px" viewBox="76 0 189 86" version="1.1" xmlns="http://www.w3.org/2000/svg" xmlns:xlink="http://www.w3.org/1999/xlink">
    <!-- Generator: Sketch 42 (36781) - http://www.bohemiancoding.com/sketch -->
    <desc>Created with Sketch.</desc>
    <defs>
        <polygon id="path-1" points="0.0761797407 0.38078303 102.790498 0.38078303 102.790498 56.9158703 0.0761797407 56.9158703 0.0761797407 0.38078303"></polygon>
        <polygon id="path-3" points="0 86 189 86 189 1 0 1"></polygon>
    </defs>
    <g id="Page-1" opacity="0.5" stroke="none" stroke-width="1" fill="none" fill-rule="evenodd" transform="translate(76.000000, 0.000000)">
        <path d="M163.678032,26.6126355 C165.839263,25.4173497 168.306937,24.7482055 170.935897,24.7482055 C179.258249,24.7482055 186,31.5124981 186,39.8687064 C186,48.2222166 179.258249,55 170.935897,55 L103.069479,55 C94.7444387,55 88,48.2222166 88,39.8687064 C88,31.5124981 94.7444387,24.7482055 103.069479,24.7482055 C105.98069,24.7482055 108.695669,25.5684468 110.983241,26.9930764 C111.757413,13.0651632 123.262474,2 137.350797,2 C151.302027,2 162.729133,12.846612 163.678032,26.6126355 Z" id="Fill-1" fill="#FFFFFF"></path>
        <g id="Group-5" transform="translate(86.000000, 0.000000)">
            <mask id="mask-2" fill="white">
                <use xlink:href="#path-1"></use>
            </mask>
            <g id="Clip-4"></g>
            <path d="M16.9695151,26.4436933 C9.40341968,26.4436933 3.24623992,32.5691091 3.24623992,40.0967939 C3.24623992,47.6326315 9.40341968,53.7634824 16.9695151,53.7634824 L85.9053543,53.7634824 C93.4687192,53.7634824 99.6231685,47.6326315 99.6231685,40.0967939 C99.6231685,32.5691091 93.4687192,26.4436933 85.9053543,26.4436933 C83.5544311,26.4436933 81.3318394,27.0116667 79.2976492,28.1258727 C78.8252802,28.3921952 78.2464234,28.38676 77.7767848,28.1313079 C77.2989549,27.8731382 76.9876828,27.3921273 76.9521869,26.8540473 C76.0429448,13.7770727 64.9927867,3.53181212 51.7910288,3.53181212 C38.4035998,3.53181212 27.3343285,13.9346921 26.5916443,27.2154848 C26.5616093,27.7698703 26.2394154,28.2699042 25.7424723,28.5280739 C25.2400683,28.7835261 24.6502896,28.764503 24.1751902,28.4682873 C22.0263208,27.1448279 19.5334139,26.4436933 16.9695151,26.4436933 M85.9053543,56.9158703 L16.9695151,56.9158703 C7.65592742,56.9158703 0.0761797407,49.37188 0.0761797407,40.0967939 C0.0761797407,30.8298606 7.65592742,23.2913055 16.9695151,23.2913055 C19.2904032,23.2913055 21.5648736,23.7587285 23.6591339,24.6555285 C25.6114104,10.8638315 37.5325842,0.379424242 51.7910288,0.379424242 C65.8883765,0.379424242 77.8068198,10.7605636 79.8683146,24.3946412 C81.7823647,23.6690485 83.8329377,23.2913055 85.9053543,23.2913055 C95.2162115,23.2913055 102.790498,30.8298606 102.790498,40.0967939 C102.790498,49.37188 95.2162115,56.9158703 85.9053543,56.9158703" id="Fill-3" fill="#B3B3B3" mask="url(#mask-2)"></path>
        </g>
        <path d="M113.20768,42.2233976 C111.795545,21.9674995 95.0038251,6 74.5103128,6 C53.8169954,6 36.9145729,22.2877723 35.7697442,42.7933746 C32.40006,40.6871738 28.4174604,39.4793653 24.1459536,39.4793653 C11.9146479,39.4793653 2,49.4349642 2,61.7383256 C2,74.0226877 11.9146479,84 24.1459536,84 L123.864847,84 C136.101553,84 146,74.0226877 146,61.7383256 C146,49.4349642 136.101553,39.4793653 123.864847,39.4793653 C120.00105,39.4793653 116.364059,40.4673255 113.20768,42.2233976" id="Fill-6" fill="#FFFFFF"></path>
        <path d="M23.8495898,41.5620296 C12.4367694,41.5620296 3.15061203,50.825133 3.15061203,62.2096197 C3.15061203,73.5941064 12.4367694,82.8572098 23.8495898,82.8572098 L124.161274,82.8572098 C135.568663,82.8572098 144.849388,73.5941064 144.849388,62.2096197 C144.849388,50.825133 135.568663,41.5620296 124.161274,41.5620296 C120.657576,41.5620296 117.213632,42.4425528 114.204254,44.1033549 C113.728946,44.3688664 113.161293,44.3634478 112.685985,44.1087735 C112.213393,43.8540991 111.903764,43.3745526 111.865739,42.8408201 C110.496853,23.3826136 94.0892257,8.14279025 74.5119745,8.14279025 C54.6549705,8.14279025 38.2310473,23.6237415 37.120185,43.3853898 C37.0875924,43.9407967 36.7643831,44.4393083 36.2700629,44.6939827 C35.7784588,44.9459478 35.183645,44.921564 34.7110532,44.634378 C31.4762438,42.6267853 27.7199538,41.5620296 23.8495898,41.5620296 M124.161274,86 L23.8495898,86 C10.6985007,86 0,75.3280597 0,62.2096197 C0,49.0911797 10.6985007,38.4192394 23.8495898,38.4192394 C27.4592134,38.4192394 30.9873557,39.2211928 34.1814245,40.757367 C36.5498156,20.5134629 53.8102806,5 74.5119745,5 C94.9637922,5 112.224257,20.3373583 114.782771,40.3238787 C117.718816,39.0721812 120.918317,38.4192394 124.161274,38.4192394 C137.304215,38.4192394 148,49.0911797 148,62.2096197 C148,75.3280597 137.304215,86 124.161274,86" id="Fill-8" fill="#B3B3B3"></path>
        <path d="M50,39 C52.9743453,29.7949496 60.5318012,22.6270181 70,20 L50,39 Z" id="Fill-10" fill="#FFFFFF"></path>
        <path d="M49.5453385,41 C49.3910455,41 49.2340923,40.9753834 49.077139,40.9261503 C48.2657706,40.6581035 47.8161926,39.7664373 48.0715742,38.9294746 C51.2079788,28.7655744 59.0423398,20.9675982 69.0341428,18.0601101 C69.8641328,17.8221501 70.707424,18.3117459 70.9415237,19.1569142 C71.1729632,19.9993472 70.6967831,20.8800727 69.8774339,21.1152975 C60.8885355,23.7328574 53.8362805,30.7485743 51.0191029,39.8922552 C50.8089451,40.5678428 50.1997537,41 49.5453385,41" id="Fill-12" fill="#B3B3B3"></path>
        <path d="M15,62 C15,57.0427399 19.0458015,53 24,53 L15,62 Z" id="Fill-14" fill="#FFFFFF"></path>
        <path d="M14.60528,64 C13.7196083,64 13,63.2797784 13,62.3933518 C13,56.1080332 18.1119864,51 24.39472,51 C25.2803917,51 26,51.7174515 26,52.6066482 C26,53.4930748 25.2803917,54.2132964 24.39472,54.2132964 C19.8833298,54.2132964 16.2105599,57.8836565 16.2105599,62.3933518 C16.2105599,63.2797784 15.4909517,64 14.60528,64" id="Fill-16" fill="#B3B3B3"></path>
        <mask id="mask-4" fill="white">
            <use xlink:href="#path-3"></use>
        </mask>
        <g id="Clip-19"></g>
        <path d="M101.219241,68.7787283 L106.780759,68.7787283 L106.780759,63.2184971 L101.219241,63.2184971 L101.219241,68.7787283 Z M108.390379,72 L99.6096207,72 C98.7187789,72 98,71.2786127 98,70.3879769 L98,61.6092486 C98,60.7213873 98.7187789,60 99.6096207,60 L108.390379,60 C109.278446,60 110,60.7213873 110,61.6092486 L110,70.3879769 C110,71.2786127 109.278446,72 108.390379,72 L108.390379,72 Z" id="Fill-18" fill="#B3B3B3" mask="url(#mask-4)"></path>
    </g>
</svg>
