<svg width="140px" height="94px" viewBox="6 0 140 94" version="1.1" xmlns="http://www.w3.org/2000/svg" xmlns:xlink="http://www.w3.org/1999/xlink">
  <!-- Generator: Sketch 42 (36781) - http://www.bohemiancoding.com/sketch -->
  <desc>Created with Sketch.</desc>
  <defs>
    <polygon id="path-1" points="139.745424 92.3181885 139.745424 0.411566853 0 0.411566853 0 92.3181885 139.745424 92.3181885"></polygon>
  </defs>
  <g id="Page-1" opacity="0.5" stroke="none" stroke-width="1" fill="none" fill-rule="evenodd" transform="translate(6.000000, 0.000000)">
    <polygon id="Fill-1" fill="#FFFFFF" points="19.2753623 73.0434783 120.724638 73.0434783 120.724638 2.02898551 19.2753623 2.02898551"></polygon>
    <g id="Group-33">
      <mask id="mask-2" fill="white">
        <use xlink:href="#path-1"></use>
      </mask>
      <g id="Clip-3"></g>
      <path d="M20.5239646,71.1153638 L119.218189,71.1153638 L119.218189,2.80319383 L20.5239646,2.80319383 L20.5239646,71.1153638 Z M120.418268,73.5069908 L19.3238857,73.5069908 C18.6617169,73.5069908 18.1254419,72.9722576 18.1254419,72.3119925 L18.1254419,1.6065652 C18.1254419,0.946300082 18.6617169,0.411566853 19.3238857,0.411566853 L120.418268,0.411566853 C121.080437,0.411566853 121.618347,0.946300082 121.618347,1.6065652 L121.618347,72.3119925 C121.618347,72.9722576 121.080437,73.5069908 120.418268,73.5069908 L120.418268,73.5069908 Z" id="Fill-2" fill="#B3B3B3" mask="url(#mask-2)"></path>
      <polygon id="Fill-4" fill="#FFFFFF" mask="url(#mask-2)" points="120.418268 72.3113403 19.3238857 72.3113403 1.20007887 82.869061 138.545345 82.869061"></polygon>
      <path d="M5.63235925,81.6727585 L134.112737,81.6727585 L120.092742,73.5066647 L19.6490842,73.5066647 L5.63235925,81.6727585 Z M138.545181,84.0643854 L1.19991537,84.0643854 C0.658735389,84.0643854 0.182954803,83.7024623 0.0423461072,83.1807714 C-0.0998975733,82.6590804 0.127365319,82.1080444 0.594970981,81.8357869 L18.7187779,71.2780662 C18.9035311,71.1720977 19.1128092,71.1150378 19.3253572,71.1150378 L120.418104,71.1150378 C120.630652,71.1150378 120.839931,71.1720977 121.023049,71.2780662 L139.150126,81.8357869 C139.617731,82.1080444 139.844994,82.6590804 139.702751,83.1807714 C139.562142,83.7024623 139.087996,84.0643854 138.545181,84.0643854 L138.545181,84.0643854 Z" id="Fill-5" fill="#B3B3B3" mask="url(#mask-2)"></path>
      <path d="M138.545181,82.8684089 C138.545181,85.5388145 136.375556,91.122538 133.694181,91.122538 L6.04437543,91.122538 C3.36790526,91.122538 1.19991537,85.5388145 1.19991537,82.8684089 L138.545181,82.8684089 Z" id="Fill-6" fill="#FFFFFF" mask="url(#mask-2)"></path>
      <path d="M2.52131011,84.0640594 C2.99055076,86.6187148 4.72690465,89.9281918 6.04470243,89.9281918 L133.694508,89.9281918 C135.013941,89.9281918 136.753565,86.6187148 137.224441,84.0640594 L2.52131011,84.0640594 Z M133.694508,92.3181885 L6.04470243,92.3181885 C2.28423731,92.3181885 0.000163498483,85.7546641 0.000163498483,82.869061 C0.000163498483,82.2071656 0.538073509,81.6724324 1.20024237,81.6724324 L138.545508,81.6724324 C139.207677,81.6724324 139.745587,82.2071656 139.745587,82.869061 C139.745587,85.7546641 137.458243,92.3181885 133.694508,92.3181885 L133.694508,92.3181885 Z" id="Fill-7" fill="#B3B3B3" mask="url(#mask-2)"></path>
      <path d="M19.3245397,8.9213245 L120.418922,8.9213245 L19.3245397,8.9213245 Z" id="Fill-8" fill="#FFFFFF" mask="url(#mask-2)"></path>
      <path d="M120.418268,10.116975 L19.3238857,10.116975 C18.6617169,10.116975 18.1254419,9.58224173 18.1254419,8.92197661 C18.1254419,8.26008122 18.6617169,7.72534799 19.3238857,7.72534799 L120.418268,7.72534799 C121.080437,7.72534799 121.618347,8.26008122 121.618347,8.92197661 C121.618347,9.58224173 121.080437,10.116975 120.418268,10.116975" id="Fill-9" fill="#B3B3B3" mask="url(#mask-2)"></path>
      <polygon id="Fill-10" fill="#FFFFFF" mask="url(#mask-2)" points="26.6322679 23.739304 34.4622103 23.739304 34.4622103 15.9335031 26.6322679 15.9335031"></polygon>
      <path d="M27.8323468,22.5426753 L33.2621314,22.5426753 L33.2621314,17.1285014 L27.8323468,17.1285014 L27.8323468,22.5426753 Z M34.4622103,24.9343023 L26.6322679,24.9343023 C25.9684641,24.9343023 25.4321891,24.3995691 25.4321891,23.739304 L25.4321891,15.9335031 C25.4321891,15.2716077 25.9684641,14.7368744 26.6322679,14.7368744 L34.4622103,14.7368744 C35.1243792,14.7368744 35.6622892,15.2716077 35.6622892,15.9335031 L35.6622892,23.739304 C35.6622892,24.3995691 35.1243792,24.9343023 34.4622103,24.9343023 L34.4622103,24.9343023 Z" id="Fill-11" fill="#B3B3B3" mask="url(#mask-2)"></path>
      <polygon id="Fill-12" fill="#FFFFFF" mask="url(#mask-2)" points="41.505725 23.739304 49.3373023 23.739304 49.3373023 15.9335031 41.505725 15.9335031"></polygon>
      <path d="M42.7058038,22.5426753 L48.1372235,22.5426753 L48.1372235,17.1285014 L42.7058038,17.1285014 L42.7058038,22.5426753 Z M49.3373023,24.9343023 L41.505725,24.9343023 C40.8435561,24.9343023 40.3056461,24.3995691 40.3056461,23.739304 L40.3056461,15.9335031 C40.3056461,15.2716077 40.8435561,14.7368744 41.505725,14.7368744 L49.3373023,14.7368744 C49.9994712,14.7368744 50.5373812,15.2716077 50.5373812,15.9335031 L50.5373812,23.739304 C50.5373812,24.3995691 49.9994712,24.9343023 49.3373023,24.9343023 L49.3373023,24.9343023 Z" id="Fill-13" fill="#B3B3B3" mask="url(#mask-2)"></path>
      <polygon id="Fill-14" fill="#FFFFFF" mask="url(#mask-2)" points="26.6322679 37.9782065 34.4622103 37.9782065 34.4622103 30.169145 26.6322679 30.169145"></polygon>
      <path d="M27.8323468,36.7832081 L33.2621314,36.7832081 L33.2621314,31.3657736 L27.8323468,31.3657736 L27.8323468,36.7832081 Z M34.4622103,39.1732048 L26.6322679,39.1732048 C25.9684641,39.1732048 25.4321891,38.6384716 25.4321891,37.9782065 L25.4321891,30.169145 C25.4321891,29.5088799 25.9684641,28.9741466 26.6322679,28.9741466 L34.4622103,28.9741466 C35.1243792,28.9741466 35.6622892,29.5088799 35.6622892,30.169145 L35.6622892,37.9782065 C35.6622892,38.6384716 35.1243792,39.1732048 34.4622103,39.1732048 L34.4622103,39.1732048 Z" id="Fill-15" fill="#B3B3B3" mask="url(#mask-2)"></path>
      <polygon id="Fill-16" fill="#FFFFFF" mask="url(#mask-2)" points="56.384087 23.739304 64.2123943 23.739304 64.2123943 15.9335031 56.384087 15.9335031"></polygon>
      <path d="M57.5825308,22.5426753 L63.0106805,22.5426753 L63.0106805,17.1285014 L57.5825308,17.1285014 L57.5825308,22.5426753 Z M64.2123943,24.9343023 L56.382452,24.9343023 C55.7202831,24.9343023 55.1840081,24.3995691 55.1840081,23.739304 L55.1840081,15.9335031 C55.1840081,15.2716077 55.7202831,14.7368744 56.382452,14.7368744 L64.2123943,14.7368744 C64.8745632,14.7368744 65.4108382,15.2716077 65.4108382,15.9335031 L65.4108382,23.739304 C65.4108382,24.3995691 64.8745632,24.9343023 64.2123943,24.9343023 L64.2123943,24.9343023 Z" id="Fill-17" fill="#B3B3B3" mask="url(#mask-2)"></path>
      <polygon id="Fill-18" fill="#FFFFFF" mask="url(#mask-2)" points="71.257544 23.739304 79.0891213 23.739304 79.0891213 15.9335031 71.257544 15.9335031"></polygon>
      <path d="M72.4559879,22.5426753 L77.8874075,22.5426753 L77.8874075,17.1285014 L72.4559879,17.1285014 L72.4559879,22.5426753 Z M79.0891213,24.9343023 L71.257544,24.9343023 C70.5937401,24.9343023 70.0574651,24.3995691 70.0574651,23.739304 L70.0574651,15.9335031 C70.0574651,15.2716077 70.5937401,14.7368744 71.257544,14.7368744 L79.0891213,14.7368744 C79.7512902,14.7368744 80.2892002,15.2716077 80.2892002,15.9335031 L80.2892002,23.739304 C80.2892002,24.3995691 79.7512902,24.9343023 79.0891213,24.9343023 L79.0891213,24.9343023 Z" id="Fill-19" fill="#B3B3B3" mask="url(#mask-2)"></path>
      <path d="M43.8478407,33.8022334 L64.9227952,33.8022334 L43.8478407,33.8022334 Z" id="Fill-20" fill="#FFFFFF" mask="url(#mask-2)"></path>
      <path d="M64.9229587,34.9978839 L43.8480042,34.9978839 C43.1858354,34.9978839 42.6479254,34.4631506 42.6479254,33.8028855 C42.6479254,33.1409901 43.1858354,32.6062569 43.8480042,32.6062569 L64.9229587,32.6062569 C65.5851276,32.6062569 66.1230376,33.1409901 66.1230376,33.8028855 C66.1230376,34.4631506 65.5851276,34.9978839 64.9229587,34.9978839" id="Fill-21" fill="#B3B3B3" mask="url(#mask-2)"></path>
      <path d="M43.8478407,41.4011513 L64.9227952,41.4011513 L43.8478407,41.4011513 Z" id="Fill-22" fill="#FFFFFF" mask="url(#mask-2)"></path>
      <path d="M64.9229587,42.5968017 L43.8480042,42.5968017 C43.1858354,42.5968017 42.6479254,42.0620685 42.6479254,41.4018034 C42.6479254,40.739908 43.1858354,40.2051747 43.8480042,40.2051747 L64.9229587,40.2051747 C65.5851276,40.2051747 66.1230376,40.739908 66.1230376,41.4018034 C66.1230376,42.0620685 65.5851276,42.5968017 64.9229587,42.5968017" id="Fill-23" fill="#B3B3B3" mask="url(#mask-2)"></path>
      <path d="M43.8478407,49.0033297 L53.6659247,49.0033297 L43.8478407,49.0033297 Z" id="Fill-24" fill="#FFFFFF" mask="url(#mask-2)"></path>
      <path d="M53.6655977,50.1989801 L43.8475138,50.1989801 C43.1853449,50.1989801 42.6474349,49.6642469 42.6474349,49.0039818 C42.6474349,48.3420864 43.1853449,47.8073532 43.8475138,47.8073532 L53.6655977,47.8073532 C54.3277665,47.8073532 54.8656765,48.3420864 54.8656765,49.0039818 C54.8656765,49.6642469 54.3277665,50.1989801 53.6655977,50.1989801" id="Fill-25" fill="#B3B3B3" mask="url(#mask-2)"></path>
      <polygon id="Fill-26" fill="#FFFFFF" mask="url(#mask-2)" points="85.5800111 49.0038188 114.491448 49.0038188 114.491448 15.7492809 85.5800111 15.7492809"></polygon>
      <path d="M86.78009,47.8071901 L113.291369,47.8071901 L113.291369,16.942649 L86.78009,16.942649 L86.78009,47.8071901 Z M114.491448,50.1988171 L85.5800111,50.1988171 C84.9178423,50.1988171 84.3799323,49.6640839 84.3799323,49.0038188 L84.3799323,15.7476506 C84.3799323,15.0873855 84.9178423,14.5526523 85.5800111,14.5526523 L114.491448,14.5526523 C115.153617,14.5526523 115.691527,15.0873855 115.691527,15.7476506 L115.691527,49.0038188 C115.691527,49.6640839 115.153617,50.1988171 114.491448,50.1988171 L114.491448,50.1988171 Z" id="Fill-27" fill="#B3B3B3" mask="url(#mask-2)"></path>
      <polygon id="Fill-28" fill="#FFFFFF" mask="url(#mask-2)" points="91.4953862 32.0260387 109.066568 32.0260387 109.066568 21.6884064 91.4953862 21.6884064"></polygon>
      <path d="M92.6954651,30.8294101 L107.866489,30.8294101 L107.866489,22.8834047 L92.6954651,22.8834047 L92.6954651,30.8294101 Z M109.066568,33.2210371 L91.4953862,33.2210371 C90.8332174,33.2210371 90.2953074,32.6863038 90.2953074,32.0260387 L90.2953074,21.6884064 C90.2953074,21.0281413 90.8332174,20.4917778 91.4953862,20.4917778 L109.066568,20.4917778 C109.728737,20.4917778 110.266647,21.0281413 110.266647,21.6884064 L110.266647,32.0260387 C110.266647,32.6863038 109.728737,33.2210371 109.066568,33.2210371 L109.066568,33.2210371 Z" id="Fill-29" fill="#B3B3B3" mask="url(#mask-2)"></path>
      <path d="M91.4953862,38.8714392 L109.066568,38.8714392 L91.4953862,38.8714392 Z" id="Fill-30" fill="#FFFFFF" mask="url(#mask-2)"></path>
      <path d="M109.065914,40.0670897 L91.4947323,40.0670897 C90.8325634,40.0670897 90.2962884,39.5323564 90.2962884,38.8720913 C90.2962884,38.2101959 90.8325634,37.6754627 91.4947323,37.6754627 L109.065914,37.6754627 C109.728083,37.6754627 110.265993,38.2101959 110.265993,38.8720913 C110.265993,39.5323564 109.728083,40.0670897 109.065914,40.0670897" id="Fill-31" fill="#B3B3B3" mask="url(#mask-2)"></path>
      <path d="M-11.0431781,63.8191898 L-11.0431781,66.0526792 L-11.0431781,63.8191898 Z" id="Fill-32" fill="#FFFFFF" mask="url(#mask-2)"></path>
    </g>
  </g>
</svg>
