<svg width="108px" height="136px" viewBox="21 0 108 136" version="1.1" xmlns="http://www.w3.org/2000/svg" xmlns:xlink="http://www.w3.org/1999/xlink">
  <!-- Generator: Sketch 42 (36781) - http://www.bohemiancoding.com/sketch -->
  <desc>Created with Sketch.</desc>
  <defs></defs>
  <g id="Page-1" opacity="0.5" stroke="none" stroke-width="1" fill="none" fill-rule="evenodd" transform="translate(21.000000, 0.000000)">
    <polygon id="Fill-1" fill="#FFFFFF" points="1.30120482 28.626506 106.698795 28.626506 106.698795 1.30120482 1.30120482 1.30120482"></polygon>
    <g id="Group-44">
      <path d="M2.54689157,28.0106024 L105.172048,28.0106024 L105.172048,2.75508434 L2.54689157,2.75508434 L2.54689157,28.0106024 Z M106.445494,30.5540241 L1.27344578,30.5540241 C0.570795181,30.5540241 0,29.9849639 0,29.2823133 L0,1.48163855 C0,0.778987952 0.570795181,0.209927711 1.27344578,0.209927711 L106.445494,0.209927711 C107.148145,0.209927711 107.717205,0.778987952 107.717205,1.48163855 L107.717205,29.2823133 C107.717205,29.9849639 107.148145,30.5540241 106.445494,30.5540241 L106.445494,30.5540241 Z" id="Fill-2" fill="#B3B3B3"></path>
      <polygon id="Fill-4" fill="#FFFFFF" points="1.27344578 64.2795181 106.445494 64.2795181 106.445494 36.4805783 1.27344578 36.4805783"></polygon>
      <path d="M2.54689157,63.0060723 L105.172048,63.0060723 L105.172048,37.7505542 L2.54689157,37.7505542 L2.54689157,63.0060723 Z M106.445494,65.5512289 L1.27344578,65.5512289 C0.570795181,65.5512289 0,64.9821687 0,64.2795181 L0,36.4788434 C0,35.7761928 0.570795181,35.2071325 1.27344578,35.2071325 L106.445494,35.2071325 C107.148145,35.2071325 107.717205,35.7761928 107.717205,36.4788434 L107.717205,64.2795181 C107.717205,64.9821687 107.148145,65.5512289 106.445494,65.5512289 L106.445494,65.5512289 Z" id="Fill-5" fill="#B3B3B3"></path>
      <polygon id="Fill-6" fill="#FFFFFF" points="12.0595663 36.3660723 95.6559036 36.3660723 95.6559036 29.2823133 12.0595663 29.2823133"></polygon>
      <path d="M13.333012,35.0943614 L94.3824578,35.0943614 L94.3824578,30.555759 L13.333012,30.555759 L13.333012,35.0943614 Z M95.6559036,37.6377831 L12.0595663,37.6377831 C11.3569157,37.6377831 10.7861205,37.0687229 10.7861205,36.3660723 L10.7861205,29.2823133 C10.7861205,28.5796627 11.3569157,28.0106024 12.0595663,28.0106024 L95.6559036,28.0106024 C96.3585542,28.0106024 96.9293494,28.5796627 96.9293494,29.2823133 L96.9293494,36.3660723 C96.9293494,37.0687229 96.3585542,37.6377831 95.6559036,37.6377831 L95.6559036,37.6377831 Z" id="Fill-7" fill="#B3B3B3"></path>
      <polygon id="Fill-8" fill="#FFFFFF" points="1.27344578 99.1674217 106.445494 99.1674217 106.445494 71.366747 1.27344578 71.366747"></polygon>
      <path d="M2.54689157,97.8957108 L105.172048,97.8957108 L105.172048,72.6384578 L2.54689157,72.6384578 L2.54689157,97.8957108 Z M106.445494,100.440867 L1.27344578,100.440867 C0.570795181,100.440867 0,99.8700723 0,99.1674217 L0,71.366747 C0,70.6623614 0.570795181,70.0933012 1.27344578,70.0933012 L106.445494,70.0933012 C107.148145,70.0933012 107.717205,70.6623614 107.717205,71.366747 L107.717205,99.1674217 C107.717205,99.8700723 107.148145,100.440867 106.445494,100.440867 L106.445494,100.440867 Z" id="Fill-9" fill="#B3B3B3"></path>
      <polygon id="Fill-10" fill="#FFFFFF" points="12.0595663 71.2539759 95.6559036 71.2539759 95.6559036 64.2795181 12.0595663 64.2795181"></polygon>
      <path d="M13.333012,69.9805301 L94.3824578,69.9805301 L94.3824578,65.5512289 L13.333012,65.5512289 L13.333012,69.9805301 Z M95.6559036,72.5256867 L12.0595663,72.5256867 C11.3569157,72.5256867 10.7861205,71.9566265 10.7861205,71.252241 L10.7861205,64.2795181 C10.7861205,63.5768675 11.3569157,63.0060723 12.0595663,63.0060723 L95.6559036,63.0060723 C96.3585542,63.0060723 96.9293494,63.5768675 96.9293494,64.2795181 L96.9293494,71.252241 C96.9293494,71.9566265 96.3585542,72.5256867 95.6559036,72.5256867 L95.6559036,72.5256867 Z" id="Fill-11" fill="#B3B3B3"></path>
      <path d="M98.0428337,45.4455325 L76.0732916,45.4455325 L98.0428337,45.4455325 Z" id="Fill-12" fill="#FFFFFF"></path>
      <path d="M98.0428337,46.7179373 L76.0732916,46.7179373 C75.370641,46.7179373 74.7998458,46.1488771 74.7998458,45.4462265 C74.7998458,44.741841 75.370641,44.1727807 76.0732916,44.1727807 L98.0428337,44.1727807 C98.7454843,44.1727807 99.3162795,44.741841 99.3162795,45.4462265 C99.3162795,46.1488771 98.7454843,46.7179373 98.0428337,46.7179373" id="Fill-13" fill="#B3B3B3"></path>
      <path d="M98.0428337,54.4693012 L76.0732916,54.4693012 L98.0428337,54.4693012 Z" id="Fill-14" fill="#FFFFFF"></path>
      <path d="M98.0428337,55.741706 L76.0732916,55.741706 C75.370641,55.741706 74.7998458,55.1726458 74.7998458,54.4699952 C74.7998458,53.7656096 75.370641,53.1965494 76.0732916,53.1965494 L98.0428337,53.1965494 C98.7454843,53.1965494 99.3162795,53.7656096 99.3162795,54.4699952 C99.3162795,55.1726458 98.7454843,55.741706 98.0428337,55.741706" id="Fill-15" fill="#B3B3B3"></path>
      <path d="M98.0428337,81.4675663 L76.0732916,81.4675663 L98.0428337,81.4675663 Z" id="Fill-16" fill="#FFFFFF"></path>
      <path d="M98.0428337,82.7399711 L76.0732916,82.7399711 C75.370641,82.7399711 74.7998458,82.1709108 74.7998458,81.4682602 C74.7998458,80.7638747 75.370641,80.1948145 76.0732916,80.1948145 L98.0428337,80.1948145 C98.7454843,80.1948145 99.3162795,80.7638747 99.3162795,81.4682602 C99.3162795,82.1709108 98.7454843,82.7399711 98.0428337,82.7399711" id="Fill-17" fill="#B3B3B3"></path>
      <path d="M98.0428337,90.4930699 L76.0732916,90.4930699 L98.0428337,90.4930699 Z" id="Fill-18" fill="#FFFFFF"></path>
      <path d="M98.0428337,91.7654747 L76.0732916,91.7654747 C75.370641,91.7654747 74.7998458,91.1964145 74.7998458,90.4937639 C74.7998458,89.7893783 75.370641,89.2203181 76.0732916,89.2203181 L98.0428337,89.2203181 C98.7454843,89.2203181 99.3162795,89.7893783 99.3162795,90.4937639 C99.3162795,91.1964145 98.7454843,91.7654747 98.0428337,91.7654747" id="Fill-19" fill="#B3B3B3"></path>
      <polygon id="Fill-20" fill="#FFFFFF" points="1.27344578 134.05359 106.445494 134.05359 106.445494 106.251181 1.27344578 106.251181"></polygon>
      <path d="M2.54689157,132.780145 L105.172048,132.780145 L105.172048,107.521157 L2.54689157,107.521157 L2.54689157,132.780145 Z M106.445494,135.325301 L1.27344578,135.325301 C0.570795181,135.325301 0,134.756241 0,134.05359 L0,106.249446 C0,105.546795 0.570795181,104.977735 1.27344578,104.977735 L106.445494,104.977735 C107.148145,104.977735 107.717205,105.546795 107.717205,106.249446 L107.717205,134.05359 C107.717205,134.756241 107.148145,135.325301 106.445494,135.325301 L106.445494,135.325301 Z" id="Fill-21" fill="#B3B3B3"></path>
      <polygon id="Fill-22" fill="#FFFFFF" points="12.0595663 106.13841 95.6559036 106.13841 95.6559036 99.1674217 12.0595663 99.1674217"></polygon>
      <path d="M13.333012,104.864964 L94.3824578,104.864964 L94.3824578,100.439133 L13.333012,100.439133 L13.333012,104.864964 Z M95.6559036,107.41012 L12.0595663,107.41012 C11.3569157,107.41012 10.7861205,106.84106 10.7861205,106.13841 L10.7861205,99.1674217 C10.7861205,98.4647711 11.3569157,97.8957108 12.0595663,97.8957108 L95.6559036,97.8957108 C96.3585542,97.8957108 96.9293494,98.4647711 96.9293494,99.1674217 L96.9293494,106.13841 C96.9293494,106.84106 96.3585542,107.41012 95.6559036,107.41012 L95.6559036,107.41012 Z" id="Fill-23" fill="#B3B3B3"></path>
      <path d="M98.0428337,116.356164 L76.0732916,116.356164 L98.0428337,116.356164 Z" id="Fill-24" fill="#FFFFFF"></path>
      <path d="M98.0428337,117.628569 L76.0732916,117.628569 C75.370641,117.628569 74.7998458,117.059508 74.7998458,116.356858 C74.7998458,115.652472 75.370641,115.083412 76.0732916,115.083412 L98.0428337,115.083412 C98.7454843,115.083412 99.3162795,115.652472 99.3162795,116.356858 C99.3162795,117.059508 98.7454843,117.628569 98.0428337,117.628569" id="Fill-25" fill="#B3B3B3"></path>
      <path d="M98.0428337,125.379933 L76.0732916,125.379933 L98.0428337,125.379933 Z" id="Fill-26" fill="#FFFFFF"></path>
      <path d="M98.0428337,126.652337 L76.0732916,126.652337 C75.370641,126.652337 74.7998458,126.083277 74.7998458,125.380627 C74.7998458,124.676241 75.370641,124.107181 76.0732916,124.107181 L98.0428337,124.107181 C98.7454843,124.107181 99.3162795,124.676241 99.3162795,125.380627 C99.3162795,126.083277 98.7454843,126.652337 98.0428337,126.652337" id="Fill-27" fill="#B3B3B3"></path>
      <path d="M24.1121928,15.3214265 C24.1121928,19.0636916 21.0777831,22.0963663 17.3407229,22.0963663 C13.5984578,22.0963663 10.5623133,19.0636916 10.5623133,15.3214265 C10.5623133,11.5826313 13.5984578,8.54822169 17.3407229,8.54822169 C21.0777831,8.54822169 24.1121928,11.5826313 24.1121928,15.3214265" id="Fill-28" fill="#FFFFFF"></path>
      <path d="M17.3408964,9.82010602 C14.3047518,9.82010602 11.8359325,12.2889253 11.8359325,15.3216 C11.8359325,18.3560096 14.3047518,20.8248289 17.3408964,20.8248289 C20.3735711,20.8248289 22.8389205,18.3560096 22.8389205,15.3216 C22.8389205,12.2889253 20.3735711,9.82010602 17.3408964,9.82010602 M17.3408964,23.3699855 C12.9011855,23.3699855 9.28904096,19.7595759 9.28904096,15.3216 C9.28904096,10.8836241 12.9011855,7.2749494 17.3408964,7.2749494 C21.7771373,7.2749494 25.385812,10.8836241 25.385812,15.3216 C25.385812,19.7595759 21.7771373,23.3699855 17.3408964,23.3699855" id="Fill-29" fill="#B3B3B3"></path>
      <path d="M36.0695711,15.3214265 C36.0695711,16.5237398 35.0928,17.4987759 33.8904867,17.4987759 C32.6881735,17.4987759 31.7148723,16.5237398 31.7148723,15.3214265 C31.7148723,14.1191133 32.6881735,13.147547 33.8904867,13.147547 C35.0928,13.147547 36.0695711,14.1191133 36.0695711,15.3214265" id="Fill-30" fill="#FFFFFF"></path>
      <path d="M33.8906602,14.4199518 C33.3927325,14.4199518 32.9867566,14.8241928 32.9867566,15.3221205 C32.9867566,15.8200482 33.3927325,16.2260241 33.8906602,16.2260241 C34.3903229,16.2260241 34.7962988,15.8200482 34.7962988,15.3221205 C34.7962988,14.8241928 34.3903229,14.4199518 33.8906602,14.4199518 M33.8906602,18.7711807 C31.9891663,18.7711807 30.4416,17.2236145 30.4416,15.3221205 C30.4416,13.4206265 31.9891663,11.8747952 33.8906602,11.8747952 C35.7938892,11.8747952 37.3431904,13.4206265 37.3431904,15.3221205 C37.3431904,17.2236145 35.7938892,18.7711807 33.8906602,18.7711807" id="Fill-31" fill="#B3B3B3"></path>
      <path d="M24.1121928,50.1760193 C24.1121928,53.9165494 21.0777831,56.9492241 17.3407229,56.9492241 C13.5984578,56.9492241 10.5623133,53.9165494 10.5623133,50.1760193 C10.5623133,46.4337542 13.5984578,43.3993446 17.3407229,43.3993446 C21.0777831,43.3993446 24.1121928,46.4337542 24.1121928,50.1760193" id="Fill-32" fill="#FFFFFF"></path>
      <path d="M17.3408964,44.6712289 C14.3047518,44.6712289 11.8359325,47.1417831 11.8359325,50.1761928 C11.8359325,53.2088675 14.3047518,55.6776867 17.3408964,55.6776867 C20.3735711,55.6776867 22.8389205,53.2088675 22.8389205,50.1761928 C22.8389205,47.1417831 20.3735711,44.6712289 17.3408964,44.6712289 M17.3408964,58.2228434 C12.9011855,58.2228434 9.28904096,54.6124337 9.28904096,50.1761928 C9.28904096,45.7364819 12.9011855,42.1260723 17.3408964,42.1260723 C21.7771373,42.1260723 25.385812,45.7364819 25.385812,50.1761928 C25.385812,54.6124337 21.7771373,58.2228434 17.3408964,58.2228434" id="Fill-33" fill="#B3B3B3"></path>
      <path d="M36.0695711,50.1760193 C36.0695711,51.3748627 35.0928,52.3516337 33.8904867,52.3516337 C32.6881735,52.3516337 31.7148723,51.3748627 31.7148723,50.1760193 C31.7148723,48.975441 32.6881735,47.9986699 33.8904867,47.9986699 C35.0928,47.9986699 36.0695711,48.975441 36.0695711,50.1760193" id="Fill-34" fill="#FFFFFF"></path>
      <path d="M33.8906602,49.2712482 C33.3927325,49.2712482 32.9867566,49.6772241 32.9867566,50.1751518 C32.9867566,50.6748145 33.3927325,51.0790554 33.8906602,51.0790554 C34.3903229,51.0790554 34.7962988,50.6748145 34.7962988,50.1751518 C34.7962988,49.6772241 34.3903229,49.2712482 33.8906602,49.2712482 M33.8906602,53.624212 C31.9891663,53.624212 30.4416,52.0766458 30.4416,50.1751518 C30.4416,48.2736578 31.9891663,46.7260916 33.8906602,46.7260916 C35.7938892,46.7260916 37.3431904,48.2736578 37.3431904,50.1751518 C37.3431904,52.0766458 35.7938892,53.624212 33.8906602,53.624212" id="Fill-35" fill="#B3B3B3"></path>
      <path d="M24.1121928,85.0238458 C24.1121928,88.7678458 21.0777831,91.8022554 17.3407229,91.8022554 C13.5984578,91.8022554 10.5623133,88.7678458 10.5623133,85.0238458 C10.5623133,81.2850506 13.5984578,78.2523759 17.3407229,78.2523759 C21.0777831,78.2523759 24.1121928,81.2850506 24.1121928,85.0238458" id="Fill-36" fill="#FFFFFF"></path>
      <path d="M17.3408964,79.5242602 C14.3047518,79.5242602 11.8359325,81.9913446 11.8359325,85.0240193 C11.8359325,88.0601639 14.3047518,90.5307181 17.3408964,90.5307181 C20.3735711,90.5307181 22.8389205,88.0601639 22.8389205,85.0240193 C22.8389205,81.9913446 20.3735711,79.5242602 17.3408964,79.5242602 M17.3408964,93.0758747 C12.9011855,93.0758747 9.28904096,89.4637301 9.28904096,85.0240193 C9.28904096,80.5877783 12.9011855,76.9791036 17.3408964,76.9791036 C21.7771373,76.9791036 25.385812,80.5877783 25.385812,85.0240193 C25.385812,89.4637301 21.7771373,93.0758747 17.3408964,93.0758747" id="Fill-37" fill="#B3B3B3"></path>
      <path d="M36.0695711,85.0238458 C36.0695711,86.227894 35.0928,87.2029301 33.8904867,87.2029301 C32.6881735,87.2029301 31.7148723,86.227894 31.7148723,85.0238458 C31.7148723,83.8250024 32.6881735,82.8499663 33.8904867,82.8499663 C35.0928,82.8499663 36.0695711,83.8250024 36.0695711,85.0238458" id="Fill-38" fill="#FFFFFF"></path>
      <path d="M33.8906602,84.1225446 C33.3927325,84.1225446 32.9867566,84.5267855 32.9867566,85.0247133 C32.9867566,85.5243759 33.3927325,85.9303518 33.8906602,85.9303518 C34.3903229,85.9303518 34.7962988,85.5243759 34.7962988,85.0247133 C34.7962988,84.5267855 34.3903229,84.1225446 33.8906602,84.1225446 M33.8906602,88.4755084 C31.9891663,88.4755084 30.4416,86.9262072 30.4416,85.0247133 C30.4416,83.1232193 31.9891663,81.577388 33.8906602,81.577388 C35.7938892,81.577388 37.3431904,83.1232193 37.3431904,85.0247133 C37.3431904,86.9262072 35.7938892,88.4755084 33.8906602,88.4755084" id="Fill-39" fill="#B3B3B3"></path>
      <path d="M24.1121928,119.878612 C24.1121928,123.619142 21.0777831,126.653552 17.3407229,126.653552 C13.5984578,126.653552 10.5623133,123.619142 10.5623133,119.878612 C10.5623133,116.138082 13.5984578,113.103672 17.3407229,113.103672 C21.0777831,113.103672 24.1121928,116.138082 24.1121928,119.878612" id="Fill-40" fill="#FFFFFF"></path>
      <path d="M17.3408964,114.375557 C14.3047518,114.375557 11.8359325,116.844376 11.8359325,119.878786 C11.8359325,122.913195 14.3047518,125.382014 17.3408964,125.382014 C20.3735711,125.382014 22.8389205,122.913195 22.8389205,119.878786 C22.8389205,116.844376 20.3735711,114.375557 17.3408964,114.375557 M17.3408964,127.927171 C12.9011855,127.927171 9.28904096,124.315027 9.28904096,119.878786 C9.28904096,115.44081 12.9011855,111.8304 17.3408964,111.8304 C21.7771373,111.8304 25.385812,115.44081 25.385812,119.878786 C25.385812,124.315027 21.7771373,127.927171 17.3408964,127.927171" id="Fill-41" fill="#B3B3B3"></path>
      <path d="M36.0695711,119.878612 C36.0695711,121.077455 35.0928,122.054227 33.8904867,122.054227 C32.6881735,122.054227 31.7148723,121.077455 31.7148723,119.878612 C31.7148723,118.678034 32.6881735,117.701263 33.8904867,117.701263 C35.0928,117.701263 36.0695711,118.678034 36.0695711,119.878612" id="Fill-42" fill="#FFFFFF"></path>
      <path d="M33.8906602,118.973841 C33.3927325,118.973841 32.9867566,119.379817 32.9867566,119.877745 C32.9867566,120.377407 33.3927325,120.781648 33.8906602,120.781648 C34.3903229,120.781648 34.7962988,120.377407 34.7962988,119.877745 C34.7962988,119.379817 34.3903229,118.973841 33.8906602,118.973841 M33.8906602,123.326805 C31.9891663,123.326805 30.4416,121.779239 30.4416,119.877745 C30.4416,117.976251 31.9891663,116.428684 33.8906602,116.428684 C35.7938892,116.428684 37.3431904,117.976251 37.3431904,119.877745 C37.3431904,121.779239 35.7938892,123.326805 33.8906602,123.326805" id="Fill-43" fill="#B3B3B3"></path>
    </g>
  </g>
</svg>
