<?xml version="1.0" standalone="no"?>
<!DOCTYPE svg PUBLIC "-//W3C//DTD SVG 1.1//EN" "http://www.w3.org/Graphics/SVG/1.1/DTD/svg11.dtd" >
<svg xmlns="http://www.w3.org/2000/svg">
<metadata>Generated by IcoMoon</metadata>
<defs>
<font id="zorroa-icons" horiz-adv-x="1024">
<font-face units-per-em="1024" ascent="960" descent="-64" />
<missing-glyph horiz-adv-x="1024" />
<glyph unicode="&#x20;" horiz-adv-x="512" d="" />
<glyph unicode="&#xe60c;" glyph-name="apartment" d="M716.8 665.6h51.2v-51.2h-51.2v51.2zM716.8 563.2h51.2v-51.2h-51.2v51.2zM716.8 460.8h51.2v-51.2h-51.2v51.2zM716.8 358.4h51.2v-51.2h-51.2v51.2zM716.8 153.6h51.2v-51.2h-51.2v51.2zM716.8 256h51.2v-51.2h-51.2v51.2zM307.2 665.6h51.2v-51.2h-51.2v51.2zM307.2 563.2h51.2v-51.2h-51.2v51.2zM307.2 460.8h51.2v-51.2h-51.2v51.2zM307.2 358.4h51.2v-51.2h-51.2v51.2zM307.2 153.6h51.2v-51.2h-51.2v51.2zM307.2 256h51.2v-51.2h-51.2v51.2zM204.8 665.6h51.2v-51.2h-51.2v51.2zM204.8 563.2h51.2v-51.2h-51.2v51.2zM204.8 460.8h51.2v-51.2h-51.2v51.2zM204.8 358.4h51.2v-51.2h-51.2v51.2zM204.8 153.6h51.2v-51.2h-51.2v51.2zM204.8 256h51.2v-51.2h-51.2v51.2zM409.6 665.6h51.2v-51.2h-51.2v51.2zM409.6 563.2h51.2v-51.2h-51.2v51.2zM409.6 460.8h51.2v-51.2h-51.2v51.2zM409.6 358.4h51.2v-51.2h-51.2v51.2zM409.6 153.6h51.2v-51.2h-51.2v51.2zM409.6 256h51.2v-51.2h-51.2v51.2zM947.2 0h-25.6v691.2c0 39.058-29.024 79.326-66.077 91.677l-241.123 80.374v83.949c0 8.093-3.827 15.709-10.318 20.539-6.493 4.829-14.888 6.306-22.637 3.981l-462.96-138.886c-37.73-11.32-67.285-51.043-67.285-90.434v-742.4h-25.6c-14.138 0-25.6-11.461-25.6-25.6s11.462-25.6 25.6-25.6h921.6c14.139 0 25.6 11.461 25.6 25.6s-11.461 25.6-25.6 25.6zM839.333 734.304c16.259-5.419 31.067-25.965 31.067-43.104v-691.2h-256v809.282l224.933-74.978zM102.4 742.4c0 16.827 14.678 36.557 30.797 41.392l430.003 129.002v-912.794h-460.8v742.4z" />
<glyph unicode="&#xe60d;" glyph-name="pencil" d="M978.101 926.902c-28.77 28.768-67.018 44.611-107.701 44.611-40.685 0-78.933-15.843-107.701-44.611l-652.8-652.8c-2.645-2.645-4.678-5.837-5.957-9.354l-102.4-281.6c-3.4-9.347-1.077-19.818 5.957-26.85 4.885-4.888 11.43-7.499 18.104-7.499 2.933 0 5.891 0.502 8.744 1.541l281.6 102.4c3.515 1.28 6.709 3.312 9.354 5.958l652.8 652.8c28.768 28.768 44.613 67.018 44.613 107.702s-15.843 78.933-44.613 107.701zM293.114 98.917l-224.709-81.71 81.712 224.707 566.683 566.683 142.997-142.997-566.683-566.683zM941.899 747.702l-45.899-45.899-142.997 142.997 45.899 45.899c19.098 19.098 44.49 29.614 71.498 29.614s52.4-10.518 71.499-29.616c19.098-19.098 29.616-44.49 29.616-71.498s-10.52-52.4-29.616-71.498z" />
<glyph unicode="&#xe60f;" glyph-name="pen2" d="M1002.101 950.902c-14.312 14.314-33.55 21.57-57.178 21.57-38.552 0-90.39-20.173-154.691-60.096-20.602 21.781-59.752 55.149-109.102 59.157-39.395 3.197-76.557-12.355-110.432-46.23-71.957-71.957-107.366-159.792-130.798-217.914-7.962-19.75-17.87-44.333-22.802-49.395-1.678-1.678-6.768-6.766-15.546 0.642-10.034 9.461-25.837 9.282-35.654-0.533-9.998-9.998-9.998-26.206 0-36.203 4.194-4.195 14.976-12.326 28.786-16.2 5.552-1.558 11.064-2.328 16.469-2.328 6.491 0 12.826 1.125 18.893 3.314-7.027-7.202-14.042-14.453-21.035-21.757-180.053-188.078-381.962-446.123-408.661-606.318-1.36-8.157 1.304-16.466 7.149-22.31 4.84-4.842 11.37-7.499 18.102-7.499 1.398 0 2.806 0.114 4.21 0.349 66.966 11.162 155.259 53.531 262.421 125.934 94.797 64.046 199.966 148.87 304.139 245.298 101.602 94.045 194.278 191.611 268.010 282.152 55.093 67.65 125.874 164.242 150.224 240.221 15.402 48.064 11.195 84.451-12.502 108.149zM606.901 889.099c23.026 23.026 45.891 33.309 69.89 31.418 28.702-2.251 53.931-21.411 69.893-36.875-12.624-8.782-25.642-18.197-39.067-28.269-72.926-54.71-155.656-127.411-238.080-208.931 5.494 11.168 11.082 25.010 17.853 41.803 21.877 54.267 54.936 136.277 119.512 200.854zM155.434 192.363l88.171-88.171c-69.91-45.646-132.29-78.139-182.782-94.581 16.483 50.515 49.075 112.971 94.611 182.752zM561.589 357.954c-96.040-88.899-189.934-165.266-274.792-224.547l-102.163 102.165c67.64 96.896 157.245 205.195 261.362 313.95 120.925 126.312 240.387 230.635 335.994 296.29l114.899-114.902c-73.266-106.797-193.818-241.995-335.299-372.955zM965.843 858.378c-7.579-23.651-21.382-51.859-40.506-83.512l-99.403 99.403c50.074 30.282 91.147 47.003 118.989 47.003 14.4 0 19.349-4.949 20.974-6.574 11.858-11.856 5.056-40.376-0.054-56.32z" />
<glyph unicode="&#xe626;" glyph-name="palette" d="M332.8 563.2c-42.347 0-76.8 34.453-76.8 76.8s34.453 76.8 76.8 76.8 76.8-34.453 76.8-76.8-34.453-76.8-76.8-76.8zM332.8 665.6c-14.115 0-25.6-11.485-25.6-25.6s11.485-25.6 25.6-25.6 25.6 11.485 25.6 25.6-11.485 25.6-25.6 25.6zM179.2 409.6c-42.347 0-76.8 34.451-76.8 76.8 0 42.347 34.453 76.8 76.8 76.8s76.8-34.453 76.8-76.8c0-42.349-34.453-76.8-76.8-76.8zM179.2 512c-14.115 0-25.6-11.485-25.6-25.6s11.485-25.6 25.6-25.6 25.6 11.485 25.6 25.6-11.485 25.6-25.6 25.6zM537.6 614.4c-42.347 0-76.8 34.453-76.8 76.8s34.453 76.8 76.8 76.8c42.349 0 76.8-34.453 76.8-76.8s-34.451-76.8-76.8-76.8zM537.6 716.8c-14.115 0-25.6-11.485-25.6-25.6s11.485-25.6 25.6-25.6 25.6 11.485 25.6 25.6-11.485 25.6-25.6 25.6zM512 0c-135.947 0-263.949 44.744-360.427 125.987-47.341 39.866-84.562 86.392-110.627 138.288-27.17 54.094-40.946 111.603-40.946 170.925s13.776 116.83 40.947 170.925c26.066 51.896 63.286 98.422 110.627 138.288 96.477 81.245 224.478 125.987 360.426 125.987s263.949-44.742 360.427-125.987c47.341-39.866 84.562-86.392 110.627-138.288 27.17-54.094 40.946-111.603 40.946-170.925 0-94.829-42.234-128.618-81.758-128.618-33.035 0-67.040 23.126-93.296 63.448-16.571 25.461-34.080 39.48-49.301 39.48-5.082 0-10.088-1.518-15.306-4.642-28.771-17.226-11.758-63.736 0.946-89.928 41.061-84.669 44.467-158.632 9.85-213.891-42.002-67.051-137.262-101.050-283.134-101.050zM512 819.2c-254.086 0-460.8-172.262-460.8-384s206.714-384 460.8-384c69.928 0 126.646 8.144 168.578 24.203 33.24 12.731 57.184 30.504 71.166 52.827 31.298 49.963 10.461 116.962-12.53 164.368-49.166 101.374-3.214 143.006 18.826 156.202 13.206 7.902 27.203 11.91 41.605 11.91 23.435 0 58.456-10.886 92.211-62.747 19.309-29.656 39.211-40.181 50.386-40.181 18.277 0 30.558 31.114 30.558 77.418 0 211.738-206.714 384-460.8 384zM563.2 153.6c-56.464 0-102.4 45.936-102.4 102.4s45.936 102.4 102.4 102.4c56.464 0 102.4-45.936 102.4-102.4s-45.936-102.4-102.4-102.4zM563.2 307.2c-28.232 0-51.2-22.968-51.2-51.2s22.968-51.2 51.2-51.2 51.2 22.968 51.2 51.2-22.968 51.2-51.2 51.2z" />
<glyph unicode="&#xe681;" glyph-name="trash2" d="M793.6 870.4h-179.2v25.6c0 42.347-34.453 76.8-76.8 76.8h-102.4c-42.347 0-76.8-34.453-76.8-76.8v-25.6h-179.2c-42.347 0-76.8-34.453-76.8-76.8v-51.2c0-33.373 21.403-61.829 51.2-72.397v-644.403c0-42.349 34.453-76.8 76.8-76.8h512c42.349 0 76.8 34.451 76.8 76.8v644.403c29.797 10.568 51.2 39.024 51.2 72.397v51.2c0 42.347-34.451 76.8-76.8 76.8zM409.6 896c0 14.115 11.485 25.6 25.6 25.6h102.4c14.115 0 25.6-11.485 25.6-25.6v-25.6h-153.6v25.6zM742.4 0h-512c-14.115 0-25.6 11.485-25.6 25.6v640h563.2v-640c0-14.115-11.485-25.6-25.6-25.6zM819.2 742.4c0-14.115-11.485-25.6-25.6-25.6h-614.4c-14.115 0-25.6 11.485-25.6 25.6v51.2c0 14.115 11.485 25.6 25.6 25.6h614.4c14.115 0 25.6-11.485 25.6-25.6v-51.2zM640 614.4c-14.139 0-25.6-11.462-25.6-25.6v-512c0-14.139 11.461-25.6 25.6-25.6s25.6 11.461 25.6 25.6v512c0 14.138-11.461 25.6-25.6 25.6zM486.4 614.4c-14.138 0-25.6-11.462-25.6-25.6v-512c0-14.139 11.462-25.6 25.6-25.6s25.6 11.461 25.6 25.6v512c0 14.138-11.462 25.6-25.6 25.6zM332.8 614.4c-14.138 0-25.6-11.462-25.6-25.6v-512c0-14.139 11.462-25.6 25.6-25.6s25.6 11.461 25.6 25.6v512c0 14.138-11.462 25.6-25.6 25.6z" />
<glyph unicode="&#xe684;" glyph-name="game" d="M486.4-51.2c-129.922 0-252.067 50.594-343.936 142.464s-142.464 214.014-142.464 343.936c0 129.923 50.595 252.067 142.464 343.936s214.013 142.464 343.936 142.464c90.926 0 179.611-25.254 256.466-73.034 74.717-46.45 135.534-112.258 175.882-190.309 3.118-6.035 3.71-13.062 1.646-19.534s-6.616-11.858-12.653-14.971l-365.502-188.552 365.501-188.55c6.037-3.114 10.589-8.501 12.653-14.973s1.472-13.499-1.646-19.533c-40.346-78.051-101.163-143.859-175.88-190.31-76.854-47.779-165.539-73.034-256.466-73.034zM486.4 870.4c-239.97 0-435.2-195.23-435.2-435.2s195.23-435.2 435.2-435.2c154.907 0 296.128 81.075 374.44 213.234l-386.176 199.214c-8.515 4.392-13.864 13.173-13.864 22.752s5.349 18.36 13.864 22.752l386.178 199.216c-78.314 132.157-219.534 213.232-374.442 213.232zM588.8 614.4c-42.349 0-76.8 34.453-76.8 76.8s34.451 76.8 76.8 76.8 76.8-34.453 76.8-76.8-34.451-76.8-76.8-76.8zM588.8 716.8c-14.115 0-25.6-11.485-25.6-25.6s11.485-25.6 25.6-25.6 25.6 11.485 25.6 25.6-11.485 25.6-25.6 25.6z" />
<glyph unicode="&#xe68d;" glyph-name="star" d="M793.598 0c-4.205 0-8.422 1.034-12.258 3.126l-269.341 146.912-269.341-146.912c-8.598-4.691-19.118-4.061-27.098 1.613-7.981 5.677-12.022 15.41-10.413 25.069l49.034 294.206-195.483 195.485c-6.781 6.781-9.203 16.782-6.277 25.914s10.712 15.862 20.17 17.438l294.341 49.058 122.17 244.339c4.336 8.674 13.2 14.152 22.898 14.152s18.562-5.478 22.898-14.152l122.17-244.339 294.341-49.058c9.459-1.576 17.243-8.307 20.17-17.438s0.504-19.133-6.277-25.914l-195.483-195.485 49.034-294.206c1.61-9.659-2.434-19.392-10.413-25.069-4.419-3.144-9.621-4.739-14.84-4.739zM512 204.8c4.219 0 8.437-1.042 12.259-3.126l235.445-128.426-42.557 255.344c-1.36 8.155 1.302 16.464 7.15 22.309l169.626 169.626-258.131 43.022c-8.080 1.346-15.027 6.477-18.69 13.803l-105.102 210.205-105.102-210.205c-3.664-7.326-10.61-12.458-18.69-13.803l-258.131-43.022 169.624-169.626c5.846-5.845 8.509-14.155 7.15-22.309l-42.557-255.344 235.446 128.426c3.821 2.085 8.040 3.126 12.259 3.126z" />
<glyph unicode="&#xe68f;" glyph-name="star-empty" d="M281.57 546.13c-12.29 0-23.134 8.874-25.221 21.395-2.325 13.946 7.098 27.136 21.043 29.461l89.541 14.923 19.77 39.539c6.323 12.646 21.701 17.773 34.346 11.45 12.646-6.323 17.771-21.701 11.45-34.346l-25.6-51.2c-3.664-7.326-10.61-12.458-18.69-13.803l-102.4-17.067c-1.424-0.237-2.842-0.352-4.238-0.352zM128 460.8c-6.552 0-13.102 2.499-18.101 7.499l-51.2 51.2c-6.781 6.781-9.203 16.782-6.277 25.914s10.71 15.862 20.17 17.438l102.4 17.067c13.957 2.326 27.136-7.099 29.461-21.043 2.325-13.946-7.098-27.136-21.043-29.461l-53.331-8.89 16.024-16.026c9.998-9.997 9.998-26.206 0-36.203-5-4.997-11.55-7.496-18.102-7.496zM759.434 204.795c-12.29 0-23.134 8.875-25.221 21.397l-17.066 102.4c-1.36 8.155 1.302 16.464 7.15 22.309l51.2 51.2c9.997 9.997 26.206 9.997 36.203 0 9.998-9.997 9.998-26.206 0-36.203l-41.885-41.885 14.899-89.406c2.325-13.946-7.098-27.136-21.043-29.459-1.422-0.237-2.838-0.352-4.238-0.352zM793.598 0c-4.205 0-8.422 1.034-12.256 3.126l-153.606 83.784c-12.413 6.768-16.986 22.32-10.216 34.731 6.766 12.414 22.32 16.99 34.731 10.216l107.453-58.61-8.424 50.542c-2.325 13.947 7.098 27.136 21.042 29.461 13.955 2.322 27.136-7.096 29.461-21.042l17.067-102.4c1.61-9.661-2.434-19.394-10.413-25.070-4.418-3.144-9.619-4.739-14.838-4.739zM273.098 255.995c-1.398 0-2.814 0.115-4.238 0.354-13.946 2.325-23.366 15.514-21.043 29.461l6.368 38.205-41.885 41.885c-9.998 9.997-9.998 26.206 0 36.203s26.206 9.997 36.203 0l51.2-51.2c5.846-5.845 8.509-14.155 7.15-22.31l-8.533-51.2c-2.088-12.522-12.934-21.397-25.222-21.397zM230.402 0c-5.221 0-10.421 1.595-14.842 4.739-7.981 5.677-12.022 15.41-10.413 25.069l25.6 153.598c2.325 13.947 15.514 23.368 29.461 21.043 13.946-2.323 23.366-15.514 21.043-29.459l-16.957-101.742 56.246 30.68c12.41 6.771 27.963 2.197 34.733-10.214 6.77-12.413 2.197-27.963-10.216-34.733l-102.4-55.854c-3.834-2.093-8.051-3.126-12.256-3.126zM435.222 111.704c-9.067 0-17.85 4.827-22.498 13.347-6.77 12.411-2.197 27.963 10.216 34.731l76.8 41.891c7.64 4.168 16.875 4.168 24.517 0l25.595-13.962c12.413-6.768 16.986-22.32 10.216-34.731-6.766-12.414-22.32-16.99-34.731-10.216l-13.338 7.274-64.541-35.203c-3.893-2.123-8.094-3.131-12.237-3.131zM896 460.8c-6.552 0-13.102 2.499-18.101 7.499-9.998 9.997-9.998 26.206 0 36.203l16.024 16.026-104.53 17.422c-13.947 2.325-23.368 15.514-21.043 29.461s15.533 23.368 29.459 21.043l153.6-25.6c9.459-1.576 17.243-8.307 20.17-17.438s0.504-19.133-6.277-25.914l-51.2-51.2c-5-5.003-11.55-7.502-18.102-7.502zM691.234 554.662c-1.398 0-2.816 0.115-4.24 0.352l-51.202 8.533c-8.078 1.346-15.026 6.477-18.688 13.802l-51.2 102.395c-6.323 12.646-1.198 28.024 11.448 34.346 12.643 6.323 28.024 1.197 34.346-11.448l45.37-90.736 38.344-6.39c13.946-2.325 23.366-15.514 21.042-29.461-2.086-12.518-12.933-21.392-25.219-21.392zM460.779 716.795c-3.846 0-7.754 0.87-11.429 2.707-12.646 6.323-17.771 21.701-11.45 34.346l51.2 102.4c4.338 8.674 13.203 14.152 22.899 14.152 0 0 0 0 0 0 9.698 0 18.562-5.478 22.898-14.152l25.598-51.2c6.323-12.646 1.197-28.024-11.448-34.346-12.646-6.325-28.024-1.198-34.346 11.45l-2.702 5.403-28.301-56.603c-4.486-8.971-13.53-14.157-22.92-14.157z" />
<glyph unicode="&#xe696;" glyph-name="envelope" d="M896 665.6h-819.2c-42.347 0-76.8-34.453-76.8-76.8v-460.8c0-42.349 34.453-76.8 76.8-76.8h819.2c42.349 0 76.8 34.451 76.8 76.8v460.8c0 42.347-34.451 76.8-76.8 76.8zM896 614.4c1.514 0 2.99-0.158 4.434-0.411l-385.632-257.090c-14.862-9.907-41.938-9.907-56.802 0l-385.634 257.090c1.443 0.253 2.92 0.411 4.434 0.411h819.2zM896 102.4h-819.2c-14.115 0-25.6 11.485-25.6 25.6v438.566l378.4-252.267c15.925-10.618 36.363-15.925 56.8-15.925s40.877 5.307 56.802 15.925l378.398 252.267v-438.566c0-14.115-11.485-25.6-25.6-25.6z" />
<glyph unicode="&#xe6a5;" glyph-name="eye2" d="M1017.429 452.326c-2.429 2.698-60.515 66.826-151.349 131.706-53.587 38.277-107.499 68.826-160.234 90.8-66.837 27.848-132.056 41.968-193.846 41.968s-127.010-14.12-193.846-41.97c-52.736-21.973-106.646-52.523-160.234-90.8-90.832-64.878-148.92-129.006-151.349-131.704-8.763-9.736-8.763-24.515 0-34.251 2.429-2.699 60.517-66.827 151.349-131.707 53.587-38.277 107.498-68.827 160.234-90.8 66.837-27.848 132.056-41.968 193.846-41.968s127.010 14.12 193.846 41.968c52.734 21.973 106.645 52.523 160.234 90.8 90.834 64.88 148.92 129.008 151.349 131.706 8.762 9.736 8.762 24.517 0 34.253zM643.789 643.157c46.458-39.074 73.011-95.923 73.011-156.757 0-112.926-91.874-204.8-204.8-204.8-112.928 0-204.8 91.874-204.8 204.8 0 60.835 26.554 117.685 73.014 156.757 42.107 13.744 86.602 22.443 131.786 22.443 45.186 0 89.682-8.699 131.789-22.443zM835.418 327.387c-78.488-55.925-198.309-122.587-323.418-122.587s-244.93 66.662-323.416 122.587c-59.24 42.21-104.574 84.89-127.458 107.813 22.888 22.928 68.222 65.606 127.458 107.813 27.13 19.331 59.2 39.942 94.72 58.643-17.766-35.224-27.304-74.52-27.304-115.256 0-141.16 114.842-256 256-256 141.16 0 256 114.84 256 256 0 40.734-9.538 80.032-27.301 115.256 35.517-18.701 67.589-39.312 94.718-58.643 59.238-42.21 104.573-84.89 127.456-107.813-22.888-22.928-68.222-65.606-127.456-107.813z" />
<glyph unicode="&#xe6a6;" glyph-name="eye-crossed" d="M1017.429 452.326c-2.429 2.698-60.515 66.826-151.349 131.706-30.728 21.949-61.562 41.341-92.218 58.048l88.301 81.509c10.389 9.59 11.037 25.786 1.446 36.174-9.59 10.39-25.786 11.035-36.174 1.446l-102.555-94.666c-6.36 2.883-12.704 5.65-19.034 8.286-66.837 27.85-132.056 41.97-193.846 41.97s-127.010-14.12-193.846-41.97c-52.736-21.973-106.646-52.523-160.234-90.8-90.832-64.878-148.92-129.006-151.349-131.704-8.763-9.736-8.763-24.515 0-34.251 2.429-2.699 60.517-66.827 151.349-131.707 30.728-21.949 61.56-41.342 92.218-58.048l-88.301-81.509c-10.389-9.59-11.037-25.786-1.446-36.174 5.046-5.467 11.922-8.235 18.818-8.235 6.208 0 12.435 2.245 17.358 6.789l102.555 94.667c6.36-2.883 12.706-5.65 19.034-8.288 66.835-27.85 132.054-41.97 193.845-41.97s127.010 14.12 193.846 41.968c52.734 21.973 106.645 52.523 160.234 90.8 90.834 64.88 148.92 129.008 151.349 131.706 8.762 9.736 8.762 24.517 0 34.253zM716.8 486.4c0-112.926-91.872-204.8-204.8-204.8-36.384 0-70.573 9.549-100.218 26.253l286.294 264.272c12.203-26.486 18.723-55.614 18.723-85.725zM643.787 643.157c9.774-8.221 18.662-17.234 26.613-26.901l-300.397-277.29c-38.691 37.277-62.803 89.59-62.803 147.434 0 60.835 26.552 117.683 73.013 156.757 42.109 13.744 86.602 22.443 131.787 22.443s89.68-8.699 131.787-22.443zM188.584 327.387c-59.24 42.21-104.574 84.89-127.458 107.813 22.888 22.928 68.222 65.606 127.458 107.813 27.13 19.331 59.2 39.942 94.72 58.643-17.766-35.222-27.304-74.52-27.304-115.256 0-71.224 29.248-135.738 76.35-182.19l-42.248-38.997c-38.229 19.614-72.669 41.619-101.518 62.174zM835.418 327.387c-78.488-55.925-198.309-122.587-323.418-122.587-59.717 0-118.224 15.194-171.61 37.152l32.275 29.792c40.125-26.134 87.984-41.344 139.334-41.344 141.158 0 256 114.84 256 256 0 40.734-9.538 80.032-27.301 115.256 35.518-18.701 67.589-39.312 94.718-58.643 59.238-42.21 104.573-84.89 127.456-107.813-22.888-22.928-68.222-65.606-127.456-107.813z" />
<glyph unicode="&#xe6b3;" glyph-name="file-empty2" d="M914.101 683.701l-230.4 230.4c-4.8 4.802-11.312 7.499-18.101 7.499h-486.4c-42.347 0-76.8-34.453-76.8-76.8v-819.2c0-42.349 34.453-76.8 76.8-76.8h665.6c42.349 0 76.8 34.451 76.8 76.8v640c0 6.79-2.698 13.301-7.499 18.101zM859.797 665.6h-168.597c-14.115 0-25.6 11.485-25.6 25.6v168.597l194.197-194.197zM870.4 25.6c0-14.115-11.485-25.6-25.6-25.6h-665.6c-14.115 0-25.6 11.485-25.6 25.6v819.2c0 14.115 11.485 25.6 25.6 25.6h435.2v-179.2c0-42.347 34.451-76.8 76.8-76.8h179.2v-588.8z" />
<glyph unicode="&#xe6b7;" glyph-name="files" d="M844.8 768h-25.6v25.6c0 42.347-34.451 76.8-76.8 76.8h-25.6v25.6c0 42.347-34.451 76.8-76.8 76.8h-384c-6.79 0-13.301-2.698-18.101-7.499l-179.2-179.2c-4.802-4.8-7.499-11.312-7.499-18.101v-537.6c0-42.349 34.453-76.8 76.8-76.8h25.6v-25.6c0-42.349 34.453-76.8 76.8-76.8h25.6v-25.6c0-42.349 34.453-76.8 76.8-76.8h512c42.349 0 76.8 34.451 76.8 76.8v665.6c0 42.347-34.451 76.8-76.8 76.8zM256 910.997v-117.397c0-14.115-11.485-25.6-25.6-25.6h-117.397l142.997 142.997zM102.4 230.4v486.4h128c42.347 0 76.8 34.453 76.8 76.8v128h332.8c14.115 0 25.6-11.485 25.6-25.6v-665.6c0-14.115-11.485-25.6-25.6-25.6h-512c-14.115 0-25.6 11.485-25.6 25.6zM204.8 128v25.6h435.2c42.349 0 76.8 34.451 76.8 76.8v588.8h25.6c14.115 0 25.6-11.485 25.6-25.6v-665.6c0-14.115-11.485-25.6-25.6-25.6h-512c-14.115 0-25.6 11.485-25.6 25.6zM870.4 25.6c0-14.115-11.485-25.6-25.6-25.6h-512c-14.115 0-25.6 11.485-25.6 25.6v25.6h435.2c42.349 0 76.8 34.451 76.8 76.8v588.8h25.6c14.115 0 25.6-11.485 25.6-25.6v-665.6z" />
<glyph unicode="&#xe6b8;" glyph-name="copy" d="M844.8 768h-128v128c0 42.347-34.451 76.8-76.8 76.8h-384c-6.79 0-13.301-2.698-18.101-7.499l-179.2-179.2c-4.802-4.8-7.499-11.312-7.499-18.101v-537.6c0-42.349 34.453-76.8 76.8-76.8h128v-128c0-42.349 34.453-76.8 76.8-76.8h512c42.349 0 76.8 34.451 76.8 76.8v665.6c0 42.347-34.451 76.8-76.8 76.8zM256 910.997v-117.397c0-14.115-11.485-25.6-25.6-25.6h-117.397l142.997 142.997zM128 204.8c-14.115 0-25.6 11.485-25.6 25.6v486.4h128c42.347 0 76.8 34.453 76.8 76.8v128h332.8c14.115 0 25.6-11.485 25.6-25.6v-128h-204.8c-6.79 0-13.301-2.698-18.101-7.499l-179.2-179.2c-4.802-4.8-7.499-11.312-7.499-18.101v-358.4h-128zM460.8 706.197v-117.397c0-14.115-11.485-25.6-25.6-25.6h-117.397l142.997 142.997zM870.4 25.6c0-14.115-11.485-25.6-25.6-25.6h-512c-14.115 0-25.6 11.485-25.6 25.6v486.4h128c42.347 0 76.8 34.453 76.8 76.8v128h332.8c14.115 0 25.6-11.485 25.6-25.6v-665.6z" />
<glyph unicode="&#xe6ba;" glyph-name="folder3" d="M947.2 716.8h-384c-4.386 0-12.189 4.822-14.152 8.747l-28.302 56.603c-10.56 21.122-36.331 37.050-59.946 37.050h-358.4c-23.614 0-49.386-15.928-59.946-37.048l-28.304-56.605c-8.067-16.136-14.15-41.907-14.15-59.947v-537.6c0-42.349 34.453-76.8 76.8-76.8h870.4c42.349 0 76.8 34.451 76.8 76.8v512c0 42.347-34.451 76.8-76.8 76.8zM972.8 128c0-14.115-11.485-25.6-25.6-25.6h-870.4c-14.115 0-25.6 11.485-25.6 25.6v537.6c0 10.053 4.25 28.058 8.746 37.048l28.304 56.605c1.962 3.925 9.765 8.747 14.15 8.747h358.4c4.386 0 12.189-4.822 14.152-8.747l28.302-56.603c10.562-21.122 36.331-37.050 59.946-37.050h384c14.115 0 25.6-11.485 25.6-25.6v-512z" />
<glyph unicode="&#xe6bf;" glyph-name="folder-upload" d="M947.2 51.2h-870.4c-42.347 0-76.8 34.451-76.8 76.8v537.6c0 18.040 6.085 43.813 14.154 59.947l28.301 56.603c10.558 21.122 36.33 37.050 59.946 37.050h358.4c23.611 0 49.382-15.926 59.947-37.045l28.302-56.61c1.962-3.923 9.765-8.746 14.15-8.746h384c42.349 0 76.8-34.453 76.8-76.8v-512c0-42.349-34.451-76.8-76.8-76.8zM102.4 768c-4.387 0-12.189-4.821-14.149-8.744l-28.302-56.606c-4.498-8.992-8.749-26.997-8.749-37.050v-537.6c0-14.115 11.485-25.6 25.6-25.6h870.4c14.115 0 25.6 11.485 25.6 25.6v512c0 14.115-11.485 25.6-25.6 25.6h-384c-23.614 0-49.384 15.928-59.946 37.050l-28.301 56.605c-1.962 3.92-9.766 8.746-14.154 8.746h-358.4zM658.101 427.701l-153.6 153.6c-9.997 9.998-26.206 9.998-36.203 0l-153.6-153.6c-9.998-9.997-9.998-26.206 0-36.203s26.206-9.997 36.203 0l109.899 109.899v-270.997c0-14.139 11.462-25.6 25.6-25.6s25.6 11.461 25.6 25.6v270.997l109.899-109.898c4.998-5 11.549-7.499 18.101-7.499s13.102 2.499 18.101 7.499c9.998 9.997 9.998 26.205 0 36.202z" />
<glyph unicode="&#xe6d1;" glyph-name="register" d="M742.4-51.2h-665.6c-42.347 0-76.8 34.451-76.8 76.8v819.2c0 42.347 34.453 76.8 76.8 76.8h665.6c42.349 0 76.8-34.453 76.8-76.8v-102.4c0-14.138-11.461-25.6-25.6-25.6s-25.6 11.462-25.6 25.6v102.4c0 14.115-11.485 25.6-25.6 25.6h-665.6c-14.115 0-25.6-11.485-25.6-25.6v-819.2c0-14.115 11.485-25.6 25.6-25.6h665.6c14.115 0 25.6 11.485 25.6 25.6v204.8c0 14.139 11.461 25.6 25.6 25.6s25.6-11.461 25.6-25.6v-204.8c0-42.349-34.451-76.8-76.8-76.8zM537.6 716.8h-358.4c-14.138 0-25.6 11.462-25.6 25.6s11.462 25.6 25.6 25.6h358.4c14.139 0 25.6-11.462 25.6-25.6s-11.461-25.6-25.6-25.6zM640 614.4h-460.8c-14.138 0-25.6 11.462-25.6 25.6s11.462 25.6 25.6 25.6h460.8c14.139 0 25.6-11.462 25.6-25.6s-11.461-25.6-25.6-25.6zM588.8 512h-409.6c-14.138 0-25.6 11.462-25.6 25.6s11.462 25.6 25.6 25.6h409.6c14.139 0 25.6-11.462 25.6-25.6s-11.461-25.6-25.6-25.6zM435.2 409.6h-256c-14.138 0-25.6 11.461-25.6 25.6s11.462 25.6 25.6 25.6h256c14.138 0 25.6-11.461 25.6-25.6s-11.462-25.6-25.6-25.6zM435.2 102.4c-6.87 0-13.554 2.768-18.438 7.84-6.331 6.573-8.683 16.019-6.176 24.792l51.2 179.2c1.195 4.182 3.437 7.992 6.512 11.069l384 384c9.997 9.997 26.206 9.997 36.203 0l128-128c9.933-9.933 10.006-26.011 0.166-36.035l-384-391.2c-3.331-3.395-7.544-5.794-12.165-6.928l-179.2-44c-2.021-0.496-4.069-0.738-6.102-0.738zM509.194 293.789l-37.261-130.41 129.296 31.747 361.136 367.906-91.965 91.965-361.206-361.208zM332.8 102.4h-153.6c-14.138 0-25.6 11.461-25.6 25.6s11.462 25.6 25.6 25.6h153.6c14.138 0 25.6-11.461 25.6-25.6s-11.462-25.6-25.6-25.6z" />
<glyph unicode="&#xe6d9;" glyph-name="document2" d="M844.8-51.2h-665.6c-42.347 0-76.8 34.451-76.8 76.8v819.2c0 42.347 34.453 76.8 76.8 76.8h665.6c42.349 0 76.8-34.453 76.8-76.8v-819.2c0-42.349-34.451-76.8-76.8-76.8zM179.2 870.4c-14.115 0-25.6-11.485-25.6-25.6v-819.2c0-14.115 11.485-25.6 25.6-25.6h665.6c14.115 0 25.6 11.485 25.6 25.6v819.2c0 14.115-11.485 25.6-25.6 25.6h-665.6zM435.2 716.8h-153.6c-14.138 0-25.6 11.462-25.6 25.6s11.462 25.6 25.6 25.6h153.6c14.138 0 25.6-11.462 25.6-25.6s-11.462-25.6-25.6-25.6zM435.2 614.4h-153.6c-14.138 0-25.6 11.462-25.6 25.6s11.462 25.6 25.6 25.6h153.6c14.138 0 25.6-11.462 25.6-25.6s-11.462-25.6-25.6-25.6zM435.2 512h-153.6c-14.138 0-25.6 11.462-25.6 25.6s11.462 25.6 25.6 25.6h153.6c14.138 0 25.6-11.462 25.6-25.6s-11.462-25.6-25.6-25.6zM435.2 409.6h-153.6c-14.138 0-25.6 11.461-25.6 25.6s11.462 25.6 25.6 25.6h153.6c14.138 0 25.6-11.461 25.6-25.6s-11.462-25.6-25.6-25.6zM742.4 307.2h-460.8c-14.138 0-25.6 11.461-25.6 25.6s11.462 25.6 25.6 25.6h460.8c14.139 0 25.6-11.461 25.6-25.6s-11.461-25.6-25.6-25.6zM742.4 204.8h-460.8c-14.138 0-25.6 11.461-25.6 25.6s11.462 25.6 25.6 25.6h460.8c14.139 0 25.6-11.461 25.6-25.6s-11.461-25.6-25.6-25.6zM742.4 102.4h-460.8c-14.138 0-25.6 11.461-25.6 25.6s11.462 25.6 25.6 25.6h460.8c14.139 0 25.6-11.461 25.6-25.6s-11.461-25.6-25.6-25.6zM742.4 409.6h-204.8c-14.138 0-25.6 11.461-25.6 25.6v307.2c0 14.138 11.462 25.6 25.6 25.6h204.8c14.139 0 25.6-11.462 25.6-25.6v-307.2c0-14.139-11.461-25.6-25.6-25.6zM563.2 460.8h153.6v256h-153.6v-256z" />
<glyph unicode="&#xe70f;" glyph-name="picture2" d="M947.2-51.2h-870.4c-42.347 0-76.8 34.451-76.8 76.8v870.4c0 42.347 34.453 76.8 76.8 76.8h870.4c42.349 0 76.8-34.453 76.8-76.8v-870.4c0-42.349-34.451-76.8-76.8-76.8zM76.8 921.6c-14.115 0-25.6-11.485-25.6-25.6v-870.4c0-14.115 11.485-25.6 25.6-25.6h870.4c14.115 0 25.6 11.485 25.6 25.6v870.4c0 14.115-11.485 25.6-25.6 25.6h-870.4zM665.6 512c-56.464 0-102.4 45.936-102.4 102.4s45.936 102.4 102.4 102.4 102.4-45.936 102.4-102.4-45.936-102.4-102.4-102.4zM665.6 665.6c-28.232 0-51.2-22.968-51.2-51.2s22.968-51.2 51.2-51.2 51.2 22.968 51.2 51.2-22.968 51.2-51.2 51.2zM896 870.4h-768c-14.138 0-25.6-11.462-25.6-25.6v-614.4c0-14.139 11.462-25.6 25.6-25.6h768c14.139 0 25.6 11.461 25.6 25.6v614.4c0 14.138-11.461 25.6-25.6 25.6zM153.6 374.267l164.318 184.858c4.203 4.728 9.694 7.371 15.462 7.44 5.725 0.090 11.322-2.438 15.638-7.062l283.27-303.502h-478.69v118.267zM870.4 256h-168.075l-315.875 338.437c-14.269 15.288-33.312 23.605-53.691 23.325-20.354-0.246-39.214-8.992-53.107-24.621l-126.051-141.808v367.867h716.8v-563.2z" />
<glyph unicode="&#xe711;" glyph-name="pictures" d="M844.8-51.2h-716.8c-42.347 0-76.8 34.451-76.8 76.8v665.6c0 42.347 34.453 76.8 76.8 76.8h716.8c42.349 0 76.8-34.453 76.8-76.8v-665.6c0-42.349-34.451-76.8-76.8-76.8zM128 716.8c-14.115 0-25.6-11.485-25.6-25.6v-665.6c0-14.115 11.485-25.6 25.6-25.6h716.8c14.115 0 25.6 11.485 25.6 25.6v665.6c0 14.115-11.485 25.6-25.6 25.6h-716.8zM844.8 819.2h-716.8c-14.138 0-25.6 11.462-25.6 25.6s11.462 25.6 25.6 25.6h716.8c14.139 0 25.6-11.462 25.6-25.6s-11.461-25.6-25.6-25.6zM793.6 921.6h-614.4c-14.138 0-25.6 11.462-25.6 25.6s11.462 25.6 25.6 25.6h614.4c14.139 0 25.6-11.462 25.6-25.6s-11.461-25.6-25.6-25.6zM588.8 307.2c-42.349 0-76.8 34.451-76.8 76.8s34.451 76.8 76.8 76.8 76.8-34.451 76.8-76.8-34.451-76.8-76.8-76.8zM588.8 409.6c-14.115 0-25.6-11.485-25.6-25.6s11.485-25.6 25.6-25.6 25.6 11.485 25.6 25.6-11.485 25.6-25.6 25.6zM742.4 563.2h-512c-14.138 0-25.6-11.462-25.6-25.6v-358.4c0-14.139 11.462-25.6 25.6-25.6h512c14.139 0 25.6 11.461 25.6 25.6v358.4c0 14.138-11.461 25.6-25.6 25.6zM256 272.621l64.806 81.006c3.715 4.645 8.422 7.272 13.254 7.397 4.806 0.133 9.67-2.254 13.621-6.699l132.91-149.525h-224.592v67.821zM716.8 204.8h-167.702l-163.149 183.541c-13.941 15.685-33.349 24.36-53.218 23.866-19.88-0.517-38.798-10.211-51.906-26.595l-24.826-31.032v157.421h460.8v-307.2z" />
<glyph unicode="&#xe71a;" glyph-name="contacts" d="M844.8 921.6h-665.6c-42.347 0-76.8-34.453-76.8-76.8v-76.8h-25.6c-14.138 0-25.6-11.462-25.6-25.6s11.462-25.6 25.6-25.6h25.6v-51.2h-25.6c-14.138 0-25.6-11.462-25.6-25.6s11.462-25.6 25.6-25.6h25.6v-51.2h-25.6c-14.138 0-25.6-11.462-25.6-25.6s11.462-25.6 25.6-25.6h25.6v-51.2h-25.6c-14.138 0-25.6-11.461-25.6-25.6s11.462-25.6 25.6-25.6h25.6v-51.2h-25.6c-14.138 0-25.6-11.461-25.6-25.6s11.462-25.6 25.6-25.6h25.6v-51.2h-25.6c-14.138 0-25.6-11.461-25.6-25.6s11.462-25.6 25.6-25.6h25.6v-51.2h-25.6c-14.138 0-25.6-11.461-25.6-25.6s11.462-25.6 25.6-25.6h25.6v-76.8c0-42.349 34.453-76.8 76.8-76.8h665.6c42.349 0 76.8 34.451 76.8 76.8v819.2c0 42.347-34.451 76.8-76.8 76.8zM870.4 25.6c0-14.115-11.485-25.6-25.6-25.6h-665.6c-14.115 0-25.6 11.485-25.6 25.6v76.8h76.8c14.138 0 25.6 11.461 25.6 25.6s-11.462 25.6-25.6 25.6h-76.8v51.2h76.8c14.138 0 25.6 11.461 25.6 25.6s-11.462 25.6-25.6 25.6h-76.8v51.2h76.8c14.138 0 25.6 11.461 25.6 25.6s-11.462 25.6-25.6 25.6h-76.8v51.2h76.8c14.138 0 25.6 11.461 25.6 25.6s-11.462 25.6-25.6 25.6h-76.8v51.2h76.8c14.138 0 25.6 11.462 25.6 25.6s-11.462 25.6-25.6 25.6h-76.8v51.2h76.8c14.138 0 25.6 11.462 25.6 25.6s-11.462 25.6-25.6 25.6h-76.8v51.2h76.8c14.138 0 25.6 11.462 25.6 25.6s-11.462 25.6-25.6 25.6h-76.8v76.8c0 14.115 11.485 25.6 25.6 25.6h665.6c14.115 0 25.6-11.485 25.6-25.6v-819.2zM569.042 198.195c-0.011 0-0.016 0-0.026 0-50.802 0-171.299 0.768-192.99 7.878-22.139 7.256-33.275 31.845-28.366 62.64 5.275 33.11 27.277 67.779 58.851 92.739 27.746 21.934 77.45 48.093 156.672 48.147h0.254c62.155 0 115.931-16.307 155.515-47.162 31.896-24.861 53.538-58.32 59.378-91.802 5.435-31.16-5.264-56.41-27.262-64.325-6.128-2.205-16.995-4.707-68.706-6.488-30.533-1.051-70.781-1.629-113.32-1.629zM397.669 253.962c21.659-2.378 85.866-4.566 171.349-4.566 0.006 0 0.029 0 0.034 0 91.299 0 141.853 2.381 159.522 4.418 0.166 7.243-2.52 22.243-14.352 39.874-16.221 24.168-57.381 64.714-150.784 64.714h-0.221c-93.101-0.066-134.467-40.523-150.837-64.634-11.88-17.498-14.757-32.454-14.71-39.805zM563.2 460.8c-56.464 0-102.4 45.936-102.4 102.4s45.936 102.4 102.4 102.4c56.464 0 102.4-45.936 102.4-102.4s-45.936-102.4-102.4-102.4zM563.2 614.4c-28.232 0-51.2-22.968-51.2-51.2s22.968-51.2 51.2-51.2 51.2 22.968 51.2 51.2-22.968 51.2-51.2 51.2z" />
<glyph unicode="&#xe76a;" glyph-name="telephone" d="M819.2-51.2c-90.691 0-187.154 25.699-286.706 76.386-91.794 46.736-182.48 113.654-262.258 193.522-79.763 79.853-146.595 170.624-193.272 262.498-50.608 99.61-76.269 196.102-76.269 286.795 0 58.774 54.765 115.55 78.31 137.232 33.85 31.17 87.104 67.568 125.794 67.568 19.245 0 41.803-12.589 70.994-39.616 21.782-20.17 46.27-47.51 70.814-79.067 14.794-19.021 88.592-116.267 88.592-162.917 0-38.27-43.25-64.853-89.037-92.998-17.694-10.875-35.992-22.122-49.226-32.73-14.114-11.315-16.645-17.288-17.061-18.629 48.602-121.128 197.141-269.651 318.203-318.184 1.085 0.341 7.067 2.699 18.592 17.075 10.608 13.234 21.854 31.531 32.73 49.227 28.144 45.789 54.726 89.038 92.998 89.038 46.648 0 143.896-73.798 162.917-88.592 31.557-24.546 58.898-49.032 79.067-70.816 27.029-29.189 39.616-51.747 39.616-70.992 0-38.701-36.378-92.115-67.528-126.099-21.693-23.662-78.491-78.701-137.272-78.701zM204.477 921.597c-13.731-0.262-50.634-17.054-90.789-54.029-38.115-35.099-61.792-73.25-61.792-99.568 0-344.523 423.093-768 767.304-768 26.28 0 64.418 23.795 99.528 62.099 37.003 40.366 53.806 77.413 54.069 91.178-1.662 9.728-28.57 47.563-102.232 104.283-63.322 48.762-114.699 74.886-127.901 75.237-0.925-0.274-6.656-2.467-18.277-17.222-10.104-12.832-20.912-30.418-31.366-47.424-28.683-46.666-55.774-90.744-95.122-90.744-6.336 0-12.597 1.219-18.608 3.624-134.376 53.75-293.31 212.685-347.061 347.061-6.456 16.138-7.485 41.414 24.272 70.184 16.882 15.293 40.25 29.656 62.848 43.546 17.006 10.453 34.59 21.261 47.422 31.366 14.755 11.619 16.95 17.352 17.222 18.277-0.352 13.203-26.475 64.579-75.237 127.902-56.72 73.659-94.554 100.568-104.282 102.23z" />
<glyph unicode="&#xe7b2;" glyph-name="window" d="M947.2 921.6h-870.4c-42.347 0-76.8-34.453-76.8-76.8v-768c0-42.349 34.453-76.8 76.8-76.8h870.4c42.349 0 76.8 34.451 76.8 76.8v768c0 42.347-34.451 76.8-76.8 76.8zM76.8 870.4h870.4c14.115 0 25.6-11.485 25.6-25.6v-128h-921.6v128c0 14.115 11.485 25.6 25.6 25.6zM947.2 51.2h-870.4c-14.115 0-25.6 11.485-25.6 25.6v588.8h921.6v-588.8c0-14.115-11.485-25.6-25.6-25.6zM153.6 793.6c0-14.138-11.462-25.6-25.6-25.6s-25.6 11.462-25.6 25.6c0 14.138 11.462 25.6 25.6 25.6s25.6-11.462 25.6-25.6zM256 793.6c0-14.138-11.462-25.6-25.6-25.6s-25.6 11.462-25.6 25.6c0 14.138 11.462 25.6 25.6 25.6s25.6-11.462 25.6-25.6zM358.4 793.6c0-14.138-11.462-25.6-25.6-25.6s-25.6 11.462-25.6 25.6c0 14.138 11.462 25.6 25.6 25.6s25.6-11.462 25.6-25.6z" />
<glyph unicode="&#xe7d7;" glyph-name="bubbles" d="M998.432 51.2c-0.010 0.002-0.024 0.002-0.032 0-68.667 0-139.989 43.834-166.232 61.722-28.819-6.986-58.955-10.522-89.768-10.522-73.584 0-143.085 20.285-195.699 57.114-55.394 38.778-85.901 91.226-85.901 147.686s30.507 108.909 85.901 147.686c52.614 36.83 122.115 57.114 195.699 57.114s143.085-20.283 195.699-57.114c55.395-38.778 85.901-91.226 85.901-147.686 0-49.368-23.614-96.099-66.843-132.963 4.197-11.805 17.358-37.205 58.616-78.605 5.078-4.678 8.259-11.384 8.259-18.834 0-14.138-11.462-25.598-25.6-25.598zM837.254 166.301c5.52 0 10.962-1.786 15.461-5.195 0.499-0.376 34.571-25.83 76.976-43.093-27.834 40.69-27.155 63.877-24.605 73.629 1.462 5.59 4.771 10.52 9.39 13.99 37.611 28.254 58.323 64.326 58.323 101.568 0 39.27-22.752 76.824-64.061 105.741-44.090 30.862-103.163 47.859-166.339 47.859s-122.25-16.997-166.339-47.859c-41.309-28.917-64.061-66.47-64.061-105.741s22.752-76.824 64.061-105.741c44.090-30.862 103.163-47.859 166.339-47.859 30.451 0 60.048 3.955 87.966 11.757 2.267 0.632 4.587 0.944 6.888 0.944zM25.6 0c-11.507 0-21.6 7.677-24.67 18.766-3.072 11.090 1.634 22.864 11.501 28.784 86.57 51.942 122.485 127.414 135.218 162.755-94.088 72.048-147.648 171.746-147.648 276.094 0 52.704 13.23 103.755 39.323 151.736 24.902 45.794 60.406 86.806 105.526 121.899 91.504 71.17 212.802 110.365 341.55 110.365 116.659 0 229.429-32.992 317.536-92.898 88.816-60.387 146.979-143.942 163.776-235.272 2.557-13.906-6.642-27.251-20.547-29.808-13.902-2.55-27.251 6.64-29.81 20.547-14.301 77.757-64.805 149.565-142.21 202.194-79.702 54.192-182.248 84.037-288.746 84.037-239.97 0-435.2-149.294-435.2-332.8 0-92.946 51.432-182.379 141.107-245.368 8.797-6.178 12.795-17.194 10.013-27.576-5.984-22.325-26.363-83.597-80.878-142.734 66.659 23.341 138.424 63.832 191.434 100.286 6.296 4.328 14.197 5.621 21.544 3.52 48.558-13.888 99.691-20.928 151.981-20.928 14.138 0 25.6-11.461 25.6-25.6s-11.462-25.6-25.6-25.6c-52.907 0-104.8 6.627-154.437 19.707-21.974-14.637-63.040-40.603-112.086-65.005-76.163-37.89-141.528-57.102-194.277-57.102z" />
<glyph unicode="&#xe7db;" glyph-name="bubble-text" d="M25.6 0c-11.507 0-21.6 7.677-24.67 18.766s1.634 22.864 11.501 28.784c86.566 51.941 122.483 127.413 135.216 162.755-94.086 72.048-147.646 171.746-147.646 276.094 0 52.704 13.23 103.755 39.323 151.736 24.902 45.794 60.406 86.806 105.526 121.899 91.504 71.17 212.802 110.365 341.55 110.365s250.046-39.195 341.552-110.366c45.118-35.093 80.624-76.104 105.526-121.899 26.091-47.979 39.322-99.030 39.322-151.734 0-52.702-13.23-103.755-39.322-151.736-24.902-45.794-60.408-86.806-105.526-121.899-91.506-71.17-212.803-110.365-341.552-110.365-52.907 0-104.8 6.627-154.437 19.707-21.974-14.637-63.040-40.605-112.086-65.005-76.163-37.89-141.528-57.102-194.277-57.102zM486.4 819.2c-239.97 0-435.2-149.294-435.2-332.8 0-92.946 51.432-182.379 141.107-245.368 8.797-6.178 12.795-17.194 10.011-27.576-5.984-22.325-26.365-83.598-80.88-142.736 66.664 23.339 138.422 63.83 191.435 100.288 6.298 4.328 14.2 5.619 21.544 3.52 48.558-13.888 99.693-20.928 151.982-20.928 239.97 0 435.2 149.294 435.2 332.8s-195.23 332.8-435.2 332.8zM691.2 614.4h-409.6c-14.138 0-25.6 11.462-25.6 25.6s11.462 25.6 25.6 25.6h409.6c14.139 0 25.6-11.462 25.6-25.6s-11.461-25.6-25.6-25.6zM691.2 512h-409.6c-14.138 0-25.6 11.462-25.6 25.6s11.462 25.6 25.6 25.6h409.6c14.139 0 25.6-11.462 25.6-25.6s-11.461-25.6-25.6-25.6zM691.2 409.6h-409.6c-14.138 0-25.6 11.461-25.6 25.6s11.462 25.6 25.6 25.6h409.6c14.139 0 25.6-11.461 25.6-25.6s-11.461-25.6-25.6-25.6zM588.8 307.2h-307.2c-14.138 0-25.6 11.461-25.6 25.6s11.462 25.6 25.6 25.6h307.2c14.139 0 25.6-11.461 25.6-25.6s-11.461-25.6-25.6-25.6z" />
<glyph unicode="&#xe7f8;" glyph-name="pie-chart" d="M435.2-51.2c-116.246 0-225.534 45.269-307.733 127.467s-127.467 191.488-127.467 307.733c0 116.246 45.269 225.534 127.467 307.733s191.486 127.467 307.733 127.467c14.138 0 25.6-11.462 25.6-25.6v-384h384c14.139 0 25.6-11.461 25.6-25.6 0-116.245-45.269-225.534-127.467-307.733s-191.488-127.467-307.733-127.467zM409.6 767.157c-199.842-13.226-358.4-180.026-358.4-383.157 0-211.739 172.262-384 384-384 203.131 0 369.931 158.558 383.157 358.4h-383.157c-14.138 0-25.6 11.461-25.6 25.6v383.157zM947.2 460.8h-409.6c-14.139 0-25.6 11.462-25.6 25.6v409.6c0 14.138 11.461 25.6 25.6 25.6 116.245 0 225.534-45.269 307.733-127.467s127.467-191.486 127.467-307.733c0-14.138-11.461-25.6-25.6-25.6zM563.2 512h357.557c-12.664 191.374-166.184 344.891-357.557 357.557v-357.557z" />
<glyph unicode="&#xe7fa;" glyph-name="graph" d="M998.4-51.2h-972.8c-14.138 0-25.6 11.461-25.6 25.6v972.8c0 11.872 8.163 22.187 19.718 24.915 11.554 2.733 23.469-2.848 28.779-13.467l51.2-102.4c6.323-12.645 1.197-28.022-11.45-34.346-12.643-6.32-28.022-1.197-34.346 11.45l-2.702 5.405v-838.757h838.757l-5.405 2.702c-12.645 6.322-17.771 21.699-11.448 34.346 6.322 12.645 21.699 17.771 34.346 11.448l102.4-51.2c10.619-5.309 16.194-17.224 13.467-28.778-2.73-11.555-13.043-19.718-24.917-19.718zM870.4 742.4c0 42.347-34.451 76.8-76.8 76.8s-76.8-34.453-76.8-76.8c0-24.576 11.618-46.477 29.634-60.544l-107.832-323.491c-14.336-0.258-27.722-4.453-39.123-11.565l-142.958 114.368c2.762 7.909 4.28 16.394 4.28 25.232 0 42.347-34.453 76.8-76.8 76.8s-76.8-34.453-76.8-76.8c0-20.669 8.221-39.442 21.547-53.261l-88.872-177.746c-3.107 0.384-6.266 0.606-9.475 0.606-42.347 0-76.8-34.451-76.8-76.8s34.453-76.8 76.8-76.8 76.8 34.451 76.8 76.8c0 20.669-8.222 39.442-21.547 53.261l88.872 177.746c3.107-0.384 6.266-0.606 9.475-0.606 14.866 0 28.749 4.258 40.52 11.6l142.958-114.366c-2.76-7.91-4.278-16.397-4.278-25.234 0-42.349 34.451-76.8 76.8-76.8s76.8 34.451 76.8 76.8c0 24.576-11.618 46.478-29.634 60.546l107.832 323.49c41.702 0.75 75.402 34.885 75.402 76.765zM793.6 768c14.115 0 25.6-11.485 25.6-25.6s-11.485-25.6-25.6-25.6-25.6 11.485-25.6 25.6 11.485 25.6 25.6 25.6zM384 512c14.115 0 25.6-11.485 25.6-25.6s-11.485-25.6-25.6-25.6-25.6 11.485-25.6 25.6 11.485 25.6 25.6 25.6zM230.4 153.6c-14.115 0-25.6 11.485-25.6 25.6s11.485 25.6 25.6 25.6 25.6-11.485 25.6-25.6-11.485-25.6-25.6-25.6zM640 256c-14.115 0-25.6 11.485-25.6 25.6s11.485 25.6 25.6 25.6 25.6-11.485 25.6-25.6-11.485-25.6-25.6-25.6z" />
<glyph unicode="&#xe7fb;" glyph-name="chart-growth" d="M179.2-51.2h-153.6c-14.138 0-25.6 11.461-25.6 25.6v358.4c0 14.139 11.462 25.6 25.6 25.6h153.6c14.138 0 25.6-11.461 25.6-25.6v-358.4c0-14.139-11.462-25.6-25.6-25.6zM51.2 0h102.4v307.2h-102.4v-307.2zM435.2-51.2h-153.6c-14.138 0-25.6 11.461-25.6 25.6v512c0 14.138 11.462 25.6 25.6 25.6h153.6c14.138 0 25.6-11.462 25.6-25.6v-512c0-14.139-11.462-25.6-25.6-25.6zM307.2 0h102.4v460.8h-102.4v-460.8zM691.2-51.2h-153.6c-14.139 0-25.6 11.461-25.6 25.6v460.8c0 14.139 11.461 25.6 25.6 25.6h153.6c14.139 0 25.6-11.461 25.6-25.6v-460.8c0-14.139-11.461-25.6-25.6-25.6zM563.2 0h102.4v409.6h-102.4v-409.6zM947.2-51.2h-153.6c-14.139 0-25.6 11.461-25.6 25.6v665.6c0 14.138 11.461 25.6 25.6 25.6h153.6c14.139 0 25.6-11.462 25.6-25.6v-665.6c0-14.139-11.461-25.6-25.6-25.6zM819.2 0h102.4v614.4h-102.4v-614.4zM914.101 914.101c-6.856 6.858-17.002 9.253-26.197 6.184l-153.6-51.2c-13.413-4.47-20.662-18.968-16.19-32.381 4.47-13.413 18.973-20.662 32.381-16.19l50.723 16.907-219.917-219.915c-10.922-10.922-31.341-12.374-43.701-3.106l-122.88 92.16c-31.966 23.974-81.232 22.934-112.158-2.368l-241.973-197.979c-10.942-8.954-12.555-25.082-3.602-36.024 5.061-6.186 12.414-9.39 19.829-9.39 5.701 0 11.438 1.896 16.197 5.787l241.973 197.978c12.614 10.322 35.978 10.813 49.016 1.035l122.88-92.16c32.933-24.699 81.522-21.242 110.624 7.861l219.917 219.917-16.907-50.723c-4.472-13.413 2.778-27.91 16.19-32.381 2.686-0.896 5.416-1.322 8.099-1.322 10.718 0 20.707 6.784 24.283 17.512l51.2 153.6c3.066 9.202 0.67 19.342-6.187 26.198z" />
<glyph unicode="&#xe80a;" glyph-name="linearicons" d="M998.4 153.6h-25.6c-29.667 0-51.2-32.299-51.2-76.8 0-14.115-11.485-25.6-25.6-25.6s-25.6 11.485-25.6 25.6v51.2c0 14.139-11.461 25.6-25.6 25.6-7.074 0-13.475-2.869-18.109-7.504-10.027 4.806-21.248 7.504-33.091 7.504-42.349 0-76.8-34.451-76.8-76.8 0-8.974 1.563-17.587 4.403-25.6h-55.603c-20.762 0-52.194 14.162-65.949 29.71l-53.472 60.445 471.395 532.882c8.221 9.294 8.459 22.888 1.238 32.41l-153.533 204.714c-4.834 6.446-12.422 10.24-20.48 10.24h-665.6c-8.058 0-15.645-3.794-20.48-10.24l-153.539-204.718c-7.216-9.522-6.974-23.112 1.245-32.403l471.395-532.882-53.472-60.446c-14.802-16.733-40.723-29.71-53.149-29.71h-12.8v25.6c0 42.349-34.453 76.8-76.8 76.8-14.413 0-27.906-3.998-39.442-10.931-6.52 6.925-14.97 10.931-24.558 10.931-15.762 0-27.496-12.459-35.957-23.314-7.773-9.97-15.813-22.981-22.638-36.634l-5.405-10.81v45.157c0 14.139-11.462 25.6-25.6 25.6s-25.6-11.461-25.6-25.6v-51.2c0-14.115-11.485-25.6-25.6-25.6s-25.6 11.485-25.6 25.6v153.6c0 14.139-11.462 25.6-25.6 25.6s-25.6-11.461-25.6-25.6v-153.6c0-42.347 34.453-76.8 76.8-76.8 14.413 0 27.906 3.998 39.442 10.933 6.518-6.926 14.97-10.933 24.558-10.933 15.762 0 27.496 12.459 35.957 23.314 7.773 9.97 15.813 22.981 22.638 36.634l5.405 10.81v-45.157c0-14.139 11.462-25.6 25.6-25.6s25.6 11.461 25.6 25.6v51.2c0 14.115 11.485 25.6 25.6 25.6s25.6-11.485 25.6-25.6v-51.2c0-14.139 11.462-25.6 25.6-25.6h38.4c28.467 0 67.803 20.2 91.498 46.986l49.302 55.733 49.301-55.731c23.696-26.787 68.534-46.987 104.299-46.987h128c19.654 0 37.602 7.43 51.2 19.618 13.598-12.187 31.546-19.618 51.2-19.618 42.349 0 76.8 34.451 76.8 76.8 0 12.749 3.099 21.594 5.278 25.6h20.322c14.139 0 25.6 11.461 25.6 25.6s-11.461 25.6-25.6 25.6zM58.6 692.533l133.4 177.867h640l133.4-177.867-453.4-512.539-453.4 512.539zM793.6 51.2c-14.115 0-25.6 11.485-25.6 25.6s11.485 25.6 25.6 25.6 25.6-11.485 25.6-25.6-11.485-25.6-25.6-25.6zM128 204.8c6.736 0 13.344 2.736 18.096 7.504 4.768 4.768 7.504 11.36 7.504 18.096s-2.736 13.328-7.504 18.098c-4.752 4.766-11.36 7.502-18.096 7.502s-13.328-2.736-18.096-7.502c-4.768-4.754-7.504-11.362-7.504-18.098s2.736-13.344 7.504-18.096c4.768-4.768 11.36-7.504 18.096-7.504z" />
<glyph unicode="&#xe83a;" glyph-name="briefcase" d="M947.2 716.8h-230.4v76.8c0 42.347-34.453 76.8-76.8 76.8h-256c-42.347 0-76.8-34.453-76.8-76.8v-76.8h-230.4c-42.347 0-76.8-34.453-76.8-76.8v-563.2c0-42.349 34.453-76.8 76.8-76.8h870.4c42.349 0 76.8 34.451 76.8 76.8v563.2c0 42.347-34.451 76.8-76.8 76.8zM358.4 793.6c0 14.115 11.485 25.6 25.6 25.6h256c14.115 0 25.6-11.485 25.6-25.6v-76.8h-307.2v76.8zM76.8 665.6h870.4c14.115 0 25.6-11.485 25.6-25.6v-384h-102.4v25.6c0 14.139-11.461 25.6-25.6 25.6h-102.4c-14.139 0-25.6-11.461-25.6-25.6v-25.6h-409.6v25.6c0 14.139-11.462 25.6-25.6 25.6h-102.4c-14.138 0-25.6-11.461-25.6-25.6v-25.6h-102.4v384c0 14.115 11.485 25.6 25.6 25.6zM819.2 256v-51.2h-51.2v51.2h51.2zM256 256v-51.2h-51.2v51.2h51.2zM947.2 51.2h-870.4c-14.115 0-25.6 11.485-25.6 25.6v128h102.4v-25.6c0-14.139 11.462-25.6 25.6-25.6h102.4c14.138 0 25.6 11.461 25.6 25.6v25.6h409.6v-25.6c0-14.139 11.461-25.6 25.6-25.6h102.4c14.139 0 25.6 11.461 25.6 25.6v25.6h102.4v-128c0-14.115-11.485-25.6-25.6-25.6z" />
<glyph unicode="&#xe874;" glyph-name="cube" d="M972.683 744.72c-0.022 0.242-0.051 0.48-0.080 0.72-0.066 0.546-0.149 1.088-0.248 1.626-0.043 0.238-0.082 0.478-0.131 0.714-0.149 0.693-0.323 1.378-0.526 2.051-0.077 0.251-0.168 0.494-0.251 0.741-0.155 0.458-0.317 0.909-0.498 1.355-0.112 0.282-0.23 0.56-0.352 0.835-0.202 0.456-0.421 0.904-0.648 1.347-0.106 0.206-0.205 0.419-0.315 0.622-0.339 0.616-0.706 1.214-1.094 1.8-0.125 0.189-0.259 0.371-0.39 0.557-0.306 0.437-0.626 0.866-0.96 1.283-0.142 0.178-0.285 0.355-0.432 0.53-0.426 0.504-0.867 0.994-1.331 1.464-0.051 0.054-0.099 0.11-0.154 0.165-0.523 0.522-1.074 1.016-1.643 1.493-0.155 0.13-0.315 0.251-0.474 0.378-0.422 0.336-0.854 0.662-1.299 0.973-0.205 0.142-0.408 0.285-0.616 0.422-0.462 0.302-0.936 0.589-1.421 0.862-0.173 0.099-0.341 0.206-0.517 0.301-0.555 0.298-1.123 0.578-1.706 0.835l-0.366 0.163c-0.034 0.014-0.066 0.030-0.099 0.043l-460.334 204.594c-6.619 2.942-14.174 2.942-20.794 0l-460.338-204.595c-0.030-0.013-0.061-0.027-0.091-0.040l-0.371-0.165c-0.582-0.259-1.152-0.539-1.709-0.837-0.171-0.093-0.334-0.198-0.504-0.294-0.488-0.277-0.966-0.565-1.434-0.87-0.205-0.134-0.406-0.275-0.606-0.416-0.45-0.314-0.885-0.64-1.31-0.979-0.155-0.125-0.314-0.245-0.467-0.371-0.57-0.478-1.123-0.974-1.646-1.498-0.050-0.050-0.094-0.102-0.142-0.152-0.467-0.475-0.914-0.968-1.342-1.477-0.144-0.171-0.285-0.347-0.426-0.523-0.336-0.421-0.658-0.851-0.966-1.293-0.13-0.184-0.262-0.363-0.387-0.55-0.389-0.586-0.757-1.186-1.096-1.803-0.11-0.2-0.206-0.408-0.31-0.613-0.23-0.446-0.45-0.898-0.653-1.357-0.122-0.274-0.237-0.552-0.35-0.832-0.181-0.448-0.344-0.902-0.499-1.362-0.083-0.246-0.174-0.488-0.25-0.736-0.203-0.674-0.378-1.358-0.528-2.051-0.050-0.235-0.088-0.475-0.133-0.714-0.099-0.538-0.182-1.078-0.248-1.626-0.029-0.24-0.058-0.478-0.080-0.72-0.067-0.768-0.115-1.539-0.115-2.32v-563.2c0-10.117 5.958-19.285 15.203-23.394l460.8-204.8c0.045-0.021 0.093-0.034 0.138-0.053 0.667-0.293 1.354-0.549 2.051-0.784 0.131-0.043 0.258-0.099 0.389-0.142 0.792-0.253 1.6-0.469 2.422-0.645 0.040-0.010 0.080-0.022 0.122-0.032 1.702-0.357 3.467-0.55 5.275-0.55s3.573 0.194 5.275 0.55c0.040 0.010 0.080 0.022 0.122 0.032 0.822 0.176 1.63 0.39 2.422 0.645 0.133 0.042 0.261 0.099 0.392 0.142 0.696 0.235 1.381 0.493 2.048 0.784 0.045 0.021 0.093 0.034 0.138 0.053l460.8 204.8c9.245 4.109 15.203 13.277 15.203 23.394v563.2c0 0.781-0.046 1.552-0.117 2.32zM486.4 919.186l397.766-176.786-397.766-176.786-397.766 176.786 397.766 176.786zM51.2 703.008l409.6-182.045v-507.171l-409.6 182.045v507.171zM512 13.792v507.171l409.6 182.045v-507.17l-409.6-182.046z" />
<glyph unicode="&#xe880;" glyph-name="icons2" d="M179.2 0h-102.4c-42.347 0-76.8 34.453-76.8 76.8v102.4c0 42.347 34.453 76.8 76.8 76.8h102.4c42.347 0 76.8-34.453 76.8-76.8v-102.4c0-42.347-34.453-76.8-76.8-76.8zM76.8 204.8c-14.115 0-25.6-11.485-25.6-25.6v-102.4c0-14.115 11.485-25.6 25.6-25.6h102.4c14.115 0 25.6 11.485 25.6 25.6v102.4c0 14.115-11.485 25.6-25.6 25.6h-102.4zM537.6 0h-102.4c-42.347 0-76.8 34.453-76.8 76.8v102.4c0 42.347 34.453 76.8 76.8 76.8h102.4c42.347 0 76.8-34.453 76.8-76.8v-102.4c0-42.347-34.453-76.8-76.8-76.8zM435.2 204.8c-14.115 0-25.6-11.485-25.6-25.6v-102.4c0-14.115 11.485-25.6 25.6-25.6h102.4c14.115 0 25.6 11.485 25.6 25.6v102.4c0 14.115-11.485 25.6-25.6 25.6h-102.4zM896 0h-102.4c-42.347 0-76.8 34.453-76.8 76.8v102.4c0 42.347 34.453 76.8 76.8 76.8h102.4c42.347 0 76.8-34.453 76.8-76.8v-102.4c0-42.347-34.453-76.8-76.8-76.8zM793.6 204.8c-14.115 0-25.6-11.485-25.6-25.6v-102.4c0-14.115 11.485-25.6 25.6-25.6h102.4c14.115 0 25.6 11.485 25.6 25.6v102.4c0 14.115-11.485 25.6-25.6 25.6h-102.4zM179.2 358.4h-102.4c-42.347 0-76.8 34.453-76.8 76.8v102.4c0 42.347 34.453 76.8 76.8 76.8h102.4c42.347 0 76.8-34.453 76.8-76.8v-102.4c0-42.347-34.453-76.8-76.8-76.8zM76.8 563.2c-14.115 0-25.6-11.485-25.6-25.6v-102.4c0-14.115 11.485-25.6 25.6-25.6h102.4c14.115 0 25.6 11.485 25.6 25.6v102.4c0 14.115-11.485 25.6-25.6 25.6h-102.4zM537.6 358.4h-102.4c-42.347 0-76.8 34.453-76.8 76.8v102.4c0 42.347 34.453 76.8 76.8 76.8h102.4c42.347 0 76.8-34.453 76.8-76.8v-102.4c0-42.347-34.453-76.8-76.8-76.8zM435.2 563.2c-14.115 0-25.6-11.485-25.6-25.6v-102.4c0-14.115 11.485-25.6 25.6-25.6h102.4c14.115 0 25.6 11.485 25.6 25.6v102.4c0 14.115-11.485 25.6-25.6 25.6h-102.4zM896 358.4h-102.4c-42.347 0-76.8 34.453-76.8 76.8v102.4c0 42.347 34.453 76.8 76.8 76.8h102.4c42.347 0 76.8-34.453 76.8-76.8v-102.4c0-42.347-34.453-76.8-76.8-76.8zM793.6 563.2c-14.115 0-25.6-11.485-25.6-25.6v-102.4c0-14.115 11.485-25.6 25.6-25.6h102.4c14.115 0 25.6 11.485 25.6 25.6v102.4c0 14.115-11.485 25.6-25.6 25.6h-102.4zM179.2 716.8h-102.4c-42.347 0-76.8 34.453-76.8 76.8v102.4c0 42.347 34.453 76.8 76.8 76.8h102.4c42.347 0 76.8-34.453 76.8-76.8v-102.4c0-42.347-34.453-76.8-76.8-76.8zM76.8 921.6c-14.115 0-25.6-11.485-25.6-25.6v-102.4c0-14.115 11.485-25.6 25.6-25.6h102.4c14.115 0 25.6 11.485 25.6 25.6v102.4c0 14.115-11.485 25.6-25.6 25.6h-102.4zM537.6 716.8h-102.4c-42.347 0-76.8 34.453-76.8 76.8v102.4c0 42.347 34.453 76.8 76.8 76.8h102.4c42.347 0 76.8-34.453 76.8-76.8v-102.4c0-42.347-34.453-76.8-76.8-76.8zM435.2 921.6c-14.115 0-25.6-11.485-25.6-25.6v-102.4c0-14.115 11.485-25.6 25.6-25.6h102.4c14.115 0 25.6 11.485 25.6 25.6v102.4c0 14.115-11.485 25.6-25.6 25.6h-102.4zM896 716.8h-102.4c-42.347 0-76.8 34.453-76.8 76.8v102.4c0 42.347 34.453 76.8 76.8 76.8h102.4c42.347 0 76.8-34.453 76.8-76.8v-102.4c0-42.347-34.453-76.8-76.8-76.8zM793.6 921.6c-14.115 0-25.6-11.485-25.6-25.6v-102.4c0-14.115 11.485-25.6 25.6-25.6h102.4c14.115 0 25.6 11.485 25.6 25.6v102.4c0 14.115-11.485 25.6-25.6 25.6h-102.4z" />
<glyph unicode="&#xe883;" glyph-name="site-map" d="M870.4 304.626v79.374c0 42.349-34.451 76.8-76.8 76.8h-281.6v104.976c58.355 11.893 102.4 63.61 102.4 125.424 0 70.579-57.421 128-128 128s-128-57.421-128-128c0-61.814 44.045-113.531 102.4-125.424v-104.976h-281.6c-42.347 0-76.8-34.451-76.8-76.8v-79.374c-58.355-11.894-102.4-63.611-102.4-125.426 0-70.579 57.421-128 128-128s128 57.421 128 128c0 61.814-44.045 113.531-102.4 125.426v79.374c0 14.115 11.485 25.6 25.6 25.6h281.6v-104.974c-58.355-11.894-102.4-63.611-102.4-125.426 0-70.579 57.421-128 128-128s128 57.421 128 128c0 61.814-44.045 113.531-102.4 125.426v104.974h281.6c14.115 0 25.6-11.485 25.6-25.6v-79.374c-58.355-11.894-102.4-63.611-102.4-125.426 0-70.579 57.421-128 128-128s128 57.421 128 128c0 61.814-44.045 113.531-102.4 125.426zM409.6 691.2c0 42.347 34.453 76.8 76.8 76.8s76.8-34.453 76.8-76.8-34.453-76.8-76.8-76.8c-42.347 0-76.8 34.453-76.8 76.8zM204.8 179.2c0-42.347-34.453-76.8-76.8-76.8s-76.8 34.453-76.8 76.8 34.453 76.8 76.8 76.8 76.8-34.453 76.8-76.8zM563.2 179.2c0-42.347-34.453-76.8-76.8-76.8s-76.8 34.453-76.8 76.8 34.453 76.8 76.8 76.8c42.347 0 76.8-34.453 76.8-76.8zM844.8 102.4c-42.347 0-76.8 34.453-76.8 76.8s34.453 76.8 76.8 76.8 76.8-34.453 76.8-76.8-34.453-76.8-76.8-76.8z" />
<glyph unicode="&#xe8b4;" glyph-name="mute" d="M554.725 710.229c-10.507 9.459-26.694 8.606-36.154-1.902l-57.771-64.192v111.066c0 36.877-21.853 53.384-43.509 53.384-12.64 0-25.318-5.33-37.682-15.838l-209.819-178.346h-92.99c-42.347 0-76.8-34.453-76.8-76.8v-204.8c0-42.349 34.453-76.8 76.8-76.8h34.68l-53.707-59.675c-9.459-10.509-8.606-26.696 1.902-36.154 4.893-4.403 11.016-6.571 17.117-6.571 7.005 0 13.982 2.858 19.037 8.475l79.95 88.834 203.83-173.254c12.363-10.509 25.040-15.838 37.68-15.838 0 0 0 0 0.002 0 13.931 0 26.429 6.762 34.288 18.55 6.118 9.178 9.221 20.898 9.221 34.834v452.398l95.829 106.475c9.458 10.51 8.605 26.696-1.904 36.155zM409.6 751.040v-163.795l-204.8-227.554v217.27l204.8 174.078zM51.2 332.8v204.8c0 14.115 11.485 25.6 25.6 25.6h76.8v-256h-76.8c-14.115 0-25.6 11.485-25.6 25.6zM409.6 119.358l-199.557 169.622 199.557 221.728v-391.35z" />
<glyph unicode="&#xe8f5;" glyph-name="download2" d="M760.499 478.899c-9.995 9.997-26.206 9.997-36.203 0l-212.296-212.294v578.195c0 14.138-11.462 25.6-25.6 25.6s-25.6-11.462-25.6-25.6v-578.195l-212.298 212.294c-9.998 9.997-26.206 9.997-36.205 0-9.997-9.995-9.997-26.206 0-36.203l256-256c5-4.997 11.55-7.496 18.102-7.496s13.102 2.499 18.102 7.501l256 256c9.997 9.995 9.997 26.203-0.003 36.198zM896 0h-819.2c-42.347 0-76.8 34.451-76.8 76.8v102.4c0 14.139 11.462 25.6 25.6 25.6s25.6-11.461 25.6-25.6v-102.4c0-14.115 11.485-25.6 25.6-25.6h819.2c14.115 0 25.6 11.485 25.6 25.6v102.4c0 14.139 11.461 25.6 25.6 25.6s25.6-11.461 25.6-25.6v-102.4c0-42.349-34.451-76.8-76.8-76.8z" />
<glyph unicode="&#xe900;" glyph-name="layout" d="M96 64v800h800v-800h-800zM864 832h-736v-544h736v544zM864 256h-736v-160h736v160z" />
<glyph unicode="&#xe901;" glyph-name="layout2" d="M96 832v-800h800v800h-800zM352 64h-224v224h224v-224zM352 320h-224v224h224v-224zM352 576h-224v224h224v-224zM608 64h-224v224h224v-224zM608 320h-224v224h224v-224zM608 576h-224v224h224v-224zM864 64h-224v224h224v-224zM864 320h-224v224h224v-224zM864 576h-224v224h224v-224z" />
<glyph unicode="&#xe902;" glyph-name="layout3" d="M96 832v-800h800v800h-800zM864 64h-736v224h736v-224zM864 320h-736v224h736v-224zM864 576h-736v224h736v-224z" />
<glyph unicode="&#xe903;" glyph-name="layout4" d="M96 832v-800h800v800h-800zM352 64h-224v736h224v-736zM608 64h-224v736h224v-736zM864 64h-224v736h224v-736z" />
<glyph unicode="&#xe904;" glyph-name="search" d="M1014.88 33.504c12.192-12.192 12.192-31.968 0-44.192l-44.192-44.192c-12.224-12.192-32-12.192-44.192 0l-309.376 309.376c-3.36 3.36-5.6 7.328-7.104 11.552-63.456-46.368-141.376-74.048-226.016-74.048-212.064 0-384 171.936-384 384s171.936 384 384 384c212.064 0 384-171.936 384-384 0-84.64-27.68-162.56-74.048-226.016 4.224-1.504 8.192-3.712 11.552-7.104l309.376-309.376zM384 832c-141.376 0-256-114.624-256-256s114.624-256 256-256 256 114.624 256 256c0 141.376-114.624 256-256 256z" />
<glyph unicode="&#xe905;" glyph-name="triangle-down" horiz-adv-x="767" d="M0 576l383.75-383.75 383.75 383.75h-767.5z" />
<glyph unicode="&#xe906;" glyph-name="binoculars" d="M64 960h384v-64h-384zM576 960h384v-64h-384zM952 640h-56v256h-256v-256h-256v256h-256v-256h-56c-39.6 0-72-32.4-72-72v-560c0-39.6 32.4-72 72-72h304c39.6 0 72 32.4 72 72v376h128v-376c0-39.6 32.4-72 72-72h304c39.6 0 72 32.4 72 72v560c0 39.6-32.4 72-72 72zM348 0h-248c-19.8 0-36 14.4-36 32s16.2 32 36 32h248c19.8 0 36-14.4 36-32s-16.2-32-36-32zM544 448h-64c-17.6 0-32 14.4-32 32s14.4 32 32 32h64c17.6 0 32-14.4 32-32s-14.4-32-32-32zM924 0h-248c-19.8 0-36 14.4-36 32s16.2 32 36 32h248c19.8 0 36-14.4 36-32s-16.2-32-36-32z" />
<glyph unicode="&#xe907;" glyph-name="cog" d="M933.79 349.75c-53.726 93.054-21.416 212.304 72.152 266.488l-100.626 174.292c-28.75-16.854-62.176-26.518-97.846-26.518-107.536 0-194.708 87.746-194.708 195.99h-201.258c0.266-33.41-8.074-67.282-25.958-98.252-53.724-93.056-173.156-124.702-266.862-70.758l-100.624-174.292c28.97-16.472 54.050-40.588 71.886-71.478 53.638-92.908 21.512-211.92-71.708-266.224l100.626-174.292c28.65 16.696 61.916 26.254 97.4 26.254 107.196 0 194.144-87.192 194.7-194.958h201.254c-0.086 33.074 8.272 66.57 25.966 97.218 53.636 92.906 172.776 124.594 266.414 71.012l100.626 174.29c-28.78 16.466-53.692 40.498-71.434 71.228zM512 240.668c-114.508 0-207.336 92.824-207.336 207.334 0 114.508 92.826 207.334 207.336 207.334 114.508 0 207.332-92.826 207.332-207.334-0.002-114.51-92.824-207.334-207.332-207.334z" />
<glyph unicode="&#xe908;" glyph-name="pen" d="M1024 800c0 88.366-71.634 160-160 160-52.348 0-98.818-25.144-128.008-64.008l-575.992-575.992 224-224 575.992 575.992c38.864 29.19 64.008 75.66 64.008 128.008zM0-64l96 320 224-224z" />
<glyph unicode="&#xe909;" glyph-name="arrow-down" d="M1024 608l-128 128-384-384-384 384-128-128 511.998-512 512.002 512z" />
<glyph unicode="&#xe90a;" glyph-name="bar-graph" d="M870.4 921.6h-102.4c-28.262 0-51.2-22.886-51.2-51.2v-869.99h204.8v869.99c0 28.314-22.886 51.2-51.2 51.2zM563.2 614.4h-102.4c-28.262 0-51.2-22.886-51.2-51.2v-562.79h204.8v562.79c0 28.314-22.886 51.2-51.2 51.2zM256 307.2h-102.4c-28.262 0-51.2-22.886-51.2-51.2v-255.59h204.8v255.59c0 28.314-22.886 51.2-51.2 51.2z" />
<glyph unicode="&#xe90b;" glyph-name="sort-asc, sort-up" horiz-adv-x="585" d="M778.24 571.977c0-20.48-20.48-40.96-40.96-40.96h-655.36c-20.48 0-40.96 20.48-40.96 40.96s0 20.48 10.24 30.72l327.68 327.68c10.24 10.24 20.48 20.48 30.72 20.48s20.48-10.24 30.72-10.24l327.68-327.68c10.24-10.24 10.24-20.48 10.24-40.96z" />
<glyph unicode="&#xe90c;" glyph-name="sort-desc, sort-down" horiz-adv-x="585" d="M778.24 305.737c0-10.24 0-20.48-10.24-30.72l-327.68-337.92c-10.24-10.24-20.48-10.24-30.72-10.24s-20.48 0-30.72 10.24l-327.68 327.68c-10.24 10.24-10.24 20.48-10.24 30.72 0 20.48 20.48 40.96 40.96 40.96h645.12c30.72 10.24 51.2-10.24 51.2-30.72z" />
<glyph unicode="&#xe90d;" glyph-name="filter" d="M0 832l384-384v-384l256 64v320l384 384z" />
<glyph unicode="&#xe90e;" glyph-name="equalizer" d="M896 512h16c26.4 0 48 21.6 48 48v160c0 26.4-21.6 48-48 48h-16v192h-128v-192h-16c-26.4 0-48-21.6-48-48v-160c0-26.4 21.6-48 48-48h16v-576h128v576zM768 704h128v-128h-128v128zM592 128c26.4 0 48 21.6 48 48v160c0 26.4-21.6 48-48 48h-16v576h-128v-576h-16c-26.4 0-48-21.6-48-48v-160c0-26.4 21.6-48 48-48h16v-192h128v192h16zM448 320h128v-128h-128v128zM272 512c26.4 0 48 21.6 48 48v160c0 26.4-21.6 48-48 48h-16v192h-128v-192h-16c-26.4 0-48-21.6-48-48v-160c0-26.4 21.6-48 48-48h16v-576h128v576h16zM128 704h128v-128h-128v128z" />
<glyph unicode="&#xe90f;" glyph-name="pie-chart2" d="M448 384v448c-247.424 0-448-200.576-448-448s200.576-448 448-448 448 200.576 448 448c0 72.034-17.028 140.084-47.236 200.382l-400.764-200.382zM912.764 712.382c-73.552 146.816-225.374 247.618-400.764 247.618v-448l400.764 200.382z" />
<glyph unicode="&#xe910;" glyph-name="question" d="M512-64c-282.75 0-512 229.218-512 512 0 282.75 229.25 512 512 512s512-229.25 512-512c0-282.782-229.25-512-512-512zM512 832c-212.062 0-384-171.938-384-384s171.938-384 384-384 384 171.938 384 384-171.938 384-384 384zM512 704c-106.062 0-192-85.968-192-192h128c0 35.344 28.624 64 64 64s64-28.656 64-64-28.624-64-64-64c-2.45 0-10.216 0-32 0-17.688 0-32-14.344-32-32v-96h128v11.75c74.376 26.438 128 96.782 128 180.25 0 106.032-85.938 192-192 192zM512 256h-64v-64h128v64z" />
<glyph unicode="&#xe911;" glyph-name="calendar" d="M320 576h128v-128h-128zM512 576h128v-128h-128zM704 576h128v-128h-128zM128 192h128v-128h-128zM320 192h128v-128h-128zM512 192h128v-128h-128zM320 384h128v-128h-128zM512 384h128v-128h-128zM704 384h128v-128h-128zM128 384h128v-128h-128zM832 960v-64h-128v64h-448v-64h-128v64h-128v-1024h960v1024h-128zM896 0h-832v704h832v-704z" />
<glyph unicode="&#xe912;" glyph-name="labs" d="M567.245 931.584c0-15.665-12.699-28.365-28.365-28.365s-28.365 12.699-28.365 28.365c0 15.665 12.699 28.365 28.365 28.365s28.365-12.699 28.365-28.365zM554.598 413.85c0-15.213-12.333-27.546-27.546-27.546s-27.546 12.333-27.546 27.546c0 15.213 12.333 27.546 27.546 27.546s27.546-12.333 27.546-27.546zM597.043 250.675c0-15.27-12.378-27.648-27.648-27.648s-27.648 12.378-27.648 27.648c0 15.27 12.378 27.648 27.648 27.648s27.648-12.378 27.648-27.648zM511.181 849.51c0-25.732-20.86-46.592-46.592-46.592s-46.592 20.86-46.592 46.592c0 25.732 20.86 46.592 46.592 46.592s46.592-20.86 46.592-46.592zM617.779 819.046c0-17.447-14.144-31.59-31.59-31.59s-31.59 14.144-31.59 31.59c0 17.447 14.144 31.59 31.59 31.59s31.59-14.144 31.59-31.59zM481.178 281.19c0-17.447-14.144-31.59-31.59-31.59s-31.59 14.144-31.59 31.59c0 17.447 14.144 31.59 31.59 31.59s31.59-14.144 31.59-31.59zM741.632-64c-153.088 0-306.176 0-459.315 0-68.25 0-111.462 15.411-127.846 45.824-20.326 37.683 9.318 80.845 10.496 82.688 87.859 140.083 170.394 280.166 247.45 420.25 1.075 63.488 2.15 126.976 3.226 190.464-2.048 0.87-6.4 1.69-9.421 2.253-9.114 1.792-20.48 3.942-29.184 12.851-1.69 1.741-2.97 3.84-3.84 6.144-6.963 18.79-6.246 51.302-6.195 54.989 0.256 10.035 8.038 18.125 17.357 18.125 84.992 0 169.984 0 254.976 0 9.37 0 17.101-8.141 17.357-18.125 0.051-3.635 0.768-36.198-6.195-54.938-0.87-2.304-2.15-4.403-3.84-6.144-8.704-8.96-20.070-11.11-29.133-12.851-3.021-0.563-7.373-1.434-9.523-2.304 1.075-63.488 2.15-126.976 3.277-190.464 77.312-140.339 160-280.627 248.166-420.966 0.717-1.075 30.31-44.237 10.035-81.971-16.384-30.413-59.546-45.824-127.846-45.824zM403.661 715.469c2.662-0.922 6.554-1.638 9.267-2.15 11.725-2.253 33.638-6.451 37.069-32.563 0.102-0.922 0.154-1.843 0.102-2.714-0.717-65.997-1.434-131.942-2.15-197.99-0.051-3.021-0.819-6.042-2.253-8.704-77.363-141.67-160.205-283.341-248.576-425.011-0.614-0.973-18.33-28.058-7.987-46.848 9.626-17.51 43.264-27.136 94.566-27.136 152.218 0 304.435 0 456.653 0 51.405 0 85.094 9.677 94.618 27.29 10.189 18.739-7.424 45.722-7.578 45.926-88.627 141.926-171.725 283.853-249.242 425.779-1.434 2.662-2.202 5.683-2.253 8.704-0.717 65.997-1.434 131.994-2.15 197.939 0 0.922 0.051 1.792 0.154 2.662 3.379 26.112 25.293 30.31 37.069 32.563 2.662 0.512 6.605 1.28 9.216 2.15 1.126 5.069 1.843 11.52 2.253 17.818-73.626 0-147.302 0-220.928 0 0.358-6.298 1.024-12.749 2.15-17.715zM714.854 206.438c-0.051 0-36.403 11.418-74.547-5.376-28.262-12.544-57.856-54.374-75.418-55.654-32.614-2.406-95.386 42.803-149.914 58.368-56.576 16.077-105.83 2.662-105.933 2.662-49.664-81.766-95.386-153.088-95.539-153.344-0.102-0.154-9.37-14.029-10.035-28.211-0.205-4.915 0.563-9.83 3.072-14.234 9.216-16.128 41.011-25.037 89.549-25.037 143.974 0 287.898 0 431.872 0 48.486 0 80.333 8.909 89.549 25.037 2.509 4.403 3.328 9.318 3.123 14.182-0.717 14.234-10.035 28.262-10.496 28.826-32.512 50.944-64.307 101.837-95.283 152.781z" />
<glyph unicode="&#xe913;" glyph-name="tagcloud" horiz-adv-x="1087" d="M946.699 347.024c-19.951 0-38.923-4.295-56.101-11.851l-36.911 55.34c54.796 48.925 89.478 119.866 89.478 198.907 0 147.21-119.757 266.967-266.967 266.967-101.003 0-189.122-56.481-234.459-139.382l-164.714 70.561c2.446 10.274 4.023 20.929 4.023 31.91-0.054 77.465-63.059 140.523-140.523 140.523s-140.523-63.059-140.523-140.523 63.059-140.469 140.523-140.469c46.37 0 87.195 22.832 112.799 57.568l166.943-71.539c-7.067-23.973-11.035-49.36-11.035-75.616 0-72.898 29.464-139.056 76.975-187.22l-122.041-146.449c-22.451 11.090-47.62 17.504-74.366 17.504-92.957 0-168.628-75.616-168.628-168.628 0-92.957 75.616-168.628 168.628-168.628s168.628 75.671 168.628 168.628c0 45.989-18.537 87.684-48.49 118.127l119.757 143.731c42.13-27.779 92.414-44.087 146.558-44.087 48.001 0 92.903 12.884 131.88 35.117l36.639-54.959c-23.756-25.169-38.542-58.873-38.542-96.11 0-77.465 63.059-140.523 140.523-140.523s140.469 63.113 140.469 140.578c0 77.465-63.059 140.523-140.523 140.523zM140.523 735.163c-46.533 0-84.314 37.727-84.314 84.314s37.781 84.314 84.314 84.314c46.533 0 84.314-37.727 84.314-84.314s-37.781-84.314-84.314-84.314zM289.799-7.791c-62.080 0-112.419 50.338-112.419 112.419s50.338 112.419 112.419 112.419 112.419-50.338 112.419-112.419c0-62.026-50.338-112.419-112.419-112.419zM465.44 589.42c0 116.441 94.317 210.758 210.758 210.758s210.758-94.371 210.758-210.758-94.317-210.758-210.758-210.758c-116.441 0-210.758 94.317-210.758 210.758zM946.699 122.187c-46.533 0-84.314 37.727-84.314 84.314s37.781 84.314 84.314 84.314c46.533 0 84.314-37.727 84.314-84.314 0-46.533-37.781-84.314-84.314-84.314z" />
<glyph unicode="&#xe914;" glyph-name="folder, directory, category, browse" d="M421.49 768l128-128h410.51v-576h-896v704h357.49zM448 832h-448v-832h1024v704h-448l-128 128z" />
<glyph unicode="&#xe915;" glyph-name="folder-subfolders" d="M1023.949 701.85c-0.922 35.686-29.030 64.41-63.59 64.41h-123.699c-12.493 14.592-45.568 53.146-61.286 71.68-20.275 23.962-45.824 49.51-93.184 49.51h-381.952c-35.123 0-63.693-29.747-63.693-66.304v-51.968h-54.63c-35.123 0-63.693-29.747-63.693-66.304v-51.917h-54.528c-35.123 0-63.693-29.747-63.693-66.304v-509.85c0-36.608 28.57-66.253 63.693-66.253h660.224c35.123 0 63.642 29.645 63.642 66.253v51.968h54.579c35.174 0 63.642 29.696 63.642 66.304v51.968h54.579c35.174 0 63.642 29.696 63.642 66.253v390.502l-0.051 0.051zM269.312 618.138h176.333c30.362 0 47.36-13.312 68.147-37.837 19.558-23.142 65.946-77.056 66.355-77.619 3.123-3.635 7.629-5.683 12.442-5.683h131.226c16.998 0 30.822-15.002 30.822-33.434v-388.762c0-18.432-13.824-33.434-30.822-33.434h-660.122c-16.998 0-30.822 15.002-30.822 33.434v509.85c0 18.432 13.824 33.434 30.822 33.434h205.619zM872.909 244.992v-51.968c0-18.432-13.824-33.434-30.822-33.434h-54.579v305.818c-0.973 35.686-29.082 64.41-63.642 64.41h-123.699c-12.493 14.592-45.568 53.094-61.286 71.68-20.275 23.962-45.824 49.51-93.184 49.51h-294.605v51.866c0 18.483 13.875 33.485 30.874 33.485h381.901c30.413 0 47.36-13.312 68.147-37.888 19.558-23.142 65.894-77.056 66.355-77.619 3.123-3.635 7.629-5.683 12.442-5.683h131.226c16.998 0 30.822-15.002 30.822-33.434v-336.742zM991.13 311.296c0-18.432-13.824-33.434-30.822-33.434h-54.579v305.715h-0.051c-0.922 35.686-29.030 64.461-63.59 64.461h-123.699c-12.493 14.541-45.568 53.146-61.286 71.68-20.275 23.91-45.875 49.459-93.235 49.459h-294.554v51.968c0 18.483 13.875 33.434 30.874 33.434h381.952c30.362 0 47.36-13.312 68.147-37.837 19.558-23.142 65.894-77.056 66.355-77.619 3.174-3.635 7.629-5.683 12.442-5.683h131.226c16.998 0 30.822-15.002 30.822-33.434v-388.71z" />
<glyph unicode="&#xe916;" glyph-name="arrow-right" d="M384 160l288 288-288 288v-576z" />
<glyph unicode="&#xe917;" glyph-name="link2" d="M546.917 307.288c-48.275 0-96.55 18.376-133.301 55.128-9.998 9.997-9.998 26.206 0 36.203s26.205 9.997 36.203 0c53.539-53.541 140.656-53.541 194.197 0l186.166 186.166c53.539 53.539 53.539 140.656 0 194.197-53.541 53.539-140.656 53.538-194.197 0l-157.082-157.083c-9.998-9.997-26.206-9.997-36.203 0-9.998 9.998-9.998 26.206 0 36.205l157.083 157.083c73.502 73.501 193.101 73.501 266.603 0s73.502-193.101 0-266.603l-186.168-186.168c-36.752-36.752-85.027-55.128-133.302-55.128zM239.717 0.088c-48.275 0-96.55 18.376-133.302 55.128-73.501 73.502-73.501 193.101 0 266.603l186.166 186.166c73.501 73.501 193.101 73.501 266.603 0 9.998-9.998 9.998-26.206 0-36.203-9.997-9.998-26.206-9.998-36.203 0-53.541 53.541-140.656 53.541-194.197 0l-186.165-186.166c-53.539-53.541-53.539-140.656 0-194.197s140.656-53.541 194.195 0l157.083 157.083c9.997 9.997 26.206 9.997 36.203 0 9.998-9.997 9.998-26.206 0-36.203l-157.083-157.083c-36.75-36.752-85.026-55.128-133.301-55.128z" />
<glyph unicode="&#xe918;" glyph-name="cancel-circle" d="M512 960c-282.77 0-512-229.23-512-512s229.23-512 512-512 512 229.23 512 512-229.23 512-512 512zM768 288l-96-96-160 160-160-160-96 96 160 160-160 160 96 96 160-160 160 160 96-96-160-160 160-160z" />
<glyph unicode="&#xe919;" glyph-name="new-tab" d="M704 128h-512v512h288l128 128h-544v-768h768v544l-128-128v-288zM1024 960h-416l160-160-480-480 96-96 480 480 160-160v416z" />
<glyph unicode="&#xe91a;" glyph-name="text" d="M119.501-64l15.565 104.653 142.848 9.882c18.381 1.434 22.63 7.117 25.446 28.314l100.454 726.989h-144.282c-14.131 0-18.381-1.382-22.63-15.565l-39.578-115.968-151.347-7.066 39.578 292.762h892.467l-39.578-292.762-147.098 7.066-5.683 115.968c-1.382 14.131-4.25 15.565-19.814 15.565h-147.098l-100.352-726.989c-2.816-19.814-2.816-25.446 16.998-26.88l152.73-12.749-14.182-103.219h-554.445z" />
<glyph unicode="&#xe91b;" glyph-name="thumbs-up" d="M928 384c73 0 32-192-32-192 32 0 0-160-64-160 0-64-64-96-128-96-270.352 0-175.264 67.65-448 96v512c240.922 72.268 480 253.424 480 416 53 0 192-64 0-384 0 0 160 0 192 0 96 0 64-192 0-192zM192 544v-512h64v-32h-128c-35.2 0-64 43.2-64 96v384c0 52.8 28.8 96 64 96h128v-32h-64z" />
<glyph unicode="&#xe91c;" glyph-name="location" d="M991.59 45.978l-69.99 210.022h-76.8l42.65-204.8h-750.899l42.65 204.8h-76.8l-70.042-210.022c-17.766-53.453 13.722-97.178 70.042-97.178h819.2c56.32 0 87.808 43.725 69.99 97.178zM768 716.8c0 141.363-114.586 256-256 256s-256-114.637-256-256c0-244.48 256-512 256-512s256 267.52 256 512zM373.76 713.728c0 76.339 61.85 138.189 138.24 138.189s138.24-61.85 138.24-138.189c0-76.39-61.901-138.24-138.24-138.24s-138.24 61.901-138.24 138.24z" />
<glyph unicode="&#xe91d;" glyph-name="cross" d="M893.254 738.746l-90.508 90.508-290.746-290.744-290.746 290.744-90.508-90.506 290.746-290.748-290.746-290.746 90.508-90.508 290.746 290.746 290.746-290.746 90.508 90.51-290.744 290.744z" />
<glyph unicode="&#xe91e;" glyph-name="plus" d="M992 576h-352v352c0 17.672-14.328 32-32 32h-192c-17.672 0-32-14.328-32-32v-352h-352c-17.672 0-32-14.328-32-32v-192c0-17.672 14.328-32 32-32h352v-352c0-17.672 14.328-32 32-32h192c17.672 0 32 14.328 32 32v352h352c17.672 0 32 14.328 32 32v192c0 17.672-14.328 32-32 32z" />
<glyph unicode="&#xe91f;" glyph-name="grid" d="M0 960h256v-256h-256zM384 960h256v-256h-256zM768 960h256v-256h-256zM0 576h256v-256h-256zM384 576h256v-256h-256zM768 576h256v-256h-256zM0 192h256v-256h-256zM384 192h256v-256h-256zM768 192h256v-256h-256z" />
<glyph unicode="&#xe920;" glyph-name="menu" d="M64 768h896v-128h-896v128zM64 512h896v-128h-896v128zM64 256h896v-128h-896v128z" />
<glyph unicode="&#xe921;" glyph-name="play2" d="M512 960c-282.77 0-512-229.23-512-512s229.23-512 512-512 512 229.23 512 512-229.23 512-512 512zM512 32c-229.75 0-416 186.25-416 416s186.25 416 416 416 416-186.25 416-416-186.25-416-416-416zM384 672l384-224-384-224z" />
<glyph unicode="&#xe922;" glyph-name="file-empty" d="M704 704h232.118c-5.008 8.070-11.036 17-18.312 26.924-22.21 30.292-53.174 65.7-87.178 99.704s-69.412 64.964-99.704 87.178c-9.924 7.276-18.854 13.304-26.924 18.312v-232.118zM640 672v288h-496c-44.112 0-80-35.888-80-80v-864c0-44.112 35.886-80 80-80h736c44.112 0 80 35.888 80 80v624h-288c-17.674 0-32 14.328-32 32z" />
<glyph unicode="&#xe923;" glyph-name="checkbox-indetermined" d="M870.707 960h-717.414c-84.48 0-153.293-68.659-153.293-153.293v-717.414c0-84.48 68.608-153.293 153.293-153.293h717.414c84.48 0 153.293 68.659 153.293 153.293v717.414c0 84.48-68.608 153.293-153.293 153.293zM819.2 414.72h-614.4c-18.381 0-33.28 14.899-33.28 33.28s14.899 33.28 33.28 33.28h614.4c18.381 0 33.28-14.899 33.28-33.28s-14.899-33.28-33.28-33.28z" />
<glyph unicode="&#xe924;" glyph-name="checkbox-empty" d="M853.606 960h-683.213c-94.003 0-170.394-76.339-170.394-170.394v-683.213c0-94.003 76.339-170.394 170.394-170.394h683.213c94.003 0 170.394 76.288 170.394 170.394v683.213c0 94.003-76.339 170.394-170.394 170.394zM975.258 106.394c0-67.123-54.528-121.651-121.651-121.651h-683.213c-67.123 0-121.6 54.528-121.6 121.651v683.213c0 67.123 54.528 121.6 121.6 121.6h683.213c67.174 0 121.651-54.528 121.651-121.6v-683.213z" />
<glyph unicode="&#xe925;" glyph-name="zoom-in" d="M966.070-8.301l-304.302 331.965c68.573 71.754 106.232 165.549 106.232 265.136 0 102.57-39.942 199-112.47 271.53s-168.96 112.47-271.53 112.47-199-39.942-271.53-112.47-112.47-168.96-112.47-271.53 39.942-199.002 112.47-271.53 168.96-112.47 271.53-112.47c88.362 0 172.152 29.667 240.043 84.248l304.285-331.947c5.050-5.507 11.954-8.301 18.878-8.301 6.179 0 12.378 2.226 17.293 6.728 10.421 9.555 11.126 25.749 1.571 36.171zM51.2 588.8c0 183.506 149.294 332.8 332.8 332.8s332.8-149.294 332.8-332.8-149.294-332.8-332.8-332.8-332.8 149.294-332.8 332.8zM588.8 614.4h-179.2v179.2c0 14.138-11.462 25.6-25.6 25.6s-25.6-11.462-25.6-25.6v-179.2h-179.2c-14.138 0-25.6-11.462-25.6-25.6s11.462-25.6 25.6-25.6h179.2v-179.2c0-14.139 11.462-25.6 25.6-25.6s25.6 11.461 25.6 25.6v179.2h179.2c14.139 0 25.6 11.462 25.6 25.6s-11.461 25.6-25.6 25.6z" />
<glyph unicode="&#xe926;" glyph-name="zoom-out" d="M966.070-8.301l-304.302 331.965c68.573 71.754 106.232 165.549 106.232 265.136 0 102.57-39.942 199-112.47 271.53s-168.96 112.47-271.53 112.47-199-39.942-271.53-112.47-112.47-168.96-112.47-271.53 39.942-199.002 112.47-271.53 168.96-112.47 271.53-112.47c88.362 0 172.152 29.667 240.043 84.248l304.285-331.947c5.050-5.507 11.954-8.301 18.878-8.301 6.179 0 12.378 2.226 17.293 6.728 10.421 9.555 11.126 25.749 1.571 36.171zM51.2 588.8c0 183.506 149.294 332.8 332.8 332.8s332.8-149.294 332.8-332.8-149.294-332.8-332.8-332.8-332.8 149.294-332.8 332.8zM588.8 563.2h-409.6c-14.138 0-25.6 11.462-25.6 25.6s11.462 25.6 25.6 25.6h409.6c14.139 0 25.6-11.462 25.6-25.6s-11.461-25.6-25.6-25.6z" />
<glyph unicode="&#xe927;" glyph-name="checkbox-checked" d="M870.707 960h-717.414c-84.531 0-153.293-68.659-153.293-153.293v-717.414c0-84.48 68.608-153.293 153.293-153.293h717.414c84.48 0 153.293 68.659 153.293 153.293v717.414c0 84.48-68.608 153.293-153.293 153.293zM859.341 640l-434.842-434.842c-7.117-7.168-16.589-11.059-26.675-11.059s-19.507 3.891-26.675 11.059l-155.29 155.29c-7.168 7.168-11.059 16.64-11.059 26.726s3.942 19.558 11.11 26.675c14.182 14.234 39.066 14.234 53.299 0l128.666-128.666 408.166 408.218c14.182 14.182 39.117 14.234 53.35 0 7.117-7.219 11.008-16.64 11.008-26.726s-3.891-19.558-11.059-26.675z" />
<glyph unicode="&#xe928;" glyph-name="plus2" d="M512 853.334q17.667 0 30.167-12.5t12.5-30.167v-341.333h341.333q17.667 0 30.167-12.5t12.5-30.167-12.5-30.167-30.167-12.5h-341.333v-341.333q0-17.667-12.5-30.167t-30.167-12.5-30.167 12.5-12.5 30.167v341.333h-341.333q-17.667 0-30.167 12.5t-12.5 30.167 12.5 30.167 30.167 12.5h341.333v341.333q0 17.667 12.5 30.167t30.167 12.5z" />
<glyph unicode="&#xe929;" glyph-name="folder-move" d="M1023.949 624.333c-1.178 46.387-37.786 83.814-82.688 83.814h-160.87c-16.23 18.893-59.238 69.12-79.718 93.184-26.368 31.078-59.597 64.358-121.19 64.358h-496.691c-45.619 0-82.79-38.656-82.79-86.272v-662.938c0-47.565 37.171-86.17 82.79-86.17h858.47c45.722 0 82.739 38.605 82.739 86.17l-0.051 507.853zM981.299 116.48c0-23.962-17.971-43.469-40.038-43.469h-858.47c-22.118 0-40.090 19.507-40.090 43.469v662.938c0 24.064 18.022 43.571 40.090 43.571h496.691c39.475 0 61.594-17.306 88.576-49.254 25.446-30.106 85.709-100.198 86.323-100.915 4.045-4.71 9.933-7.424 16.179-7.424h170.65c22.118 0 40.038-19.507 40.038-43.52v-505.395zM431.616 695.398c6.81 0 13.21-2.662 18.022-7.475l229.427-229.478c4.813-4.813 7.475-11.213 7.475-18.022s-2.662-13.21-7.475-18.022l-229.427-229.478c-4.813-4.813-11.213-7.424-18.022-7.424s-13.21 2.611-18.022 7.475c-4.813 4.762-7.475 11.162-7.475 17.971 0 6.861 2.662 13.21 7.475 18.022l186.061 186.061h-435.814c-14.029 0-25.446 11.469-25.446 25.446s11.418 25.395 25.446 25.395h435.814l-186.061 186.061c-4.813 4.813-7.424 11.213-7.424 17.971s2.662 13.21 7.475 18.022 11.162 7.475 17.971 7.475z" />
<glyph unicode="&#xe92a;" glyph-name="folder-add" d="M1023.949 624.384c-1.178 46.387-37.786 83.763-82.688 83.763h-160.87c-16.23 18.944-59.238 69.069-79.718 93.184-26.368 31.13-59.597 64.358-121.19 64.358h-496.691c-45.619 0-82.79-38.707-82.79-86.17v-662.989c0-47.565 37.171-86.221 82.79-86.221h858.47c45.722 0 82.739 38.656 82.739 86.221v507.75l-0.051 0.102zM981.299 116.48c0-24.013-17.971-43.52-40.038-43.52h-858.47c-22.118 0-40.090 19.507-40.090 43.52v663.040c0 24.013 18.022 43.52 40.090 43.52h496.691c39.475 0 61.594-17.306 88.576-49.203 25.446-30.106 85.709-100.198 86.323-100.915 4.045-4.71 9.933-7.424 16.179-7.424h170.65c22.118 0 40.038-19.558 40.038-43.52v-505.498zM768 473.6h-230.4v230.4c0 14.131-11.469 25.6-25.6 25.6s-25.6-11.469-25.6-25.6v-230.4h-230.4c-14.131 0-25.6-11.469-25.6-25.6s11.469-25.6 25.6-25.6h230.4v-230.4c0-14.131 11.469-25.6 25.6-25.6s25.6 11.469 25.6 25.6v230.4h230.4c14.131 0 25.6 11.469 25.6 25.6s-11.469 25.6-25.6 25.6z" />
<glyph unicode="&#xe92b;" glyph-name="collections-simple" d="M537.6 1.075v507.085l409.6 182.118v-507.238l-409.6-181.965zM76.8 690.278l409.6-182.118v-507.085l-409.6 182.016v507.187zM512 906.445l397.773-176.845-397.773-176.794-397.773 176.794 397.773 176.845zM998.298 731.904c0 0.256 0 0.512 0 0.768-0.102 0.512-0.205 1.024-0.307 1.587 0 0.256 0 0.512-0.154 0.768-0.102 0.614-0.307 1.331-0.563 2.048-0.102 0.256-0.205 0.41-0.205 0.717-0.256 0.563-0.358 1.024-0.614 1.434-0.102 0.154-0.205 0.461-0.307 0.717-0.256 0.461-0.358 0.922-0.717 1.331 0 0.154-0.102 0.461-0.205 0.614-0.358 0.666-0.819 1.28-1.075 1.843-0.154 0.154-0.256 0.358-0.358 0.563-0.358 0.41-0.717 0.87-1.024 1.229-0.154 0.154-0.358 0.41-0.461 0.563-0.461 0.512-0.922 1.024-1.331 1.434 0 0.051-0.102 0.102-0.102 0.205-0.563 0.512-1.024 1.024-1.69 1.434-0.205 0.102-0.358 0.205-0.461 0.358-0.461 0.358-0.922 0.666-1.331 1.024-0.205 0.102-0.41 0.256-0.563 0.461-0.461 0.205-1.024 0.512-1.434 0.768-0.205 0.102-0.307 0.154-0.563 0.256-0.563 0.256-1.075 0.614-1.638 0.87l-0.307 0.256-0.102 0.051-460.339 204.595c-6.605 2.97-14.182 2.97-20.787 0l-460.851-204.8c-0.512-0.205-1.126-0.563-1.638-0.87-0.256-0.102-0.358-0.154-0.563-0.256-0.461-0.256-0.922-0.563-1.331-0.768-0.256-0.154-0.461-0.358-0.717-0.461-0.461-0.358-0.922-0.666-1.331-1.024-0.102-0.154-0.205-0.256-0.41-0.358-0.614-0.461-1.126-0.973-1.587-1.485-0.102-0.051-0.102-0.154-0.205-0.154-0.461-0.512-0.922-1.024-1.331-1.485-0.154-0.205-0.256-0.41-0.461-0.563-0.358-0.41-0.666-0.87-0.922-1.229-0.102-0.205-0.358-0.41-0.461-0.563-0.307-0.563-0.666-1.178-0.973-1.843-0.102-0.205-0.358-0.461-0.358-0.614-0.205-0.461-0.461-0.922-0.666-1.331-0.102-0.307-0.205-0.614-0.307-0.768-0.256-0.41-0.358-0.87-0.563-1.434 0-0.307-0.102-0.461-0.205-0.717-0.205-0.666-0.358-1.382-0.563-2.048 0-0.256-0.102-0.512-0.102-0.768-0.154-0.563-0.256-1.075-0.256-1.536 0-0.256-0.102-0.512-0.102-0.768 0-0.768-0.154-1.485-0.154-2.355v-563.098c0-10.086 5.939-19.354 15.206-23.398l460.8-204.902c0.102 0 0.102 0 0.102 0 0.666-0.307 1.434-0.563 2.15-0.819 0.102 0 0.205-0.154 0.358-0.154 0.768-0.256 1.69-0.512 2.458-0.614 0-0.051 0-0.051 0.102-0.051 1.638-0.358 3.43-0.563 5.222-0.563s3.533 0.205 5.274 0.563c0.102 0 0.102 0 0.205 0.051 0.819 0.102 1.587 0.358 2.355 0.614 0.102 0 0.256 0.154 0.461 0.154 0.717 0.256 1.331 0.512 1.997 0.819h0.154l460.8 204.902c9.267 4.045 15.155 13.312 15.155 23.398v563.098c0 0.87 0 1.587-0.102 2.304z" />
<glyph unicode="&#xe92c;" glyph-name="list" d="M998.4 153.6h-768c-14.138 0-25.6 11.461-25.6 25.6s11.462 25.6 25.6 25.6h768c14.139 0 25.6-11.461 25.6-25.6s-11.461-25.6-25.6-25.6zM998.4 409.6h-768c-14.138 0-25.6 11.461-25.6 25.6s11.462 25.6 25.6 25.6h768c14.139 0 25.6-11.461 25.6-25.6s-11.461-25.6-25.6-25.6zM998.4 665.6h-768c-14.138 0-25.6 11.462-25.6 25.6s11.462 25.6 25.6 25.6h768c14.139 0 25.6-11.462 25.6-25.6s-11.461-25.6-25.6-25.6zM76.8 614.4c-42.347 0-76.8 34.453-76.8 76.8s34.453 76.8 76.8 76.8 76.8-34.453 76.8-76.8-34.453-76.8-76.8-76.8zM76.8 716.8c-14.115 0-25.6-11.485-25.6-25.6s11.485-25.6 25.6-25.6 25.6 11.485 25.6 25.6-11.485 25.6-25.6 25.6zM76.8 358.4c-42.347 0-76.8 34.451-76.8 76.8 0 42.347 34.453 76.8 76.8 76.8s76.8-34.453 76.8-76.8c0-42.349-34.453-76.8-76.8-76.8zM76.8 460.8c-14.115 0-25.6-11.485-25.6-25.6s11.485-25.6 25.6-25.6 25.6 11.485 25.6 25.6-11.485 25.6-25.6 25.6zM76.8 102.4c-42.347 0-76.8 34.451-76.8 76.8s34.453 76.8 76.8 76.8 76.8-34.451 76.8-76.8-34.453-76.8-76.8-76.8zM76.8 204.8c-14.115 0-25.6-11.485-25.6-25.6s11.485-25.6 25.6-25.6 25.6 11.485 25.6 25.6-11.485 25.6-25.6 25.6z" />
<glyph unicode="&#xe92d;" glyph-name="collections-smart" d="M769.536 558.182l-52.429 87.654c-15.053-8.499-32.461-13.363-51.046-13.363-56.064 0-101.478 44.134-101.478 98.56h-104.96c0.102-16.845-4.25-33.894-13.517-49.408-28.058-46.746-90.317-62.669-139.162-35.533l-3.226-5.325-23.194-38.81-26.061-43.52c15.104-8.294 28.16-20.378 37.478-35.942 27.955-46.746 11.162-106.598-37.427-133.888l52.531-87.706c14.899 8.448 32.256 13.261 50.739 13.261 55.859 0 101.274-43.827 101.478-98.048h104.909c-0.051 16.64 4.301 33.434 13.568 48.845 28.006 46.746 90.061 62.669 138.854 35.738l52.531 87.654c-15.053 8.294-28.058 20.326-37.325 35.84-27.904 46.797-11.059 106.752 37.734 133.99zM536.525 372.070c-1.843-0.461-3.738-0.819-5.581-1.075-0.154 0-0.358-0.102-0.614-0.154-1.178-0.154-2.355-0.307-3.533-0.512-0.922-0.102-1.843-0.205-2.765-0.307-0.666-0.051-1.331-0.205-1.946-0.256-1.382-0.102-2.714-0.205-4.198-0.256-0.307 0-0.666-0.102-1.024-0.102-1.638-0.051-3.226-0.102-4.915-0.102-1.843 0-3.686 0.051-5.53 0.102-1.741 0.154-3.43 0.256-5.12 0.41-0.102 0-0.205 0-0.358 0-3.43 0.41-6.81 0.922-10.189 1.485-49.562 9.523-86.886 51.712-86.886 102.298 0 24.678 8.909 47.36 23.757 65.178 0.666 0.819 1.331 1.587 2.048 2.355 0.154 0.154 0.256 0.358 0.461 0.461 1.229 1.382 2.458 2.662 3.738 4.045 0.154 0.154 0.358 0.41 0.563 0.512 0.717 0.666 1.382 1.331 2.099 2.048 0.205 0.205 0.41 0.358 0.614 0.563 1.126 1.126 2.355 2.253 3.686 3.277 0.307 0.307 0.768 0.666 1.126 1.024 0.666 0.512 1.331 1.075 1.997 1.587 0.922 0.666 1.843 1.382 2.714 2.048 0.614 0.41 1.229 0.819 1.792 1.28 0.666 0.461 1.28 0.819 1.894 1.28 0.563 0.358 1.126 0.717 1.69 1.126 1.024 0.666 2.099 1.331 3.226 1.946 0.512 0.358 1.024 0.614 1.536 0.973 0.922 0.512 1.792 1.024 2.765 1.536 0.512 0.256 1.024 0.563 1.485 0.768 1.126 0.512 2.253 1.075 3.328 1.587 0.512 0.256 0.973 0.512 1.485 0.717 13.978 6.4 29.645 9.984 46.131 9.984 15.616 0 30.413-3.174 43.827-8.96 1.946-0.819 3.891-1.792 5.837-2.714 0.051 0 0.051-0.051 0.102-0.051 2.918-1.434 5.683-3.021 8.448-4.659 0.102-0.051 0.154-0.102 0.205-0.154 2.765-1.69 5.376-3.533 7.936-5.427 0-0.051 0.102-0.051 0.102-0.102 6.963-5.222 13.158-11.213 18.534-17.869 14.438-17.715 23.040-40.038 23.040-64.307 0.051-49.51-35.584-90.829-83.507-101.581zM998.298 731.955c0 0.205-0.051 0.461-0.102 0.666 0 0.563-0.102 1.126-0.205 1.69 0 0.205-0.154 0.41-0.154 0.666-0.154 0.717-0.307 1.382-0.563 2.099-0.051 0.205-0.102 0.512-0.205 0.717-0.205 0.461-0.358 0.973-0.512 1.382-0.154 0.256-0.307 0.563-0.41 0.768-0.205 0.512-0.41 0.973-0.666 1.382-0.102 0.154-0.154 0.41-0.256 0.614-0.358 0.614-0.819 1.178-1.075 1.792-0.154 0.154-0.307 0.41-0.41 0.563-0.307 0.461-0.666 0.819-0.973 1.28-0.205 0.154-0.358 0.307-0.461 0.512-0.461 0.512-0.922 1.024-1.331 1.536-0.051 0-0.102 0.051-0.102 0.102-0.563 0.563-1.126 1.075-1.69 1.485-0.154 0.102-0.358 0.307-0.461 0.41-0.461 0.307-0.922 0.666-1.331 0.973-0.205 0.154-0.358 0.256-0.614 0.461-0.461 0.256-0.973 0.563-1.382 0.819-0.205 0.102-0.358 0.205-0.563 0.358-0.563 0.256-1.075 0.563-1.69 0.819l-0.256 0.102c-0.051 0-0.102 0-0.102 0l-460.39 204.646c-6.605 2.918-14.131 2.918-20.787 0l-460.339-204.646c-0.051 0-0.102 0-0.102 0l-0.41-0.154c-0.614-0.256-1.178-0.563-1.69-0.819-0.154-0.154-0.358-0.205-0.461-0.358-0.563-0.256-1.024-0.563-1.434-0.819-0.256-0.154-0.461-0.256-0.666-0.461-0.41-0.256-0.87-0.614-1.28-0.922-0.205-0.102-0.358-0.256-0.512-0.41-0.563-0.461-1.075-0.973-1.587-1.485-0.051 0-0.102-0.051-0.154-0.102-0.461-0.512-0.922-1.024-1.331-1.536-0.205-0.205-0.307-0.358-0.41-0.512-0.358-0.461-0.666-0.819-1.024-1.28-0.102-0.154-0.205-0.41-0.358-0.563-0.41-0.614-0.768-1.178-1.075-1.792-0.102-0.205-0.256-0.461-0.358-0.614-0.205-0.461-0.461-0.922-0.666-1.382-0.102-0.256-0.205-0.512-0.307-0.768-0.154-0.461-0.358-0.973-0.512-1.382-0.051-0.205-0.154-0.512-0.205-0.717-0.205-0.666-0.41-1.331-0.512-2.099-0.154-0.256-0.154-0.461-0.205-0.666-0.102-0.563-0.154-1.126-0.256-1.69 0-0.205 0-0.41-0.051-0.666-0.102-0.819-0.102-1.587-0.102-2.355v-563.2c0-10.086 5.99-19.302 15.206-23.398l460.8-204.851c0.051 0 0.051 0 0.154-0.051 0.666-0.256 1.331-0.563 2.048-0.768 0.102 0 0.205-0.102 0.41-0.154 0.768-0.256 1.587-0.512 2.406-0.666 0.051 0 0.102 0 0.102 0 1.69-0.358 3.43-0.512 5.274-0.512 1.792 0 3.584 0.154 5.274 0.563 0.051 0 0.102 0 0.102 0 0.922 0.154 1.69 0.41 2.458 0.666 0.102 0 0.205 0.154 0.41 0.154 0.717 0.205 1.382 0.512 2.099 0.768 0 0.051 0.051 0.051 0.102 0.051l460.8 204.851c9.318 4.096 15.258 13.312 15.258 23.398v563.2c-0.102 0.717-0.154 1.485-0.205 2.304zM947.2 182.989l-409.6-181.965v124.262h-51.2v-124.262l-409.6 182.016v507.136l137.626-61.133 25.702 44.544-125.952 56.013 397.824 176.794 397.824-176.794-128.666-57.19 25.805-44.595 140.237 62.362v-507.187z" />
<glyph unicode="&#xe92e;" glyph-name="collections-add" d="M998.349 731.904c0 0.205-0.051 0.461-0.102 0.666 0 0.563-0.102 1.126-0.256 1.69 0 0.205-0.102 0.461-0.102 0.666-0.154 0.768-0.307 1.434-0.563 2.15-0.051 0.205-0.102 0.461-0.205 0.666-0.205 0.461-0.358 1.024-0.512 1.434-0.154 0.205-0.307 0.563-0.41 0.768-0.205 0.461-0.41 0.922-0.666 1.331-0.102 0.205-0.154 0.461-0.256 0.666-0.358 0.563-0.819 1.075-1.126 1.792-0.102 0.102-0.256 0.358-0.358 0.563-0.307 0.41-0.666 0.768-0.973 1.229-0.205 0.205-0.358 0.307-0.461 0.563-0.461 0.461-0.922 1.024-1.331 1.434l-0.102 0.102c-0.614 0.563-1.126 1.075-1.69 1.536-0.102 0.102-0.358 0.205-0.461 0.358-0.461 0.307-0.922 0.666-1.331 1.024-0.205 0.102-0.307 0.205-0.563 0.461-0.461 0.205-1.024 0.563-1.434 0.768-0.205 0.102-0.358 0.205-0.563 0.358-0.563 0.307-1.075 0.563-1.69 0.87l-0.256 0.154h-0.154l-460.339 204.646c-6.605 2.918-14.131 2.918-20.787 0l-460.39-204.646c-0.051 0-0.102 0-0.102 0l-0.41-0.102c-0.563-0.307-1.178-0.563-1.69-0.87-0.154-0.154-0.358-0.205-0.461-0.358-0.563-0.205-1.024-0.563-1.434-0.768-0.256-0.205-0.461-0.358-0.666-0.461-0.461-0.307-0.922-0.666-1.28-1.024-0.205-0.102-0.358-0.205-0.512-0.358-0.563-0.461-1.126-1.024-1.638-1.536-0.051 0-0.102 0-0.154-0.102-0.461-0.461-0.922-1.024-1.331-1.434-0.154-0.256-0.256-0.358-0.358-0.563-0.358-0.461-0.666-0.819-1.024-1.229-0.102-0.205-0.205-0.461-0.358-0.563-0.41-0.666-0.768-1.229-1.075-1.792-0.102-0.205-0.256-0.461-0.358-0.666-0.205-0.461-0.461-0.922-0.666-1.331-0.102-0.256-0.205-0.563-0.307-0.768-0.154-0.461-0.358-1.024-0.512-1.434-0.102-0.256-0.205-0.512-0.256-0.717-0.205-0.666-0.358-1.331-0.461-2.15-0.154-0.205-0.154-0.41-0.205-0.666-0.102-0.512-0.154-1.126-0.256-1.638 0-0.205 0-0.461-0.051-0.666-0.102-0.819-0.102-1.587-0.102-2.355v-563.251c0-10.035 5.99-19.2 15.206-23.347l460.851-204.851c0.051 0 0.051 0 0.154 0 0.666-0.307 1.331-0.563 2.048-0.768 0.102 0 0.205-0.154 0.358-0.154 0.819-0.307 1.638-0.563 2.406-0.666 0.051 0 0.102 0 0.102 0 1.69-0.461 3.43-0.563 5.274-0.563 1.741 0 3.533 0.102 5.274 0.563 0.051 0 0.102 0 0.102 0 0.922 0.102 1.69 0.358 2.458 0.666 0.102 0 0.256 0.154 0.41 0.154 0.768 0.205 1.382 0.461 2.048 0.768 0 0 0.102 0 0.154 0l460.8 204.851c9.318 4.147 15.206 13.312 15.206 23.347v563.251c-0.051 0.768-0.051 1.536-0.102 2.304zM947.302 182.989l-409.702-182.067v124.314h-51.2v-124.314l-409.6 182.067v507.238l137.626-61.133 25.702 44.493-125.901 56.013 397.773 176.794 397.875-176.794-128.717-57.139 25.856-44.595 140.288 62.362v-507.238zM740.864 529.101h-200.243v200.243c0 15.77-12.8 28.621-28.621 28.621s-28.57-12.851-28.57-28.621v-200.243h-200.294c-15.821 0-28.621-12.851-28.621-28.621 0-15.872 12.8-28.57 28.621-28.57h200.294v-200.294c0-15.872 12.8-28.621 28.621-28.621s28.621 12.749 28.621 28.621v200.294h200.243c15.872 0 28.672 12.698 28.672 28.57-0.051 15.77-12.851 28.621-28.723 28.621z" />
<glyph unicode="&#xe92f;" glyph-name="settings_backup_restore" d="M512 810.667c212 0 384-172 384-384s-172-384-384-384c-88 0-170 30-234 80l60 60c50-34 110-54 174-54 166 0 298 132 298 298s-132 298-298 298-298-132-298-298h128l-172-170-170 170h128c0 212 172 384 384 384zM598 426.667c0-46-40-86-86-86s-86 40-86 86 40 86 86 86 86-40 86-86z" />
<glyph unicode="&#xe930;" glyph-name="list4" d="M947.2 614.4h-614.4c-42.347 0-76.8 34.453-76.8 76.8s34.453 76.8 76.8 76.8h614.4c42.349 0 76.8-34.453 76.8-76.8s-34.451-76.8-76.8-76.8zM332.8 716.8c-14.115 0-25.6-11.485-25.6-25.6s11.485-25.6 25.6-25.6h614.4c14.115 0 25.6 11.485 25.6 25.6s-11.485 25.6-25.6 25.6h-614.4zM947.2 358.4h-614.4c-42.347 0-76.8 34.451-76.8 76.8s34.453 76.8 76.8 76.8h614.4c42.349 0 76.8-34.451 76.8-76.8s-34.451-76.8-76.8-76.8zM332.8 460.8c-14.115 0-25.6-11.485-25.6-25.6s11.485-25.6 25.6-25.6h614.4c14.115 0 25.6 11.485 25.6 25.6s-11.485 25.6-25.6 25.6h-614.4zM947.2 102.4h-614.4c-42.347 0-76.8 34.451-76.8 76.8s34.453 76.8 76.8 76.8h614.4c42.349 0 76.8-34.451 76.8-76.8s-34.451-76.8-76.8-76.8zM332.8 204.8c-14.115 0-25.6-11.485-25.6-25.6s11.485-25.6 25.6-25.6h614.4c14.115 0 25.6 11.485 25.6 25.6s-11.485 25.6-25.6 25.6h-614.4zM76.8 614.4c-42.347 0-76.8 34.453-76.8 76.8s34.453 76.8 76.8 76.8 76.8-34.453 76.8-76.8-34.453-76.8-76.8-76.8zM76.8 716.8c-14.115 0-25.6-11.485-25.6-25.6s11.485-25.6 25.6-25.6 25.6 11.485 25.6 25.6-11.485 25.6-25.6 25.6zM76.8 358.4c-42.347 0-76.8 34.451-76.8 76.8s34.453 76.8 76.8 76.8 76.8-34.451 76.8-76.8-34.453-76.8-76.8-76.8zM76.8 460.8c-14.115 0-25.6-11.485-25.6-25.6s11.485-25.6 25.6-25.6 25.6 11.485 25.6 25.6-11.485 25.6-25.6 25.6zM76.8 102.4c-42.347 0-76.8 34.451-76.8 76.8s34.453 76.8 76.8 76.8 76.8-34.451 76.8-76.8-34.453-76.8-76.8-76.8zM76.8 204.8c-14.115 0-25.6-11.485-25.6-25.6s11.485-25.6 25.6-25.6 25.6 11.485 25.6 25.6-11.485 25.6-25.6 25.6z" />
<glyph unicode="&#xe931;" glyph-name="film, video, movie, tape, play" d="M0 832v-768h1024v768h-1024zM192 128h-128v128h128v-128zM192 384h-128v128h128v-128zM192 640h-128v128h128v-128zM768 128h-512v640h512v-640zM960 128h-128v128h128v-128zM960 384h-128v128h128v-128zM960 640h-128v128h128v-128zM384 640v-384l256 192z" />
<glyph unicode="&#xe932;" glyph-name="removeasset" d="M890.88 110.080v547.84c0 5.12 0 10.24-5.12 15.36l-51.2 51.2 184.32 184.32c10.24 10.24 10.24 25.6 0 35.84s-25.6 10.24-35.84 0l-184.32-184.32-122.88 122.88c-5.12 5.12-10.24 5.12-15.36 5.12h-455.68c-25.6 5.12-51.2-10.24-61.44-30.72l-97.28 92.16c-10.24 10.24-25.6 10.24-35.84 0s-10.24-25.6 0-35.84l128-128v-675.84l-128-128c-10.24-10.24-10.24-25.6 0-35.84 5.12-5.12 10.24-10.24 15.36-10.24s15.36 5.12 20.48 10.24l97.28 92.16c10.24-20.48 35.84-40.96 61.44-40.96h614.4c25.6 0 51.2 15.36 61.44 40.96l97.28-97.28c5.12-5.12 10.24-10.24 20.48-10.24 5.12 0 15.36 5.12 20.48 10.24 10.24 10.24 10.24 25.6 0 35.84l-128 133.12zM839.68 156.16l-291.84 291.84 168.96 163.84h128v-455.68zM834.56 657.92h-71.68l35.84 35.84 35.84-35.84zM655.36 837.12l107.52-107.52-71.68-71.68h-10.24c-15.36 0-25.6 10.24-25.6 25.6v153.6zM184.32 826.88c0 15.36 10.24 25.6 25.6 25.6h399.36v-163.84c0-25.6 15.36-51.2 40.96-61.44l-138.24-143.36-327.68 332.8v10.24zM184.32 739.84l291.84-291.84-291.84-291.84v583.68zM839.68 69.12c0-15.36-10.24-25.6-25.6-25.6h-609.28c-15.36 0-25.6 10.24-25.6 25.6v10.24l327.68 327.68 327.68-327.68v-10.24z" />
<glyph unicode="&#xe933;" glyph-name="share" d="M947.2 51.2h-870.4c-42.347 0-76.8 34.451-76.8 76.8v665.6c0 42.347 34.453 76.8 76.8 76.8h563.2c14.139 0 25.6-11.462 25.6-25.6s-11.461-25.6-25.6-25.6h-563.2c-14.115 0-25.6-11.485-25.6-25.6v-665.6c0-14.115 11.485-25.6 25.6-25.6h870.4c14.115 0 25.6 11.485 25.6 25.6v358.4c0 14.139 11.461 25.6 25.6 25.6s25.6-11.461 25.6-25.6v-358.4c0-42.349-34.451-76.8-76.8-76.8zM990.901 658.101l-204.8 204.8c-9.997 9.998-26.206 9.998-36.203 0-9.998-9.997-9.998-26.206 0-36.203l161.099-161.098h-322.197c-88.138 0-171.333-31.766-234.259-89.45-63.544-58.25-98.541-135.582-98.541-217.75v-25.6c0-14.139 11.462-25.6 25.6-25.6s25.6 11.461 25.6 25.6v25.6c0 141.16 126.325 256 281.6 256h322.197l-161.098-161.099c-9.998-9.997-9.998-26.206 0-36.203 4.998-4.998 11.549-7.498 18.101-7.498s13.102 2.499 18.101 7.499l204.8 204.8c9.998 9.997 9.998 26.205 0 36.202z" />
<glyph unicode="&#xe934;" glyph-name="eye, views, vision, visit" d="M512 141c-148.19 0-280.064 72.604-345.484 115.882-43.842 29.004-84.188 62.202-113.606 93.48-35.602 37.854-52.91 69.79-52.91 97.636 0 27.848 17.308 59.784 52.912 97.638 29.418 31.278 69.764 64.476 113.606 93.48 65.418 43.278 197.294 115.884 345.482 115.884s280.062-72.606 345.482-115.884c43.84-29.004 84.186-62.202 113.606-93.48 35.602-37.852 52.91-69.788 52.912-97.63-0.002-27.854-17.31-59.79-52.912-97.644-29.418-31.278-69.764-64.474-113.606-93.478-65.42-43.28-197.292-115.884-345.482-115.884zM97.634 448c11.022-20.286 56.51-69.934 134.050-118.94 54.4-34.38 163.154-92.058 280.316-92.058 117.164 0 225.918 57.678 280.316 92.060 77.54 49.006 123.028 98.652 134.048 118.938-11.024 20.286-56.51 69.932-134.050 118.94-54.398 34.382-163.152 92.060-280.314 92.060s-225.916-57.678-280.314-92.060c-77.54-49.006-123.030-98.654-134.052-118.94zM384 448c0 70.692 57.308 128 128 128s128-57.308 128-128c0-70.692-57.308-128-128-128s-128 57.308-128 128z" />
<glyph unicode="&#xe935;" glyph-name="cross2" d="M548.203 435.2l442.698 442.699c9.998 9.997 9.998 26.206 0 36.203-9.997 9.998-26.206 9.998-36.203 0l-442.698-442.699-442.699 442.698c-9.997 9.998-26.206 9.998-36.203 0-9.998-9.997-9.998-26.206 0-36.203l442.699-442.698-442.698-442.699c-9.998-9.997-9.998-26.206 0-36.203 4.998-4.998 11.549-7.498 18.101-7.498s13.102 2.499 18.101 7.499l442.699 442.698 442.699-442.699c4.998-4.998 11.549-7.498 18.101-7.498s13.102 2.499 18.101 7.499c9.998 9.997 9.998 26.206 0 36.203l-442.698 442.698z" />
<glyph unicode="&#xe936;" glyph-name="export" d="M768 204.8h-665.6v460.8h132.864c0 0 35.277 45.875 111.104 102.4h-295.168c-28.314 0-51.2-22.989-51.2-51.2v-563.2c0-28.314 22.886-51.2 51.2-51.2h768c28.314 0 51.2 22.886 51.2 51.2v191.795l-102.4-84.224v-56.371zM684.083 560.64v-181.811l339.917 266.291-339.917 255.949v-160.307c-412.723 0-412.723-407.962-412.723-407.962 116.838 191.898 188.723 227.84 412.723 227.84z" />
<glyph unicode="&#xe937;" glyph-name="foldercog" d="M747.52 488.96l-40.96 66.56-5.12 10.24-5.12 5.12c-15.36-10.24-30.72-15.36-46.080-15.36-51.2 0-97.28 40.96-97.28 97.28h-102.4c0-15.36-5.12-35.84-15.36-51.2-25.6-35.84-81.92-51.2-128-25.6l-5.12-5.12-20.48-35.84-25.6-46.080c15.36-10.24 25.6-20.48 35.84-35.84 25.6-46.080 10.24-107.52-35.84-133.12l51.2-87.040c15.36 10.24 30.72 15.36 46.080 15.36 51.2 0 97.28-40.96 97.28-97.28h102.4c0 15.36 5.12 30.72 15.36 46.080 25.6 46.080 87.040 61.44 133.12 35.84l51.2 87.040c-15.36 10.24-25.6 20.48-35.84 35.84-30.72 46.080-15.36 107.52 30.72 133.12zM522.24 304.64c0 0-5.12 0-5.12 0s0 0 0 0 0 0-5.12 0c0 0 0 0-5.12 0 0 0 0 0 0 0s-5.12 0-5.12 0c0 0 0 0 0 0s-5.12 0-5.12 0c0 0-5.12 0-5.12 0s-5.12 0-5.12 0c0 0 0 0 0 0-5.12 0-5.12 0-10.24 0-46.080 10.24-81.92 51.2-81.92 102.4 0 25.6 10.24 46.080 20.48 66.56 0 0 0 0 0 0s0 0 0 0 0 5.12 5.12 5.12c0 0 0 0 0 0s0 0 0 0 0 0 0 0 0 0 5.12 5.12c0 0 0 0 0 0s0 0 0 0 0 0 5.12 0c0 0 0 0 0 0s0 0 0 0 0 0 0 0 0 0 5.12 0c0 0 0 0 0 0s0 0 5.12 0c0 0 0 0 0 0s0 0 5.12 0c0 0 0 0 0 0 15.36 5.12 30.72 10.24 46.080 10.24s30.72-5.12 40.96-10.24c0 0 5.12 0 5.12-5.12 0 0 0 0 0 0 5.12 0 5.12-5.12 10.24-5.12 0 0 0 0 0 0 5.12 0 5.12-5.12 5.12-5.12s0 0 0 0c5.12-5.12 10.24-10.24 15.36-15.36 15.36-15.36 20.48-40.96 20.48-61.44 15.36-35.84-20.48-76.8-66.56-87.040zM1024 622.080c0 46.080-35.84 81.92-81.92 81.92h-158.72c-15.36 20.48-61.44 66.56-81.92 92.16-25.6 30.72-61.44 66.56-122.88 66.56h-496.64c-46.080 5.12-81.92-35.84-81.92-81.92v-660.48c0-46.080 35.84-87.040 81.92-87.040h860.16c46.080 0 81.92 40.96 81.92 87.040v501.76zM983.040 115.2c0-25.6-20.48-40.96-40.96-40.96h-860.16c-20.48 0-40.96 20.48-40.96 40.96v665.6c0 25.6 20.48 40.96 40.96 40.96h496.64c40.96 0 61.44-15.36 87.040-51.2 25.6-30.72 87.040-102.4 87.040-102.4 5.12-5.12 10.24-5.12 15.36-5.12h168.96c20.48 0 40.96-20.48 40.96-40.96v-506.88z" />
<glyph unicode="&#xe938;" glyph-name="playonce" horiz-adv-x="1229" d="M1178.828 534.628c-12.494 12.496-32.756 12.496-45.254 0l-73.538-73.54c-3.29 131.858-56.184 255.338-149.794 348.95-96.702 96.706-225.278 149.962-362.038 149.962s-265.334-53.256-362.040-149.96c-96.706-96.704-149.96-225.28-149.96-362.040s53.256-265.336 149.96-362.040c96.704-96.704 225.28-149.96 362.040-149.96 190.35 0 363.9 104.624 452.928 273.044 8.26 15.624 2.286 34.986-13.336 43.246-15.63 8.254-34.988 2.29-43.246-13.336-77.91-147.392-229.782-238.954-396.346-238.954-247.028 0-448 200.972-448 448s200.972 448 448 448c242.518 0 440.626-193.708 447.78-434.524l-73.152 73.152c-12.496 12.496-32.758 12.496-45.254 0s-12.5-32.758 0-45.256l128-128.002c6.248-6.244 14.436-9.37 22.626-9.37s16.376 3.126 22.624 9.374l128 128c12.5 12.496 12.5 32.756 0 45.254zM520.156 214.83v378.63h-87.182v66.818h162.272v-445.448h-75.090z" />
<glyph unicode="&#xe939;" glyph-name="playall" horiz-adv-x="1291" d="M1129.318 352c-4.198 0-8.397 0.819-12.39 2.458-11.981 4.966-19.917 16.589-19.917 29.542v64c0 247.040-202.598 448-451.686 448-167.936 0-321.075-91.546-399.616-238.95-8.346-15.616-27.853-21.606-43.622-13.363-15.77 8.294-21.76 27.648-13.466 43.264 89.754 168.448 264.755 273.050 456.653 273.050 137.882 0 267.52-53.248 365.056-149.965 94.362-93.645 147.763-217.088 151.040-348.928l74.086 73.523c12.595 12.493 33.075 12.493 45.67 0s12.595-32.768 0-45.261l-129.075-128c-6.144-6.144-14.336-9.37-22.733-9.37zM645.325-64c-137.882 0-267.52 53.248-365.005 149.965-94.413 93.645-147.712 217.088-151.040 348.928l-74.138-73.523c-12.595-12.493-33.024-12.493-45.619 0s-12.595 32.717 0 45.21l129.075 128c9.267 9.165 23.142 11.878 35.174 6.912s19.917-16.589 19.917-29.542v-63.949c0-246.989 202.65-448 451.686-448 167.936 0 321.075 91.546 399.616 238.95 8.346 15.667 27.904 21.606 43.622 13.363 15.821-8.294 21.811-27.597 13.517-43.264-89.907-168.448-264.909-273.050-456.806-273.050zM827.392 596.89c-35.891 0-79.411-22.579-132.966-69.171-18.893-16.384-35.328-32.614-47.104-44.851-11.776 12.237-28.262 28.467-47.104 44.851-53.606 46.541-97.075 69.171-132.915 69.171-83.917 0-152.166-67.686-152.166-150.886s68.25-150.886 152.166-150.886c35.84 0 79.309 22.579 132.915 69.171 18.842 16.333 35.328 32.666 47.104 44.851 11.776-12.186 28.262-28.518 47.104-44.851 53.555-46.541 97.075-69.171 132.966-69.171 83.917 0 152.115 67.686 152.115 150.886s-68.198 150.886-152.115 150.886zM467.251 345.088c-56.115 0-101.734 45.261-101.734 100.915s45.67 100.915 101.734 100.915c37.734 0 103.885-56.525 146.074-100.915-42.086-44.39-108.237-100.915-146.074-100.915v0zM827.392 345.088c-37.786 0-103.885 56.525-146.074 100.915 42.189 44.39 108.288 100.915 146.074 100.915 56.115 0 101.683-45.261 101.683-100.915s-45.568-100.915-101.683-100.915v0z" />
<glyph unicode="&#xe93a;" glyph-name="chevron-down" d="M0 665.6c0 6.552 2.499 13.102 7.499 18.101 9.997 9.998 26.206 9.998 36.203 0l442.698-442.698 442.699 442.698c9.997 9.998 26.206 9.998 36.203 0s9.998-26.206 0-36.203l-460.8-460.8c-9.997-9.998-26.206-9.998-36.203 0l-460.8 460.8c-5 5-7.499 11.55-7.499 18.102z" />
<glyph unicode="&#xe93b;" glyph-name="public" d="M30.72 192c15.36 0 30.72 10.24 30.72 25.6 15.36 128 56.32 194.56 143.36 215.040 15.36 5.12 25.6 15.36 25.6 30.72s-10.24 25.6-20.48 30.72c-61.44 15.36-97.28 66.56-97.28 128 0 76.8 61.44 138.24 138.24 138.24 40.96 0 76.8-15.36 102.4-46.080 10.24-10.24 30.72-15.36 46.080 0 5.12 10.24 10.24 30.72-5.12 40.96-35.84 40.96-92.16 66.56-143.36 66.56-112.64 0-199.68-92.16-199.68-199.68 0-61.44 25.6-122.88 71.68-158.72-92.16-51.2-117.76-158.72-122.88-240.64 0-15.36 10.24-30.72 30.72-30.72 0 0 0 0 0 0zM675.84 714.24c25.6 30.72 61.44 46.080 102.4 46.080 76.8 0 138.24-61.44 138.24-138.24 0-61.44-40.96-112.64-97.28-133.12-15.36-5.12-20.48-15.36-20.48-30.72s10.24-25.6 25.6-30.72c87.040-20.48 128-81.92 143.36-215.040 0-15.36 15.36-25.6 30.72-25.6 0 0 0 0 5.12 0 15.36 0 30.72 15.36 25.6 35.84-10.24 81.92-30.72 184.32-122.88 240.64 40.96 35.84 66.56 97.28 66.56 158.72 0 107.52-87.040 199.68-199.68 199.68-56.32 0-107.52-25.6-148.48-66.56-10.24-10.24-10.24-30.72 0-46.080 20.48-10.24 35.84-5.12 51.2 5.12zM312.32 504.32c0-61.44 30.72-117.76 76.8-158.72-92.16-51.2-117.76-158.72-122.88-240.64 0-15.36 10.24-30.72 25.6-35.84 0 0 0 0 5.12 0 15.36 0 30.72 10.24 30.72 25.6 15.36 128 56.32 194.56 143.36 215.040 15.36 5.12 25.6 15.36 25.6 30.72s-10.24 25.6-20.48 30.72c-61.44 20.48-102.4 76.8-102.4 133.12 0 76.8 61.44 138.24 138.24 138.24s138.24-61.44 138.24-138.24c0-61.44-40.96-112.64-97.28-133.12-15.36-5.12-20.48-15.36-20.48-30.72s10.24-25.6 25.6-30.72c87.040-20.48 128-81.92 143.36-215.040 0-15.36 15.36-30.72 35.84-25.6 15.36 0 30.72 15.36 25.6 35.84-10.24 81.92-30.72 184.32-122.88 240.64 46.080 35.84 76.8 92.16 76.8 158.72-5.12 112.64-97.28 199.68-204.8 199.68s-199.68-87.040-199.68-199.68z" />
<glyph unicode="&#xe93c;" glyph-name="private" d="M512 913.92c148.48 0 266.24-117.76 266.24-266.24 0-117.76-76.8-220.16-189.44-256-10.24-5.12-15.36-15.36-15.36-25.6s10.24-20.48 20.48-20.48c158.72-35.84 245.76-158.72 271.36-389.12 0-5.12 5.12-10.24 10.24-15.36s10.24-5.12 15.36-5.12c15.36 0 20.48 15.36 20.48 25.6-15.36 128-51.2 302.080-199.68 389.12l-35.84 20.48 35.84 25.6c76.8 61.44 117.76 148.48 117.76 245.76-5.12 179.2-143.36 317.44-317.44 317.44s-312.32-138.24-312.32-312.32c0-97.28 46.080-189.44 117.76-245.76l35.84-25.6-35.84-20.48c-148.48-87.040-184.32-266.24-199.68-389.12 0-5.12 0-10.24 5.12-15.36 0-10.24 5.12-15.36 15.36-15.36 15.36 0 25.6 10.24 25.6 20.48 25.6 235.52 107.52 353.28 271.36 389.12 10.24 0 20.48 10.24 20.48 20.48s-5.12 20.48-15.36 25.6c-112.64 35.84-189.44 138.24-189.44 256-5.12 143.36 112.64 266.24 261.12 266.24z" />
<glyph unicode="&#xe93d;" glyph-name="chevrons-expand-vertical" d="M793.6 588.8c-6.552 0-13.102 2.499-18.101 7.498l-289.099 289.099-289.098-289.099c-9.998-9.997-26.206-9.997-36.205 0-9.997 9.998-9.997 26.206 0 36.205l307.2 307.2c9.998 9.997 26.206 9.997 36.205 0l307.2-307.2c9.998-9.998 9.998-26.206 0-36.205-5-4.998-11.55-7.498-18.102-7.498zM486.4-25.6c-6.552 0-13.102 2.499-18.102 7.499l-307.2 307.2c-9.997 9.997-9.997 26.206 0 36.203s26.206 9.997 36.205 0l289.098-289.098 289.099 289.098c9.997 9.997 26.206 9.997 36.203 0 9.998-9.997 9.998-26.206 0-36.203l-307.2-307.2c-5-5-11.55-7.499-18.102-7.499z" />
<glyph unicode="&#xe93e;" glyph-name="pause" d="M815-64h-187.1c-38.2 0-69.3 31.3-69.3 69.7v884.5c0 38.5 31.1 69.8 69.3 69.8h187.1c38.2 0 69.4-31.3 69.4-69.8v-884.5c0-38.4-31.2-69.7-69.4-69.7zM627.9 913.5c-12.3 0-22.8-10.7-22.8-23.2v-884.5c0-13 10-23.2 22.8-23.2h187.1c12.4 0 22.8 10.7 22.8 23.2v884.4c0 13-10 23.2-22.8 23.2 0 0.1-187.1 0.1-187.1 0.1zM396-64h-187c-38.2 0-69.4 31.3-69.4 69.7v884.5c0 38.5 31.2 69.8 69.4 69.8h187c38.2 0 69.4-31.3 69.4-69.8v-884.5c0.1-38.4-31.1-69.7-69.4-69.7zM209 913.5c-12.4 0-22.8-10.7-22.8-23.2v-884.5c0-13 10-23.2 22.8-23.2h187c12.4 0 22.8 10.7 22.8 23.2v884.4c0 13-10 23.2-22.8 23.2l-187 0.1z" />
<glyph unicode="&#xe93f;" glyph-name="prev-clip" d="M0 434.586c0-0.051 0-0.102 0-0.102v-367.002c0-21.76 17.613-39.373 39.373-39.373s39.424 17.613 39.424 39.373v283.034l408.013-340.019c11.725-9.779 28.058-11.878 41.933-5.376 13.824 6.451 22.682 20.378 22.682 35.635v336.589l408.013-340.019c11.725-9.779 28.058-11.878 41.882-5.376 13.824 6.451 22.682 20.326 22.682 35.635v787.712c0 15.258-8.858 29.184-22.682 35.686-5.325 2.509-11.008 3.686-16.691 3.686-9.062 0-18.022-3.123-25.242-9.114l-407.962-340.019v282.931c0 15.309-8.858 29.184-22.682 35.686-5.376 2.458-11.059 3.686-16.742 3.686-9.011 0-17.971-3.123-25.19-9.165l-408.013-339.968v336.589c0 21.76-17.664 39.373-39.424 39.373s-39.373-17.613-39.373-39.373v-420.506c0-0.102 0-0.154 0-0.205zM945.203 771.174v-619.52l-371.712 309.76 371.712 309.76zM472.576 744.346v-619.52l-371.712 309.76 371.712 309.76z" />
</font>
</defs>
</svg>
