<?xml version="1.0" encoding="utf-8"?>
<!-- Generator: Adobe Illustrator 21.0.2, SVG Export Plug-In . SVG Version: 6.00 Build 0)  -->
<svg version="1.1" id="Layer_1" xmlns="http://www.w3.org/2000/svg" xmlns:xlink="http://www.w3.org/1999/xlink" x="0px" y="0px"
	 viewBox="0 0 502.2 145.9" style="enable-background:new 0 0 502.2 145.9;" xml:space="preserve">
<style type="text/css">
	.st0{fill:#555759;}
	.st1{fill:#B8D652;}
</style>
<g>
	<g>
		<g>
			<polygon class="st0" points="55,0 112.6,23.1 108.9,31.2 			"/>
			<polygon class="st0" points="53.5,4.4 114,38.9 78.5,100.5 66.4,92.8 104.5,46.2 			"/>
			<polygon class="st1" points="45.8,4 98.3,48 51,101.6 42.2,93.5 89.1,52.8 			"/>
			<polygon class="st0" points="66.4,45.5 5.5,57.2 7.3,65.6 			"/>
			<polygon class="st0" points="66,50.6 0,72.6 23.1,140.1 36.7,134.6 8.1,81.4 			"/>
			<polygon class="st1" points="73.3,51 13.9,84.7 50.2,145.9 60.5,139.7 22,90.9 			"/>
		</g>
		<g>
			<path d="M483.1,52.2h-9.5l-19.1,48h9.9l4.8-11.7h18.3l4.8,11.7h9.9L483.1,52.2z M484.5,80.1h-12.5l6.2-19.1L484.5,80.1z"/>
			<path d="M375.6,74.6c1.8-2.2,2.9-5.1,2.9-8.1c0-4.8-2.2-8.4-6.2-11c-2.9-1.8-7.3-2.9-12.5-2.9H339v48h9.2V80.8H361l9.9,19.8h9.5
				L369.8,79C372,77.9,374.2,76.4,375.6,74.6z M369.4,66.1c0,2.2-0.7,3.7-2.2,5.1c-1.1,0.7-2.2,1.5-3.3,1.8
				c-1.5,0.4-2.9,0.4-4.8,0.4h-11.4V59.5h12.1c2.9,0,5.1,0.4,6.6,1.1C368.7,62.1,369.4,63.9,369.4,66.1z"/>
			<path d="M316.2,74.6c1.8-2.2,2.9-5.1,2.9-8.1c0-4.8-2.2-8.4-6.2-11c-2.9-1.8-7.3-2.9-12.5-2.9h-20.9v48h9.2V80.8h12.8l9.9,19.8
				h9.5L310.4,79C312.6,77.9,314.8,76.4,316.2,74.6z M310,66.1c0,2.2-0.7,3.7-2.2,5.1c-1.1,0.7-2.2,1.5-3.3,1.8
				c-1.5,0.4-2.9,0.4-4.8,0.4h-11.4V59.5h12.1c2.9,0,5.1,0.4,6.6,1.1C309.3,62.1,310,63.9,310,66.1z"/>
			<polygon points="197.8,57.7 197.8,52.2 160,52.2 160,59.5 186.4,59.5 158.9,93.6 158.9,100.2 198.5,100.2 198.5,92.9 169.9,92.9
							"/>
			<path d="M247.4,53.1c-19.4-6.8-38.2,12.1-31.5,31.5c2.5,7.1,8.1,12.8,15.2,15.2c19.4,6.7,38.2-12.1,31.5-31.5
				C260.1,61.2,254.4,55.5,247.4,53.1z M255,72.3c3.1,11.9-8,23-19.9,19.9c-5.7-1.5-10.2-6-11.7-11.7c-3.1-11.9,8-23,19.9-19.9
				C249,62.1,253.5,66.7,255,72.3z"/>
			<path d="M427.4,53.1c-19.4-6.7-38.2,12.1-31.5,31.5c2.5,7.1,8.1,12.8,15.2,15.2c19.4,6.8,38.3-12.1,31.5-31.5
				C440.1,61.2,434.5,55.5,427.4,53.1z M434.7,72.3c3.1,11.9-8,23-19.9,19.9c-5.7-1.5-10.2-6-11.7-11.7c-3.1-11.9,8-23,19.9-19.9
				C428.7,62.1,433.2,66.7,434.7,72.3z"/>
		</g>
	</g>
</g>
</svg>
