<?xml version="1.0" encoding="utf-8"?>
<!-- Generator: Adobe Illustrator 21.1.0, SVG Export Plug-In . SVG Version: 6.00 Build 0)  -->
<svg version="1.1" id="Layer_1" xmlns="http://www.w3.org/2000/svg" xmlns:xlink="http://www.w3.org/1999/xlink" x="0px" y="0px"
	 viewBox="0 0 103.3 30" style="enable-background:new 0 0 103.3 30;" xml:space="preserve">
<style type="text/css">
	.st0{fill:#555759;}
	.st1{fill:#B8D652;}
	.st2{fill:#FFFFFF;}
</style>
<g>
	<g>
		<g>
			<polygon class="st0" points="11.3,0 23.2,4.7 22.4,6.4 			"/>
			<polygon class="st0" points="11,0.9 23.5,8 16.1,20.7 13.7,19.1 21.5,9.5 			"/>
			<polygon class="st1" points="9.4,0.8 20.2,9.9 10.5,20.9 8.7,19.2 18.3,10.9 			"/>
			<polygon class="st0" points="13.7,9.4 1.1,11.8 1.5,13.5 			"/>
			<polygon class="st0" points="13.6,10.4 0,14.9 4.7,28.8 7.5,27.7 1.7,16.7 			"/>
			<polygon class="st1" points="15.1,10.5 2.9,17.4 10.3,30 12.4,28.7 4.5,18.7 			"/>
		</g>
		<g>
			<path class="st2" d="M99.3,10.7h-2l-3.9,9.9h2l1-2.4h3.8l1,2.4h2L99.3,10.7z M99.6,16.5h-2.6l1.3-3.9L99.6,16.5z"/>
			<path class="st2" d="M77.3,15.3c0.4-0.5,0.6-1,0.6-1.7c0-1-0.5-1.7-1.3-2.3C76,11,75.1,10.8,74,10.8h-4.3v9.9h1.9v-4.1h2.6l2,4.1
				h2L76,16.2C76.5,16,76.9,15.7,77.3,15.3z M76,13.6c0,0.5-0.1,0.8-0.5,1c-0.2,0.1-0.5,0.3-0.7,0.4c-0.3,0.1-0.6,0.1-1,0.1h-2.3
				v-2.9H74c0.6,0,1,0.1,1.4,0.2C75.8,12.8,76,13.1,76,13.6z"/>
			<path class="st2" d="M65,15.3c0.4-0.5,0.6-1,0.6-1.7c0-1-0.5-1.7-1.3-2.3c-0.6-0.4-1.5-0.6-2.6-0.6h-4.3v9.9h1.9v-4.1H62l2,4.1h2
				l-2.2-4.4C64.3,16,64.7,15.7,65,15.3z M63.7,13.6c0,0.5-0.1,0.8-0.5,1c-0.2,0.1-0.5,0.3-0.7,0.4c-0.3,0.1-0.6,0.1-1,0.1h-2.3
				v-2.9h2.5c0.6,0,1,0.1,1.4,0.2C63.6,12.8,63.7,13.1,63.7,13.6z"/>
			<polygon class="st2" points="40.7,11.9 40.7,10.7 32.9,10.7 32.9,12.2 38.3,12.2 32.7,19.2 32.7,20.6 40.8,20.6 40.8,19.1
				35,19.1 			"/>
			<path class="st2" d="M50.9,10.9c-4-1.4-7.9,2.5-6.5,6.5c0.5,1.5,1.7,2.6,3.1,3.1c4,1.4,7.9-2.5,6.5-6.5
				C53.5,12.6,52.3,11.4,50.9,10.9z M52.5,14.9c0.6,2.4-1.6,4.7-4.1,4.1c-1.2-0.3-2.1-1.2-2.4-2.4c-0.6-2.4,1.6-4.7,4.1-4.1
				C51.2,12.8,52.1,13.7,52.5,14.9z"/>
			<path class="st2" d="M87.9,10.9c-4-1.4-7.9,2.5-6.5,6.5c0.5,1.5,1.7,2.6,3.1,3.1c4,1.4,7.9-2.5,6.5-6.5
				C90.5,12.6,89.3,11.4,87.9,10.9z M89.4,14.9c0.6,2.4-1.6,4.7-4.1,4.1c-1.2-0.3-2.1-1.2-2.4-2.4c-0.6-2.4,1.6-4.7,4.1-4.1
				C88.1,12.8,89.1,13.7,89.4,14.9z"/>
		</g>
	</g>
</g>
</svg>
