<?xml version="1.0" encoding="utf-8"?>
<!-- Generator: Adobe Illustrator 21.0.0, SVG Export Plug-In . SVG Version: 6.00 Build 0)  -->
<svg version="1.1" id="Layer_1" xmlns="http://www.w3.org/2000/svg" xmlns:xlink="http://www.w3.org/1999/xlink" x="0px" y="0px"
	 viewBox="0 0 148.3 40" style="enable-background:new 0 0 148.3 40;" xml:space="preserve">
<style type="text/css">
	.st0{fill-rule:evenodd;clip-rule:evenodd;fill:#4D4948;}
	.st1{fill-rule:evenodd;clip-rule:evenodd;fill:#B8DE4B;}
	.st2{fill:#231F20;stroke:#231F20;stroke-width:1.6999;stroke-miterlimit:2.6131;}
	.st3{fill-rule:evenodd;clip-rule:evenodd;fill:#231F20;stroke:#231F20;stroke-width:1.6999;stroke-miterlimit:2.6131;}
</style>
<g>
	<g>
		<polygon class="st0" points="15,0 30.8,6.3 29.8,8.5 		"/>
		<polygon class="st0" points="14.6,1.2 31.2,10.6 21.5,27.5 18.1,25.4 28.6,12.6 		"/>
		<polygon class="st1" points="12.6,1.1 26.9,13.2 14,27.8 11.6,25.6 24.3,14.5 		"/>
		<polygon class="st0" points="18.2,12.5 1.5,15.6 2,18 		"/>
		<polygon class="st0" points="18.1,13.8 0,19.9 6.3,38.3 10,36.8 2.2,22.3 		"/>
		<polygon class="st1" points="20.1,14 3.8,23.2 13.7,40 16.5,38.2 6,24.9 		"/>
	</g>
	<g>
		<path class="st2" d="M145,26.2l-1.3-3.2l-5.5,0l-1.3,3.2h-2l4.9-12.5h2.2l5,12.5H145L145,26.2z M141,14.7l-2.1,6.6h4.3L141,14.7z"
			/>
		<path class="st2" d="M111.6,26.2l-2.7-5.4h-4v5.4h-1.8V13.7h5.4c1.4,0,2.5,0.3,3.2,0.7c1,0.7,1.5,1.6,1.5,2.8c0,0.7-0.2,1.4-0.7,2
			c-0.5,0.6-1.1,1-2,1.2l2.8,5.8H111.6L111.6,26.2z M108.3,19.5c0.6,0,1.1,0,1.4-0.1c0.4-0.1,0.7-0.3,1-0.6c0.5-0.4,0.7-1,0.7-1.6
			c0-0.8-0.3-1.4-1-1.8c-0.5-0.3-1.1-0.4-2-0.4h-3.6v4.5H108.3z"/>
		<path class="st2" d="M95.4,26.2l-2.7-5.4h-4v5.4h-1.8V13.7h5.4c1.4,0,2.5,0.3,3.2,0.7c1,0.7,1.5,1.6,1.5,2.8c0,0.7-0.2,1.4-0.7,2
			c-0.5,0.6-1.1,1-2,1.2l2.8,5.8H95.4L95.4,26.2z M92.1,19.5c0.6,0,1.1,0,1.4-0.1c0.4-0.1,0.7-0.3,1-0.6c0.5-0.4,0.7-1,0.7-1.6
			c0-0.8-0.3-1.4-1-1.8c-0.5-0.3-1.1-0.4-2-0.4h-3.6v4.5H92.1z"/>
		<polygon class="st2" points="64.1,26.2 53.9,26.2 53.9,24.8 61.8,15 54.3,15 54.3,13.7 63.9,13.7 63.9,14.7 55.9,24.8 64.1,24.8
					"/>
		<path class="st3" d="M75.6,13.7c3.5,0,6.3,2.8,6.3,6.3c0,3.5-2.8,6.3-6.3,6.3c-3.5,0-6.3-2.8-6.3-6.3
			C69.3,16.5,72.1,13.7,75.6,13.7L75.6,13.7z M75.6,15c-2.7,0-4.9,2.2-4.9,4.9c0,2.7,2.2,4.9,4.9,4.9c2.7,0,4.9-2.2,4.9-4.9
			C80.5,17.3,78.3,15,75.6,15z"/>
		<path class="st3" d="M124.8,13.7c3.5,0,6.3,2.8,6.3,6.3c0,3.5-2.8,6.3-6.3,6.3c-3.5,0-6.3-2.8-6.3-6.3
			C118.5,16.5,121.3,13.7,124.8,13.7L124.8,13.7z M124.8,15c-2.7,0-4.9,2.2-4.9,4.9c0,2.7,2.2,4.9,4.9,4.9c2.7,0,4.9-2.2,4.9-4.9
			C129.7,17.3,127.5,15,124.8,15z"/>
	</g>
</g>
</svg>
