<?xml version="1.0" encoding="utf-8"?>
<!-- Generator: Adobe Illustrator 21.1.0, SVG Export Plug-In . SVG Version: 6.00 Build 0)  -->
<svg version="1.1" id="Layer_1" xmlns="http://www.w3.org/2000/svg" xmlns:xlink="http://www.w3.org/1999/xlink" x="0px" y="0px"
	 viewBox="0 0 612 250" style="enable-background:new 0 0 612 250;" xml:space="preserve">
<style type="text/css">
	.st0{fill:#555759;}
	.st1{fill:#B8D652;}
	.st2{fill:#FFFFFF;}
</style>
<g>
	<g>
		<g>
			<polygon class="st0" points="111.2,53.1 168.8,76.2 165.1,84.3 			"/>
			<polygon class="st0" points="109.8,57.5 170.3,92 134.7,153.6 122.6,145.9 160.7,99.3 			"/>
			<polygon class="st1" points="102.1,57.1 154.5,101.1 107.2,154.7 98.4,146.6 145.3,105.9 			"/>
			<polygon class="st0" points="122.6,98.6 61.7,110.3 63.6,118.7 			"/>
			<polygon class="st0" points="122.2,103.7 56.2,125.7 79.3,193.2 92.9,187.7 64.3,134.5 			"/>
			<polygon class="st1" points="129.6,104.1 70.2,137.8 106.5,199 116.7,192.8 78.2,144 			"/>
		</g>
		<g>
			<path class="st2" d="M539.3,105.3h-9.5l-19.1,48h9.9l4.8-11.7h18.3l4.8,11.7h9.9L539.3,105.3z M540.8,133.2h-12.5l6.2-19.1
				L540.8,133.2z"/>
			<path class="st2" d="M431.9,127.7c1.8-2.2,2.9-5.1,2.9-8.1c0-4.8-2.2-8.4-6.2-11c-2.9-1.8-7.3-2.9-12.5-2.9h-20.9v48h9.2v-19.8
				h12.8l9.9,19.8h9.5L426,132.1C428.2,131,430.4,129.5,431.9,127.7z M425.6,119.2c0,2.2-0.7,3.7-2.2,5.1c-1.1,0.7-2.2,1.5-3.3,1.8
				c-1.5,0.4-2.9,0.4-4.8,0.4H404v-13.9h12.1c2.9,0,5.1,0.4,6.6,1.1C424.9,115.2,425.6,117,425.6,119.2z"/>
			<path class="st2" d="M372.5,127.7c1.8-2.2,2.9-5.1,2.9-8.1c0-4.8-2.2-8.4-6.2-11c-2.9-1.8-7.3-2.9-12.5-2.9h-20.9v48h9.2v-19.8
				h12.8l9.9,19.8h9.5l-10.6-21.6C368.8,131,371,129.5,372.5,127.7z M366.2,119.2c0,2.2-0.7,3.7-2.2,5.1c-1.1,0.7-2.2,1.5-3.3,1.8
				c-1.5,0.4-2.9,0.4-4.8,0.4h-11.4v-13.9h12.1c2.9,0,5.1,0.4,6.6,1.1C365.5,115.2,366.2,117,366.2,119.2z"/>
			<polygon class="st2" points="254,110.8 254,105.3 216.3,105.3 216.3,112.6 242.7,112.6 215.2,146.7 215.2,153.3 254.8,153.3 
				254.8,146 226.2,146 			"/>
			<path class="st2" d="M303.6,106.1c-19.4-6.8-38.2,12.1-31.5,31.5c2.5,7.1,8.1,12.8,15.2,15.2c19.4,6.7,38.2-12.1,31.5-31.5
				C316.3,114.3,310.7,108.6,303.6,106.1z M311.3,125.4c3.1,11.9-8,23-19.9,19.9c-5.7-1.5-10.2-6-11.7-11.7
				c-3.1-11.9,8-23,19.9-19.9C305.2,115.2,309.8,119.8,311.3,125.4z"/>
			<path class="st2" d="M483.6,106.1c-19.4-6.7-38.2,12.1-31.5,31.5c2.5,7.1,8.1,12.8,15.2,15.2c19.4,6.8,38.3-12.1,31.5-31.5
				C496.4,114.3,490.7,108.6,483.6,106.1z M490.9,125.4c3.1,11.9-8,23-19.9,19.9c-5.7-1.5-10.2-6-11.7-11.7
				c-3.1-11.9,8-23,19.9-19.9C484.9,115.2,489.5,119.8,490.9,125.4z"/>
		</g>
	</g>
</g>
</svg>
